<svg width="84" height="84" viewBox="0 0 84 84" fill="none" xmlns="http://www.w3.org/2000/svg">
<rect width="84" height="84" rx="42" fill="white"/>
<path d="M42 74C59.6731 74 74 59.6731 74 42C74 24.3269 59.6731 10 42 10C24.3269 10 10 24.3269 10 42C10 59.6731 24.3269 74 42 74Z" fill="#E0E8E2"/>
<ellipse cx="42" cy="44.5" rx="4" ry="4.5" fill="#FDF8E5"/>
<ellipse cx="41" cy="56.5" rx="15" ry="2.5" fill="#FDF8E5"/>
<path d="M45.6715 40.8559L45.6712 40.8554L45.2233 40.0704C45.2232 40.0704 45.2232 40.0703 45.2231 40.0702C44.5482 38.8902 43.2841 38.1582 41.9268 38.1582C40.5696 38.1582 39.3056 38.8901 38.6306 40.07L45.6715 40.8559ZM45.6715 40.8559C46.8274 42.8764 48.9903 44.1338 51.3171 44.1338H58.1463M45.6715 40.8559L58.1463 44.1338M58.1463 44.1338C58.3397 44.1338 58.5 44.2941 58.5 44.4875V49.2413M58.1463 44.1338L58.5 49.2413M58.5 49.2413C56.8844 48.8907 55.0907 49.2153 53.7737 50.2537L58.5 49.2413ZM38.1824 40.8554L38.6304 40.0704L53.7733 50.254C53.3103 50.6175 52.662 50.8145 51.9875 50.8141C51.3131 50.8136 50.664 50.6156 50.2003 50.2534C48.2556 48.7191 45.2301 48.7199 43.2821 50.2538L43.2818 50.254C42.8209 50.6175 42.1735 50.8157 41.4995 50.8157C40.8257 50.8157 40.177 50.6177 39.7136 50.2538C37.7651 48.7195 34.7437 48.7194 32.7951 50.2536C32.3316 50.6177 31.6838 50.8157 31.0107 50.8157C30.3374 50.8157 29.6895 50.6177 29.226 50.2535L29.2259 50.2534C27.9096 49.2195 26.1163 48.8914 24.5 49.2414V44.4875C24.5 44.2941 24.6603 44.1338 24.8537 44.1338H32.5366C34.8634 44.1338 37.0263 42.8764 38.1822 40.8559L38.1824 40.8554ZM38.0122 44.4875C38.0122 47.0055 39.6699 49.2558 41.9268 49.2558C44.1837 49.2558 45.8415 47.0055 45.8415 44.4875C45.8415 41.9649 44.1834 39.7192 41.9268 39.7192C39.6702 39.7192 38.0122 41.9649 38.0122 44.4875Z" fill="#FDF8E5" stroke="#3F643A"/>
<path d="M44.9587 52.3802L44.9589 52.3801C45.4224 52.0159 46.0704 51.8179 46.7436 51.8179C47.4166 51.8179 48.0644 52.0158 48.5279 52.3798C49.5104 53.1535 50.7543 53.5284 51.9872 53.5284C53.22 53.5284 54.4637 53.1535 55.4462 52.38C56.2353 51.7606 57.527 51.6533 58.5 52.0839V58.9997C58.5 59.1931 58.3397 59.3534 58.1463 59.3534H24.8537C24.6603 59.3534 24.5 59.1931 24.5 58.9997V52.0835C25.4688 51.6537 26.7608 51.7602 27.5545 52.3805C29.5028 53.9097 32.5234 53.9096 34.4715 52.3802L34.4717 52.3801C34.9352 52.0159 35.5832 51.8179 36.2564 51.8179C36.9296 51.8179 37.5776 52.0159 38.0411 52.3801L38.0413 52.3802C39.9896 53.9097 43.0104 53.9097 44.9587 52.3802ZM29.4756 56.4388C29.4756 57.1828 30.0777 57.7924 30.8293 57.7924C31.5749 57.7924 32.1829 57.1844 32.1829 56.4388C32.1829 55.6872 31.5733 55.0851 30.8293 55.0851C30.0793 55.0851 29.4756 55.6888 29.4756 56.4388ZM40.1463 56.4388C40.1463 57.1828 40.7485 57.7924 41.5 57.7924C42.2457 57.7924 42.8537 57.1844 42.8537 56.4388C42.8537 55.6872 42.244 55.0851 41.5 55.0851C40.7501 55.0851 40.1463 55.6888 40.1463 56.4388ZM50.8171 56.4388C50.8171 57.1828 51.4192 57.7924 52.1707 57.7924C52.9164 57.7924 53.5244 57.1844 53.5244 56.4388C53.5244 55.6872 52.9148 55.0851 52.1707 55.0851C51.4208 55.0851 50.8171 55.6888 50.8171 56.4388Z" fill="#FDF8E5" stroke="#3F643A"/>
<path d="M43.1341 44.4875C43.1341 45.1097 42.9651 45.6505 42.718 46.021C42.4687 46.3951 42.1791 46.5485 41.9268 46.5485C41.6745 46.5485 41.3849 46.3951 41.1356 46.021C40.8885 45.6505 40.7195 45.1097 40.7195 44.4875C40.7195 43.8652 40.8885 43.3245 41.1356 42.954C41.3849 42.5799 41.6745 42.4265 41.9268 42.4265C42.1791 42.4265 42.4687 42.5799 42.718 42.954C42.9651 43.3245 43.1341 43.8652 43.1341 44.4875Z" fill="#FDF8E5" stroke="#3F643A"/>
<path d="M43.3045 29.8447L43.5623 29.329L43.0154 29.1467L41.3922 28.6057C41.2876 28.5689 41.2099 28.4934 41.1734 28.4037C41.1329 28.3045 41.1375 28.1987 41.1831 28.1075L42.8904 24.6928C42.9733 24.5272 43.1836 24.4469 43.3747 24.5379C43.5423 24.6234 43.615 24.8337 43.5278 25.0107L42.2607 27.545L42.0028 28.0606L42.5498 28.243L44.176 28.785C44.2714 28.8168 44.35 28.8897 44.3875 28.9816C44.4279 29.0809 44.4234 29.1867 44.3777 29.2779L42.6704 32.6926C42.6083 32.8169 42.4816 32.89 42.3536 32.89C42.3035 32.89 42.2465 32.8783 42.19 32.8516C42.0228 32.7659 41.9503 32.5559 42.0373 32.379C42.0374 32.3787 42.0376 32.3785 42.0377 32.3782L43.3045 29.8447Z" fill="#FDF8E5" stroke="#3F643A"/>
<path d="M48.9353 30.3829L52.1142 28.2707C52.1142 28.2707 52.1143 28.2706 52.1144 28.2706C52.2774 28.1627 52.496 28.2074 52.6035 28.3694C52.7115 28.5324 52.6669 28.7512 52.5048 28.8586L52.5047 28.8588L50.1443 30.4252L49.6642 30.7438L50.0473 31.1742L51.1862 32.454C51.1864 32.4541 51.1865 32.4542 51.1866 32.4543C51.2539 32.5305 51.2855 32.6322 51.2737 32.7363C51.2582 32.8414 51.2008 32.9305 51.1169 32.9866C51.1168 32.9866 51.1167 32.9867 51.1166 32.9868L47.9404 35.0972C47.8758 35.1384 47.8084 35.1565 47.7446 35.1565C47.6353 35.1565 47.5187 35.1006 47.4465 34.9973C47.341 34.8346 47.386 34.6178 47.5471 34.511L47.5473 34.5109L49.9076 32.9444L50.3877 32.6258L50.0047 32.1954L48.8657 30.9157C48.8656 30.9156 48.8655 30.9155 48.8654 30.9154C48.7981 30.8392 48.7664 30.7374 48.7782 30.6333C48.7937 30.5282 48.8512 30.439 48.9351 30.383C48.9352 30.383 48.9353 30.3829 48.9353 30.3829Z" fill="#FDF8E5" stroke="#3F643A"/>
<path d="M32.7583 32.9331L32.69 33.4284L32.7583 32.9331C32.6516 32.9184 32.561 32.8605 32.5043 32.7757C32.5043 32.7756 32.5042 32.7755 32.5042 32.7754L30.3921 29.5966C30.3921 29.5965 30.392 29.5965 30.392 29.5965C30.284 29.4335 30.3287 29.2147 30.4907 29.1073C30.6537 28.9992 30.8725 29.0438 30.98 29.2059L30.9801 29.2061L32.5466 31.5664L32.8652 32.0465L33.2956 31.6635L34.5753 30.5245C34.5754 30.5244 34.5755 30.5243 34.5756 30.5243C34.6517 30.4569 34.7535 30.4253 34.8577 30.437C34.9627 30.4525 35.0519 30.51 35.1079 30.5938C35.108 30.5939 35.108 30.594 35.1081 30.5941L37.2202 33.773C37.2203 33.773 37.2203 33.7731 37.2204 33.7732C37.3278 33.9354 37.284 34.1528 37.1239 34.2608C37.0594 34.3019 36.9922 34.3198 36.9284 34.3198C36.807 34.3198 36.697 34.2623 36.6338 34.166L36.6338 34.1659L36.6322 34.1635L35.0657 31.8031L34.7471 31.323L34.3167 31.7061L33.037 32.8451C33.0369 32.8451 33.0368 32.8452 33.0367 32.8453C32.9545 32.918 32.8563 32.9466 32.7583 32.9331Z" fill="#FDF8E5" stroke="#3F643A"/>
</svg>
