<svg width="84" height="84" viewBox="0 0 84 84" fill="none" xmlns="http://www.w3.org/2000/svg">
<rect width="84" height="84" rx="42" fill="white"/>
<path d="M42 74C59.6731 74 74 59.6731 74 42C74 24.3269 59.6731 10 42 10C24.3269 10 10 24.3269 10 42C10 59.6731 24.3269 74 42 74Z" fill="#E0E8E2"/>
<rect x="29" y="27" width="27" height="22" fill="#FDF8E5"/>
<mask id="path-4-inside-1_1_6592" fill="white">
<path d="M41.8652 45.4611C41.712 45.658 41.5481 45.8394 41.3631 45.9896C41.1359 46.1762 40.7923 46.4093 40.4276 46.4508C40.0894 46.487 39.6824 46.3679 39.286 46.2539C37.6635 45.7772 36.1519 45.2539 35.4225 44.0933C34.9468 43.3368 34.8993 42.3938 34.9363 41.7358C34.9574 41.4093 34.9997 41.0829 35.0631 40.7617C35.4225 41.3575 35.9035 41.8912 36.4954 42.3057C37.3939 42.9378 38.5038 43.3316 39.9573 43.5337C39.9625 43.544 39.9678 43.5596 39.9784 43.5699C40.5333 44.3368 41.1729 44.9689 41.8599 45.4611H41.8652ZM40.3484 36.6736C40.2532 36.9534 40.1792 37.2487 40.1211 37.5544C40.2902 37.3679 40.4752 37.1865 40.676 37.0207C40.5703 36.9016 40.4646 36.7824 40.3484 36.6736ZM42.3568 43.8653C42.4307 43.9326 42.5047 43.9896 42.5787 44.0518C42.6157 43.9326 42.658 43.8135 42.6897 43.6839C42.5787 43.6839 42.4625 43.6839 42.3515 43.6839C42.362 43.7461 42.362 43.8083 42.3568 43.8653ZM40.2427 33.8653C39.5767 33.8394 39.0165 33.8808 38.5514 34.1192C38.488 34.1503 38.4245 34.1865 38.3664 34.228H38.3875C38.3875 34.228 38.414 34.228 38.4298 34.228C38.8738 34.2332 39.3124 34.3161 39.7353 34.4715C39.8938 34.2591 40.063 34.057 40.2427 33.8653ZM38.414 35.7824C37.8696 35.7668 37.3463 36.0052 36.9129 36.3679C37.4203 36.7824 37.9964 37.1295 38.5355 37.4249C38.6307 36.8705 38.7681 36.342 38.9689 35.8549C38.7892 35.8083 38.6042 35.7824 38.4087 35.7772L38.414 35.7824ZM38.4034 39.1244C38.1867 39.0104 37.97 38.8964 37.7586 38.7772C37.2353 38.487 36.6751 38.1606 36.1466 37.7617C36.0884 37.886 36.025 38.0052 35.9669 38.1295C35.8876 39.1969 36.4637 40.3627 37.4309 41.0415C37.8379 41.3264 38.3135 41.5544 38.8843 41.7254C38.5197 41.0518 38.4351 40.3057 38.4034 39.7047C38.3928 39.5078 38.4034 39.3161 38.4034 39.1244ZM37.8167 32.7409C38.8473 32.2073 40.0418 32.285 40.9139 32.342C41.3631 32.3731 41.8547 32.4093 42.3515 32.4715C42.5629 32.399 42.7743 32.3368 42.991 32.2902C43.7468 32.1347 44.4603 32.1865 45.0522 32.4456C45.6389 32.6995 46.067 33.1295 46.4105 33.5181C46.7911 33.9482 47.1346 34.4145 47.4412 34.8964C47.8904 34.943 48.3449 35.0363 48.7783 35.228C49.0584 35.3523 49.3121 35.5078 49.55 35.6788C49.4548 35.3212 49.3333 34.9793 49.1694 34.6788C48.736 33.8808 47.9961 33.1451 46.9073 32.4301C44.4074 30.7876 41.4794 30.1451 38.8843 30.6632C38.1338 30.8135 36.3316 31.3161 35.7185 32.7358C35.4278 33.4041 35.4754 34.2383 35.8083 34.9793C36.2417 34.1865 36.8337 33.2435 37.8273 32.7306L37.8167 32.7409ZM40.4858 40.1606C40.4541 40.3212 40.4382 40.4819 40.4382 40.6425C40.4435 40.8756 40.4911 41.114 40.5651 41.3472C40.9297 41.6995 41.4741 41.9326 41.9868 42.1036C42.0185 42.114 42.0449 42.1244 42.0714 42.1399C42.3145 42.1399 42.5576 42.1399 42.7954 42.1347C42.7743 41.7979 42.7109 41.4508 42.6316 41.0984C41.9075 40.8083 41.1887 40.4922 40.4805 40.1658L40.4858 40.1606ZM48.3925 36.7979C48.6251 37.4041 48.81 38.0259 48.9316 38.6632C49.0637 39.3523 49.1853 40.3834 48.7308 41.3161C48.1811 42.4456 46.9443 43.171 45.0628 43.4715C44.8197 43.513 44.5766 43.544 44.3334 43.5751C44.27 44.0259 44.1537 44.456 44.0005 44.8653C44.3546 44.9948 44.7087 45.0674 45.0628 45.0881C46.6589 45.1762 48.1811 44.171 49.4707 43.1762C50.1314 42.6684 50.8449 42.0674 50.9928 41.3368C51.1355 40.6062 50.7074 39.7876 50.2529 39.0155C49.7402 38.1399 49.18 37.2642 48.3978 36.7979H48.3925ZM44.8038 41.9378C44.8038 41.9378 44.8461 41.9275 44.8672 41.9275C44.6928 41.8705 44.5184 41.8083 44.3493 41.7461C44.3599 41.829 44.3757 41.9171 44.381 42C44.5237 41.9793 44.6664 41.9586 44.8038 41.9378ZM59 29.5544V47.3005C59 49.8135 56.9229 51.8446 54.3648 51.8446H40.6866L32.4416 59L32.2936 51.8446H29.6352C27.0718 51.8446 25 49.8083 25 47.3005V29.544C25 27.0311 27.0771 25 29.6352 25H54.3648C56.9282 25 59 27.0363 59 29.544V29.5544ZM51.6218 38.2435C51.5372 38.0933 51.4474 37.943 51.3522 37.7927C51.3945 36.2953 51.125 35.0052 50.5647 33.9637C50.0045 32.9326 49.0954 32.0104 47.7847 31.1503C44.936 29.2798 41.5693 28.5492 38.5567 29.1554C36.4531 29.5751 34.8834 30.6684 34.2492 32.1451C33.6678 33.4974 33.9056 35.1606 34.8411 36.4611C34.6509 36.8187 34.5134 37.2073 34.4447 37.6114C34.4395 37.6477 34.4342 37.6891 34.4236 37.7254C33.8792 38.9534 33.4511 40.2642 33.3613 41.6529C33.282 42.9326 33.5198 44.0311 34.0748 44.9171C35.0948 46.544 36.9817 47.2124 38.8315 47.7565C39.249 47.8808 39.7511 48.0259 40.2955 48.0259C40.3959 48.0259 40.5016 48.0259 40.602 48.0104C41.2151 47.943 41.8124 47.6684 42.3885 47.1917C42.7162 46.9171 43.0068 46.601 43.2552 46.2487C43.8155 46.4715 44.3916 46.6166 44.9677 46.6477C45.0575 46.6477 45.1526 46.6529 45.2425 46.6529C47.2403 46.6529 48.9845 45.5233 50.4379 44.4041C51.3892 43.6736 52.2983 42.8342 52.5361 41.6373C52.7845 40.3834 52.1926 39.228 51.6165 38.2435H51.6218ZM47.2985 40.6477C47.494 40.2487 47.5152 39.7098 47.3725 38.9482C47.2086 38.0725 46.9126 37.228 46.5057 36.4404C45.9719 36.4819 45.4275 36.6062 44.9254 36.7409C44.307 36.9067 43.5829 37.1295 42.8958 37.4611C43.0174 37.6736 43.1337 37.8808 43.2447 38.1088C43.5512 38.7461 43.7838 39.3523 43.9688 39.9482C44.9835 40.3368 46.0141 40.6788 47.0553 40.9896C47.1558 40.8808 47.2403 40.7668 47.2985 40.6477ZM45.3376 35.0518C44.9254 34.6943 44.122 34.3212 42.5576 34.0829C42.0132 34.342 41.5164 34.7513 41.1147 35.2694C41.4265 35.5233 41.7225 35.829 42.0026 36.171C42.8641 35.7306 43.7573 35.4508 44.5078 35.2487C44.7668 35.1762 45.0469 35.114 45.3376 35.0518ZM41.5798 38.3264C41.4265 38.4663 41.2891 38.6114 41.1676 38.7617C41.4318 38.886 41.6961 39.0052 41.9656 39.1244C41.9128 39.0052 41.8705 38.8964 41.8124 38.7772C41.7489 38.6477 41.675 38.4974 41.5798 38.3264Z"/>
</mask>
<path d="M41.8652 45.4611C41.712 45.658 41.5481 45.8394 41.3631 45.9896C41.1359 46.1762 40.7923 46.4093 40.4276 46.4508C40.0894 46.487 39.6824 46.3679 39.286 46.2539C37.6635 45.7772 36.1519 45.2539 35.4225 44.0933C34.9468 43.3368 34.8993 42.3938 34.9363 41.7358C34.9574 41.4093 34.9997 41.0829 35.0631 40.7617C35.4225 41.3575 35.9035 41.8912 36.4954 42.3057C37.3939 42.9378 38.5038 43.3316 39.9573 43.5337C39.9625 43.544 39.9678 43.5596 39.9784 43.5699C40.5333 44.3368 41.1729 44.9689 41.8599 45.4611H41.8652ZM40.3484 36.6736C40.2532 36.9534 40.1792 37.2487 40.1211 37.5544C40.2902 37.3679 40.4752 37.1865 40.676 37.0207C40.5703 36.9016 40.4646 36.7824 40.3484 36.6736ZM42.3568 43.8653C42.4307 43.9326 42.5047 43.9896 42.5787 44.0518C42.6157 43.9326 42.658 43.8135 42.6897 43.6839C42.5787 43.6839 42.4625 43.6839 42.3515 43.6839C42.362 43.7461 42.362 43.8083 42.3568 43.8653ZM40.2427 33.8653C39.5767 33.8394 39.0165 33.8808 38.5514 34.1192C38.488 34.1503 38.4245 34.1865 38.3664 34.228H38.3875C38.3875 34.228 38.414 34.228 38.4298 34.228C38.8738 34.2332 39.3124 34.3161 39.7353 34.4715C39.8938 34.2591 40.063 34.057 40.2427 33.8653ZM38.414 35.7824C37.8696 35.7668 37.3463 36.0052 36.9129 36.3679C37.4203 36.7824 37.9964 37.1295 38.5355 37.4249C38.6307 36.8705 38.7681 36.342 38.9689 35.8549C38.7892 35.8083 38.6042 35.7824 38.4087 35.7772L38.414 35.7824ZM38.4034 39.1244C38.1867 39.0104 37.97 38.8964 37.7586 38.7772C37.2353 38.487 36.6751 38.1606 36.1466 37.7617C36.0884 37.886 36.025 38.0052 35.9669 38.1295C35.8876 39.1969 36.4637 40.3627 37.4309 41.0415C37.8379 41.3264 38.3135 41.5544 38.8843 41.7254C38.5197 41.0518 38.4351 40.3057 38.4034 39.7047C38.3928 39.5078 38.4034 39.3161 38.4034 39.1244ZM37.8167 32.7409C38.8473 32.2073 40.0418 32.285 40.9139 32.342C41.3631 32.3731 41.8547 32.4093 42.3515 32.4715C42.5629 32.399 42.7743 32.3368 42.991 32.2902C43.7468 32.1347 44.4603 32.1865 45.0522 32.4456C45.6389 32.6995 46.067 33.1295 46.4105 33.5181C46.7911 33.9482 47.1346 34.4145 47.4412 34.8964C47.8904 34.943 48.3449 35.0363 48.7783 35.228C49.0584 35.3523 49.3121 35.5078 49.55 35.6788C49.4548 35.3212 49.3333 34.9793 49.1694 34.6788C48.736 33.8808 47.9961 33.1451 46.9073 32.4301C44.4074 30.7876 41.4794 30.1451 38.8843 30.6632C38.1338 30.8135 36.3316 31.3161 35.7185 32.7358C35.4278 33.4041 35.4754 34.2383 35.8083 34.9793C36.2417 34.1865 36.8337 33.2435 37.8273 32.7306L37.8167 32.7409ZM40.4858 40.1606C40.4541 40.3212 40.4382 40.4819 40.4382 40.6425C40.4435 40.8756 40.4911 41.114 40.5651 41.3472C40.9297 41.6995 41.4741 41.9326 41.9868 42.1036C42.0185 42.114 42.0449 42.1244 42.0714 42.1399C42.3145 42.1399 42.5576 42.1399 42.7954 42.1347C42.7743 41.7979 42.7109 41.4508 42.6316 41.0984C41.9075 40.8083 41.1887 40.4922 40.4805 40.1658L40.4858 40.1606ZM48.3925 36.7979C48.6251 37.4041 48.81 38.0259 48.9316 38.6632C49.0637 39.3523 49.1853 40.3834 48.7308 41.3161C48.1811 42.4456 46.9443 43.171 45.0628 43.4715C44.8197 43.513 44.5766 43.544 44.3334 43.5751C44.27 44.0259 44.1537 44.456 44.0005 44.8653C44.3546 44.9948 44.7087 45.0674 45.0628 45.0881C46.6589 45.1762 48.1811 44.171 49.4707 43.1762C50.1314 42.6684 50.8449 42.0674 50.9928 41.3368C51.1355 40.6062 50.7074 39.7876 50.2529 39.0155C49.7402 38.1399 49.18 37.2642 48.3978 36.7979H48.3925ZM44.8038 41.9378C44.8038 41.9378 44.8461 41.9275 44.8672 41.9275C44.6928 41.8705 44.5184 41.8083 44.3493 41.7461C44.3599 41.829 44.3757 41.9171 44.381 42C44.5237 41.9793 44.6664 41.9586 44.8038 41.9378ZM59 29.5544V47.3005C59 49.8135 56.9229 51.8446 54.3648 51.8446H40.6866L32.4416 59L32.2936 51.8446H29.6352C27.0718 51.8446 25 49.8083 25 47.3005V29.544C25 27.0311 27.0771 25 29.6352 25H54.3648C56.9282 25 59 27.0363 59 29.544V29.5544ZM51.6218 38.2435C51.5372 38.0933 51.4474 37.943 51.3522 37.7927C51.3945 36.2953 51.125 35.0052 50.5647 33.9637C50.0045 32.9326 49.0954 32.0104 47.7847 31.1503C44.936 29.2798 41.5693 28.5492 38.5567 29.1554C36.4531 29.5751 34.8834 30.6684 34.2492 32.1451C33.6678 33.4974 33.9056 35.1606 34.8411 36.4611C34.6509 36.8187 34.5134 37.2073 34.4447 37.6114C34.4395 37.6477 34.4342 37.6891 34.4236 37.7254C33.8792 38.9534 33.4511 40.2642 33.3613 41.6529C33.282 42.9326 33.5198 44.0311 34.0748 44.9171C35.0948 46.544 36.9817 47.2124 38.8315 47.7565C39.249 47.8808 39.7511 48.0259 40.2955 48.0259C40.3959 48.0259 40.5016 48.0259 40.602 48.0104C41.2151 47.943 41.8124 47.6684 42.3885 47.1917C42.7162 46.9171 43.0068 46.601 43.2552 46.2487C43.8155 46.4715 44.3916 46.6166 44.9677 46.6477C45.0575 46.6477 45.1526 46.6529 45.2425 46.6529C47.2403 46.6529 48.9845 45.5233 50.4379 44.4041C51.3892 43.6736 52.2983 42.8342 52.5361 41.6373C52.7845 40.3834 52.1926 39.228 51.6165 38.2435H51.6218ZM47.2985 40.6477C47.494 40.2487 47.5152 39.7098 47.3725 38.9482C47.2086 38.0725 46.9126 37.228 46.5057 36.4404C45.9719 36.4819 45.4275 36.6062 44.9254 36.7409C44.307 36.9067 43.5829 37.1295 42.8958 37.4611C43.0174 37.6736 43.1337 37.8808 43.2447 38.1088C43.5512 38.7461 43.7838 39.3523 43.9688 39.9482C44.9835 40.3368 46.0141 40.6788 47.0553 40.9896C47.1558 40.8808 47.2403 40.7668 47.2985 40.6477ZM45.3376 35.0518C44.9254 34.6943 44.122 34.3212 42.5576 34.0829C42.0132 34.342 41.5164 34.7513 41.1147 35.2694C41.4265 35.5233 41.7225 35.829 42.0026 36.171C42.8641 35.7306 43.7573 35.4508 44.5078 35.2487C44.7668 35.1762 45.0469 35.114 45.3376 35.0518ZM41.5798 38.3264C41.4265 38.4663 41.2891 38.6114 41.1676 38.7617C41.4318 38.886 41.6961 39.0052 41.9656 39.1244C41.9128 39.0052 41.8705 38.8964 41.8124 38.7772C41.7489 38.6477 41.675 38.4974 41.5798 38.3264Z" fill="#FDF8E5" stroke="#3A643C" stroke-width="2" mask="url(#path-4-inside-1_1_6592)"/>
</svg>
