<svg width="84" height="84" viewBox="0 0 84 84" fill="none" xmlns="http://www.w3.org/2000/svg">
<rect width="84" height="84" rx="42" fill="white"/>
<path d="M42 74C59.6731 74 74 59.6731 74 42C74 24.3269 59.6731 10 42 10C24.3269 10 10 24.3269 10 42C10 59.6731 24.3269 74 42 74Z" fill="#E0E8E2"/>
<path d="M54.6808 33.5866L52.7356 30.8387C52.7356 30.8387 52.7356 30.8387 52.7356 30.8387C52.5322 30.5514 52.2603 30.3158 51.9425 30.1527C51.6247 29.9896 51.2708 29.9041 50.9111 29.9041C50.5514 29.9041 50.1975 29.9896 49.8797 30.1527C49.562 30.3157 49.2902 30.5512 49.0868 30.8383L54.6808 33.5866ZM54.6808 33.5866C54.6809 33.5867 54.6809 33.5868 54.681 33.5869C56.7703 36.5462 54.6106 40.6251 50.9147 40.6251C47.2175 40.6251 45.0532 36.5503 47.145 33.5865L49.0866 30.8387L54.6808 33.5866ZM41.731 57.1627H41.231V57.6627L41.2309 62.2766L41.231 62.2829C41.2317 62.3344 41.2125 62.3859 41.1748 62.4268C41.138 62.4667 41.0858 62.4936 41.0275 62.4998C40.9986 62.501 40.9699 62.4968 40.943 62.4873C40.9147 62.4774 40.8893 62.462 40.8683 62.4427C40.8474 62.4234 40.8313 62.4006 40.8205 62.3761C40.8097 62.3516 40.8043 62.3256 40.8044 62.2996V62.2985V57.6627V57.1627H40.3044H40.126C39.4989 57.1627 38.8994 56.9181 38.4587 56.4857C38.0185 56.0536 37.7729 55.4696 37.7729 54.8627V54.2502C37.7729 54.2002 37.793 54.1503 37.832 54.1121L37.4818 53.7552L37.832 54.112C37.8713 54.0735 37.9266 54.0502 37.9862 54.0502H44.0492C44.1088 54.0502 44.164 54.0735 44.2033 54.112L44.5536 53.7552L44.2033 54.1121C44.2423 54.1503 44.2625 54.2002 44.2625 54.2502V54.8627C44.2625 55.4696 44.0169 56.0536 43.5766 56.4857C43.136 56.9181 42.5364 57.1627 41.9093 57.1627H41.731ZM45.0897 39.9665L45.0897 39.9665L45.092 39.97C45.9591 41.242 47.2318 42.1926 48.708 42.674C50.1841 43.1552 51.7812 43.1404 53.2478 42.6318L53.2499 42.631C53.2832 42.6193 53.3191 42.6156 53.3545 42.6203C53.3899 42.625 53.423 42.6379 53.4511 42.6572C53.4791 42.6766 53.501 42.7016 53.5158 42.7296C53.5306 42.7575 53.538 42.7878 53.538 42.8182C53.538 42.8182 53.538 42.8183 53.538 42.8183V48.6501C53.538 49.0428 53.4592 49.4318 53.3059 49.7951C53.1525 50.1584 52.9275 50.4891 52.6432 50.7682C52.3589 51.0472 52.0208 51.269 51.6481 51.4205C51.2753 51.5721 50.8755 51.6502 50.4715 51.6502H31.5665C30.7502 51.6502 29.9692 51.3318 29.3948 50.7682C28.8207 50.2048 28.5 49.4427 28.5 48.6501V24.5C28.5 23.7074 28.8207 22.9454 29.3948 22.382C29.9692 21.8183 30.7502 21.5 31.5665 21.5H50.4688C51.2851 21.5 52.0661 21.8183 52.6405 22.382C53.2146 22.9454 53.5353 23.7074 53.5353 24.5L53.5353 27.9309L53.5353 27.9333C53.5355 27.9665 53.5268 27.9997 53.5094 28.0297C53.492 28.0597 53.4661 28.0859 53.4335 28.1047C53.4008 28.1235 53.3629 28.1339 53.3237 28.1342C53.2849 28.1345 53.2471 28.1248 53.2143 28.1067C52.5395 27.7276 51.7788 27.5222 51.0026 27.5089L51.0008 27.5088C50.9417 27.508 50.8873 27.4844 50.8486 27.446C50.8103 27.4078 50.7905 27.3584 50.7905 27.3088V27.3088C50.7905 25.2394 49.169 23.9125 47.4373 23.9125H34.598C33.7117 23.9125 32.8598 24.258 32.2303 24.8758C31.6004 25.4939 31.2448 26.3342 31.2448 27.2125V36.5751C31.2448 37.4534 31.6004 38.2937 32.2303 38.9118C32.8598 39.5297 33.7117 39.8751 34.598 39.8751H44.9162C44.9517 39.8755 44.9861 39.8845 45.0164 39.9006C45.0469 39.9169 45.0719 39.9398 45.0897 39.9665ZM50.496 27.8004C50.3643 27.6694 50.2905 27.4928 50.2905 27.3088L50.994 28.0088C50.8065 28.0063 50.6276 27.9314 50.496 27.8004ZM39.5911 44.0751H42.4443C42.693 44.0751 42.9297 44.1722 43.1028 44.342C43.2756 44.5116 43.3709 44.7395 43.3709 44.9751C43.3709 45.2108 43.2756 45.4387 43.1028 45.6082C42.9297 45.7781 42.693 45.8751 42.4443 45.8751H39.5911C39.3423 45.8751 39.1056 45.7781 38.9325 45.6082C38.7598 45.4387 38.6645 45.2108 38.6645 44.9751C38.6645 44.7395 38.7598 44.5116 38.9325 44.342C39.1056 44.1722 39.3423 44.0751 39.5911 44.0751ZM45.7974 44.9751C45.7974 44.0968 45.4418 43.2565 44.812 42.6383C44.1824 42.0205 43.3306 41.6751 42.4443 41.6751H39.5911C38.7048 41.6751 37.8529 42.0205 37.2234 42.6383C36.5935 43.2565 36.2379 44.0968 36.2379 44.9751C36.2379 45.8534 36.5935 46.6938 37.2234 47.3119C37.8529 47.9297 38.7048 48.2751 39.5911 48.2751H42.4443C43.3306 48.2751 44.1824 47.9297 44.812 47.3119C45.4418 46.6938 45.7974 45.8534 45.7974 44.9751Z" fill="#FDF8E5" stroke="#3A643C"/>
</svg>
