<svg width="84" height="84" viewBox="0 0 84 84" fill="none" xmlns="http://www.w3.org/2000/svg">
<rect width="84" height="84" rx="42" fill="white"/>
<path d="M42 74C59.6731 74 74 59.6731 74 42C74 24.3269 59.6731 10 42 10C24.3269 10 10 24.3269 10 42C10 59.6731 24.3269 74 42 74Z" fill="#E0E8E2"/>
<rect x="39" y="47" width="9" height="13" fill="#FDF8E5"/>
<circle cx="40.5" cy="39.5" r="8.5" fill="#FDF8E5"/>
<path d="M34.3096 45.329L34.5671 45.7576L34.2098 45.9723C34.4679 46.2829 34.7428 46.5805 35.034 46.8635C35.0342 46.8636 35.0343 46.8638 35.0345 46.8639L35.5739 47.3858L35.7262 47.5332V47.7451V60.5H38.7069V60.0091V57.7694C38.7069 57.1662 38.905 56.6869 39.226 56.3126C39.5362 55.9509 39.9409 55.7106 40.3228 55.534C40.6124 55.4001 40.9219 55.2892 41.1872 55.1942C41.2665 55.1657 41.3419 55.1387 41.4116 55.113C41.7533 54.9866 41.9343 54.897 42.0154 54.8206C42.0434 54.794 42.0802 54.7499 42.0876 54.5479C42.0914 54.4431 42.0866 54.3199 42.0786 54.1579C42.0777 54.1391 42.0767 54.1199 42.0757 54.1002C42.0685 53.9566 42.0601 53.7907 42.0574 53.6105C42.0449 52.7636 42.1587 51.6143 42.9814 50.0629C43.8341 48.4519 45.0676 47.7966 46.0979 47.5598C46.6058 47.4432 47.0583 47.429 47.3848 47.444C47.5485 47.4515 47.6822 47.4663 47.7772 47.4798C47.8248 47.4866 47.8629 47.493 47.8904 47.4981C47.9042 47.5006 47.9153 47.5028 47.9237 47.5045L47.9343 47.5067L47.9379 47.5074L47.9394 47.5078L47.94 47.5079C47.9403 47.508 47.9406 47.508 47.8327 47.9963L47.9406 47.508L48.3327 47.5946V47.9963V60.0057V60.2077L48.1924 60.353L48.1891 60.3564L48.0505 60.5H48.6258V49.6624C48.6258 47.6465 49.1419 45.6647 50.1275 43.9192C51.0245 42.3248 51.5 40.5126 51.5 38.6676V35.7102L51.2334 35.4341L51.464 35.2319V30.3944C51.464 29.5375 50.791 28.8651 50.0031 28.8651H49.5645C48.7793 28.8651 48.1036 29.538 48.1036 30.3944H47.6036H47.1036V28.175C47.1036 27.3176 46.4301 26.6457 45.646 26.6457H45.2073C44.4233 26.6457 43.7497 27.3176 43.7497 28.175H43.2497H42.7497V26.1118C42.7497 25.2549 42.0767 24.5825 41.2889 24.5825H40.8502C40.0651 24.5825 39.3893 25.2555 39.3893 26.1118H38.8893H38.3893V25.0293C38.3893 24.1724 37.7163 23.5 36.9284 23.5H36.4898C35.7057 23.5 35.0322 24.1719 35.0322 25.0293V30.4996V30.9996H34.5322H32.9609C32.1697 30.9996 31.5 31.6686 31.5 32.5288V38.4029C31.5 40.8867 32.268 43.2823 33.6583 45.2526C33.5181 45.0238 33.3312 44.6908 33.1242 44.2478C32.6963 43.3324 32.1832 41.9492 31.8184 40.048C31.6377 39.1077 31.6117 38.2219 31.63 37.574C31.6392 37.249 31.6595 36.9813 31.6778 36.7934C31.687 36.6994 31.6956 36.6252 31.7021 36.5735C31.7054 36.5477 31.7081 36.5275 31.7101 36.5133L31.7125 36.4965L31.7132 36.4915L31.7134 36.4899L31.7135 36.4893L31.7135 36.4891C31.7136 36.489 31.7136 36.4889 32.208 36.5637M34.3096 45.329C34.5671 45.7576 34.5672 45.7575 34.5673 45.7575L34.5674 45.7574L34.568 45.7571L34.5696 45.7561L34.5752 45.7527L34.5952 45.7405C34.6124 45.7299 34.637 45.7147 34.6681 45.6952C34.7302 45.6563 34.8183 45.6001 34.9239 45.5302C35.1343 45.3909 35.4178 45.1947 35.7057 44.9695C35.9911 44.7462 36.2942 44.4841 36.5356 44.212C36.759 43.9602 37.0061 43.6171 37.0402 43.2357C37.0697 42.9056 36.9777 42.5908 36.8484 42.3207C36.718 42.0484 36.5353 41.7916 36.3421 41.5642C35.9611 41.1159 35.4959 40.7319 35.1662 40.5113C35.1615 40.5056 35.1438 40.4839 35.1172 40.4338C35.0757 40.3556 35.0305 40.2426 34.9848 40.0937C34.8935 39.7964 34.817 39.4132 34.7537 39.0068C34.6909 38.6036 34.6434 38.1934 34.6067 37.847C34.5949 37.7353 34.5839 37.6274 34.5737 37.5277C34.5537 37.3306 34.5369 37.1658 34.5234 37.0691C34.4674 36.6582 34.1166 36.4553 33.9198 36.366C33.6879 36.2608 33.4133 36.1973 33.1754 36.1565C32.9308 36.1147 32.6927 36.0917 32.5181 36.0792C32.4301 36.0728 32.3567 36.069 32.3048 36.0668C32.2787 36.0657 32.258 36.0649 32.2434 36.0645L32.2261 36.064L32.2211 36.0638L32.2195 36.0638L32.219 36.0638L32.2188 36.0638C32.2187 36.0638 32.2186 36.0638 32.208 36.5637M34.3096 45.329C34.0511 45.5298 33.9618 45.5991 33.9309 45.6229C33.9309 45.623 33.9309 45.6231 33.931 45.6231L34.3096 45.329ZM32.208 36.5637L32.2186 36.0638L31.7793 36.0544L31.7136 36.4889L32.208 36.5637ZM43.119 33.4779C42.1807 33.6976 41.3305 34.1109 40.6763 34.9004C40.0167 35.6966 39.6013 36.8213 39.4364 38.3739C39.2028 40.5637 40.1398 42.1111 41.6187 42.9631C43.0623 43.7947 44.9751 43.9413 46.7252 43.4958C47.5865 43.2766 48.1964 42.9455 48.4833 42.4323C48.7865 41.8899 48.6349 41.3256 48.4247 40.8959C48.225 40.4875 47.9143 40.0818 47.6572 39.7459C47.6428 39.7271 47.6286 39.7086 47.6146 39.6902C47.4757 39.5086 47.3541 39.3478 47.2564 39.2007C47.1564 39.0502 47.1013 38.943 47.0778 38.8705C47.0051 38.6434 46.9543 38.3408 46.9094 37.9656C46.8876 37.7839 46.868 37.593 46.8473 37.3917L46.8462 37.3811C46.8252 37.1775 46.8033 36.9643 46.7775 36.7491C46.677 35.9081 46.5115 34.9405 46.0371 34.2028C45.5048 33.3752 44.7172 33.2062 44.1145 33.2411C43.8192 33.2583 43.5603 33.323 43.3775 33.3816C43.2852 33.4112 43.2097 33.4401 43.1557 33.4624C43.1421 33.468 43.1298 33.4732 43.119 33.4779Z" fill="#FDF8E5" stroke="#3A643C"/>
</svg>
