<svg width="16" height="16" viewBox="0 0 16 16" fill="none" xmlns="http://www.w3.org/2000/svg">
<path d="M14.1666 7.99997H5.92992M3.02259 7.99997H1.83325M3.02259 7.99997C3.02259 7.61452 3.1757 7.24486 3.44826 6.97231C3.72081 6.69975 4.09047 6.54663 4.47592 6.54663C4.86137 6.54663 5.23103 6.69975 5.50358 6.97231C5.77613 7.24486 5.92925 7.61452 5.92925 7.99997C5.92925 8.38542 5.77613 8.75508 5.50358 9.02763C5.23103 9.30018 4.86137 9.4533 4.47592 9.4533C4.09047 9.4533 3.72081 9.30018 3.44826 9.02763C3.1757 8.75508 3.02259 8.38542 3.02259 7.99997ZM14.1666 12.4046H10.3346M10.3346 12.4046C10.3346 12.7902 10.1811 13.1603 9.90848 13.4329C9.63587 13.7055 9.26612 13.8586 8.88058 13.8586C8.49514 13.8586 8.12548 13.7048 7.85292 13.4323C7.58037 13.1597 7.42725 12.7901 7.42725 12.4046M10.3346 12.4046C10.3346 12.0191 10.1811 11.6497 9.90848 11.3771C9.63587 11.1045 9.26612 10.9513 8.88058 10.9513C8.49514 10.9513 8.12548 11.1044 7.85292 11.377C7.58037 11.6495 7.42725 12.0192 7.42725 12.4046M7.42725 12.4046H1.83325M14.1666 3.5953H12.0966M9.18925 3.5953H1.83325M9.18925 3.5953C9.18925 3.20985 9.34237 2.84019 9.61492 2.56764C9.88748 2.29509 10.2571 2.14197 10.6426 2.14197C10.8334 2.14197 11.0224 2.17956 11.1988 2.2526C11.3751 2.32563 11.5353 2.43268 11.6702 2.56764C11.8052 2.70259 11.9123 2.86281 11.9853 3.03913C12.0583 3.21546 12.0959 3.40445 12.0959 3.5953C12.0959 3.78616 12.0583 3.97514 11.9853 4.15147C11.9123 4.32779 11.8052 4.48801 11.6702 4.62296C11.5353 4.75792 11.3751 4.86497 11.1988 4.93801C11.0224 5.01104 10.8334 5.04863 10.6426 5.04863C10.2571 5.04863 9.88748 4.89552 9.61492 4.62296C9.34237 4.35041 9.18925 3.98075 9.18925 3.5953Z" stroke="black" stroke-miterlimit="10" stroke-linecap="round"/>
</svg>
