<svg width="84" height="84" viewBox="0 0 84 84" fill="none" xmlns="http://www.w3.org/2000/svg">
<rect width="84" height="84" rx="42" fill="white"/>
<path d="M42 74C59.6731 74 74 59.6731 74 42C74 24.3269 59.6731 10 42 10C24.3269 10 10 24.3269 10 42C10 59.6731 24.3269 74 42 74Z" fill="#E0E8E2"/>
<rect x="29.3984" y="28" width="10.9959" height="14.2947" fill="#FDF8E5"/>
<ellipse cx="33.9908" cy="47.498" rx="7.14734" ry="5.50531" transform="rotate(-32.8511 33.9908 47.498)" fill="#FDF8E5"/>
<ellipse cx="39.6127" cy="48.256" rx="7.14734" ry="4.14918" transform="rotate(-16.0272 39.6127 48.256)" fill="#FDF8E5"/>
<ellipse cx="43.8067" cy="48.8373" rx="7.14734" ry="4.14918" transform="rotate(11.0579 43.8067 48.8373)" fill="#FDF8E5"/>
<ellipse cx="39.408" cy="44.4389" rx="7.14734" ry="4.14918" transform="rotate(11.0579 39.408 44.4389)" fill="#FDF8E5"/>
<ellipse cx="35.7669" cy="41.5267" rx="7.14734" ry="4.14918" transform="rotate(-4.77748 35.7669 41.5267)" fill="#FDF8E5"/>
<ellipse cx="51.5801" cy="50.827" rx="7.18265" ry="3.3473" transform="rotate(11.0579 51.5801 50.827)" fill="#FDF8E5"/>
<circle cx="51.9403" cy="37.3465" r="6.04775" fill="#FDF8E5"/>
<path fill-rule="evenodd" clip-rule="evenodd" d="M51.3687 48.2527C50.9508 48.7893 50.5218 49.6338 50.5877 50.751C50.6317 51.6582 50.4229 52.2651 50.148 52.6621C49.7742 53.1811 49.2903 53.3097 49.2903 53.3097C49.2793 53.313 49.2683 53.3163 49.2573 53.3196C46.7172 52.9953 44.1223 52.4026 41.1094 52.2563C38.5694 52.1321 36.3153 52.8017 34.314 53.213C32.5327 53.5791 30.9823 53.7584 29.6518 52.6907C28.3432 51.6439 28.1671 50.1088 28.365 48.4902C28.596 46.6968 29.2776 44.7989 29.6625 43.2177C30.7511 38.7962 29.8936 28.5535 29.8936 28.5535C29.8606 28.2512 29.5967 28.0268 29.2998 28.0521C28.9919 28.0785 28.772 28.3446 28.794 28.647C28.794 28.647 29.6515 38.6412 28.5959 42.956C28.1231 44.9133 27.2104 47.3445 27.1994 49.492C27.1884 51.0666 27.6394 52.496 28.9589 53.5483C30.2564 54.5875 31.7188 54.7238 33.3572 54.4973C35.5564 54.1949 38.1075 53.2097 41.0544 53.3537C46.0795 53.5989 49.9722 55.046 54.3705 54.5105C56.1299 54.2983 57.3283 53.8331 58.054 53.2493C58.9227 52.5576 59.1977 51.6944 58.9888 50.7818C58.6919 49.4634 57.7242 48.3176 54.2495 47.8525C49.9171 47.2708 47.2341 44.5394 43.5395 40.8184C41.4172 38.6808 40.9333 37.6988 40.9773 35.5513C41.0103 34.0174 41.2744 31.9337 41.4063 28.5711C41.4173 28.2676 41.1864 28.0114 40.8785 28.0004C40.5816 27.9883 40.3287 28.2248 40.3067 28.5282C40.1748 31.8996 39.9107 33.9899 39.8777 35.5293C39.8338 37.9913 40.3177 39.1426 42.7588 41.5936C45.8157 44.6735 48.2458 47.0685 51.3687 48.2527ZM52.49 48.6189C52.1931 48.9191 51.6213 49.6316 51.6763 50.6905C51.7533 51.933 51.4236 52.7555 51.0387 53.2998C50.9948 53.3647 50.9506 53.4263 50.8957 53.4835C51.9953 53.5604 53.1059 53.5571 54.2385 53.4186C55.7229 53.2394 56.7566 52.8842 57.3724 52.3905C57.8562 52.0045 58.0322 51.5328 57.9222 51.0226C57.6913 49.9956 56.8116 49.305 54.1067 48.9433C53.5459 48.8674 53.0068 48.7585 52.49 48.6189ZM32.6646 42.9692C32.3677 44.3052 32.1036 45.9216 32.4225 47.0861C32.6754 48.0207 33.2582 48.7079 34.3688 48.8993C35.8752 49.1577 37.5798 48.2494 37.5798 48.2494C37.8547 48.1054 37.9536 47.7722 37.8106 47.505C37.6677 47.2378 37.3269 47.1377 37.063 47.2829C37.063 47.2829 35.7324 48.0174 34.5559 47.8151C33.7532 47.6776 33.4782 47.0586 33.4013 46.3097C33.3023 45.352 33.5223 44.1919 33.7422 43.2045C33.8082 42.9076 33.6101 42.614 33.3132 42.5491C33.0163 42.4843 32.7306 42.6734 32.6646 42.9692ZM52.4242 31.2574C48.7516 31.2574 45.7607 34.2439 45.7607 37.921C45.7607 41.598 48.7516 44.5834 52.4242 44.5834C56.1079 44.5834 59.0876 41.598 59.0876 37.921C59.0876 34.2439 56.1079 31.2574 52.4242 31.2574ZM52.4242 32.357C55.4921 32.357 57.988 34.8509 57.988 37.921C57.988 40.991 55.4921 43.4838 52.4242 43.4838C49.3564 43.4838 46.8602 40.991 46.8602 37.921C46.8602 34.8509 49.3564 32.357 52.4242 32.357ZM51.8744 34.2571L51.7424 34.1208C51.5224 33.9063 51.1816 33.9063 50.9617 34.1208C50.7418 34.3352 50.7418 34.6838 50.9617 34.8982L51.8744 35.8119V36.9687L50.8736 36.3903L50.544 35.1423C50.456 34.8487 50.159 34.675 49.8621 34.753C49.5762 34.8322 49.4002 35.1335 49.4771 35.4271L49.5322 35.6129L49.2133 35.4282C48.9494 35.2764 48.6085 35.3666 48.4546 35.6294C48.3007 35.8922 48.3996 36.2287 48.6635 36.3804L48.9824 36.5674L48.7955 36.6168C48.4986 36.6949 48.3226 36.9973 48.4106 37.2898C48.4875 37.5834 48.7846 37.7571 49.0814 37.679L50.3239 37.3448L51.3247 37.921L50.3239 38.4993L49.0704 38.1651C48.7845 38.0859 48.4765 38.2607 48.3996 38.5532C48.3226 38.8468 48.4986 39.1481 48.7955 39.2273L48.9824 39.2768L48.6635 39.4615C48.3996 39.6132 48.3007 39.9497 48.4546 40.2125C48.6085 40.4753 48.9494 40.5655 49.2133 40.4137L49.5322 40.2268L49.4771 40.4126C49.4002 40.7062 49.5762 41.0075 49.8731 41.0867C50.159 41.1648 50.467 40.991 50.544 40.6974L50.8736 39.4494L51.8744 38.8732V40.03L50.9617 40.9437C50.7418 41.1582 50.7418 41.5067 50.9617 41.7211C51.1816 41.9356 51.5224 41.9356 51.7424 41.7211L51.8744 41.5848V41.9543C51.8744 42.2577 52.1164 42.5041 52.4242 42.5041C52.7321 42.5041 52.974 42.2577 52.974 41.9543V41.5815L53.1059 41.7167C53.3258 41.9312 53.6776 41.9312 53.8865 41.7167C54.1064 41.5023 54.1064 41.1538 53.8865 40.9393L52.974 40.0256V38.8732L53.9746 39.4494L54.3045 40.6974C54.3925 40.991 54.6892 41.1648 54.9861 41.0867C55.272 41.0075 55.448 40.7062 55.3711 40.4126L55.316 40.2268L55.646 40.4137C55.9099 40.5655 56.2397 40.4753 56.3936 40.2125C56.5476 39.9497 56.4597 39.6132 56.1958 39.4615L55.8768 39.2768L56.0637 39.2273C56.3496 39.1481 56.5256 38.8468 56.4487 38.5532C56.3717 38.2607 56.0637 38.0859 55.7778 38.1651L54.5244 38.4993L53.5238 37.921L54.5244 37.3448L55.767 37.679C56.0639 37.7571 56.3607 37.5834 56.4487 37.2898C56.5256 36.9973 56.3496 36.6949 56.0527 36.6168L55.8658 36.5674L56.1958 36.3804C56.4597 36.2287 56.5476 35.8922 56.3936 35.6294C56.2397 35.3666 55.9099 35.2764 55.646 35.4282L55.327 35.6129L55.3711 35.4271C55.448 35.1335 55.283 34.8322 54.9861 34.753C54.6892 34.675 54.3925 34.8487 54.3155 35.1423L53.9746 36.3903L52.974 36.9687V35.8152L53.8865 34.9026C54.1064 34.6871 54.1064 34.3396 53.8865 34.1241C53.6776 33.9096 53.3258 33.9096 53.1059 34.1241L52.974 34.2604V33.8877C52.974 33.5842 52.7321 33.3379 52.4242 33.3379C52.1164 33.3379 51.8744 33.5842 51.8744 33.8877V34.2571Z" fill="#3A643C"/>
</svg>
