<svg width="41" height="40" viewBox="0 0 41 40" fill="none" xmlns="http://www.w3.org/2000/svg">
<path d="M6.91406 14.3535C6.67079 13.2577 6.70815 12.1182 7.02265 11.0407C7.33716 9.96321 7.91864 8.98256 8.71317 8.18969C9.50771 7.39681 10.4896 6.81739 11.5677 6.50514C12.6459 6.19289 13.7854 6.15792 14.8807 6.40348C15.4836 5.46065 16.3141 4.68475 17.2956 4.14729C18.2772 3.60984 19.3783 3.32812 20.4974 3.32812C21.6165 3.32812 22.7176 3.60984 23.6991 4.14729C24.6807 4.68475 25.5112 5.46065 26.1141 6.40348C27.211 6.15686 28.3525 6.19166 29.4324 6.50467C30.5123 6.81768 31.4954 7.39872 32.2905 8.19374C33.0855 8.98876 33.6665 9.97194 33.9795 11.0518C34.2925 12.1317 34.3274 13.2732 34.0807 14.3701C35.0236 14.973 35.7995 15.8035 36.3369 16.7851C36.8744 17.7666 37.1561 18.8677 37.1561 19.9868C37.1561 21.1059 36.8744 22.207 36.3369 23.1886C35.7995 24.1701 35.0236 25.0006 34.0807 25.6035C34.3263 26.6988 34.2913 27.8383 33.9791 28.9165C33.6668 29.9946 33.0874 30.9765 32.2945 31.771C31.5016 32.5656 30.521 33.147 29.4435 33.4616C28.366 33.7761 27.2265 33.8134 26.1307 33.5702C25.5287 34.5166 24.6975 35.2958 23.7143 35.8357C22.731 36.3755 21.6274 36.6586 20.5057 36.6586C19.384 36.6586 18.2804 36.3755 17.2972 35.8357C16.3139 35.2958 15.4828 34.5166 14.8807 33.5702C13.7854 33.8157 12.6459 33.7807 11.5677 33.4685C10.4896 33.1562 9.50771 32.5768 8.71317 31.7839C7.91864 30.9911 7.33716 30.0104 7.02265 28.9329C6.70815 27.8554 6.67079 26.7159 6.91406 25.6201C5.96399 25.0189 5.18142 24.1871 4.63914 23.2022C4.09686 22.2172 3.8125 21.1112 3.8125 19.9868C3.8125 18.8625 4.09686 17.7564 4.63914 16.7715C5.18142 15.7865 5.96399 14.9547 6.91406 14.3535Z" fill="#41A647"/>
<path d="M15.5 20.0091L18.8333 23.3424L25.5 16.6758" stroke="white" stroke-width="3.33333" stroke-linecap="round" stroke-linejoin="round"/>
</svg>
