<svg width="132" height="131" viewBox="0 0 132 131" fill="none" xmlns="http://www.w3.org/2000/svg">
<path d="M21.5061 47.0077C20.7094 43.419 20.8317 39.6872 21.8617 36.1584C22.8917 32.6296 24.7961 29.4179 27.3982 26.8213C30.0003 24.2246 33.2159 22.327 36.7469 21.3044C40.2778 20.2818 44.0099 20.1673 47.5969 20.9715C49.5712 17.8837 52.2911 15.3426 55.5057 13.5824C58.7204 11.8223 62.3265 10.8997 65.9915 10.8997C69.6565 10.8997 73.2625 11.8223 76.4772 13.5824C79.6919 15.3426 82.4117 17.8837 84.3861 20.9715C87.9786 20.1638 91.717 20.2778 95.2536 21.3029C98.7902 22.328 102.01 24.2308 104.614 26.8345C107.217 29.4382 109.12 32.6581 110.145 36.1948C111.171 39.7314 111.285 43.4698 110.477 47.0623C113.565 49.0366 116.106 51.7565 117.866 54.9711C119.626 58.1858 120.549 61.7919 120.549 65.4569C120.549 69.1219 119.626 72.7279 117.866 75.9426C116.106 79.1573 113.565 81.8771 110.477 83.8515C111.281 87.4385 111.167 91.1705 110.144 94.7015C109.121 98.2325 107.224 101.448 104.627 104.05C102.03 106.652 98.8188 108.557 95.29 109.587C91.7611 110.617 88.0294 110.739 84.4406 109.942C82.4689 113.042 79.7469 115.594 76.5267 117.362C73.3066 119.13 69.6924 120.057 66.0188 120.057C62.3452 120.057 58.7309 119.13 55.5108 117.362C52.2906 115.594 49.5686 113.042 47.5969 109.942C44.0099 110.746 40.2778 110.632 36.7469 109.609C33.2159 108.587 30.0003 106.689 27.3982 104.092C24.7961 101.496 22.8917 98.2842 21.8617 94.7554C20.8317 91.2265 20.7094 87.4948 21.5061 83.906C18.3946 81.9369 15.8316 79.2128 14.0557 75.9872C12.2797 72.7615 11.3484 69.1391 11.3484 65.4569C11.3484 61.7746 12.2797 58.1522 14.0557 54.9266C15.8316 51.7009 18.3946 48.9768 21.5061 47.0077Z" fill="#41A647"/>
<path d="M49.625 65.5298L60.5417 76.4465L82.375 54.6132" stroke="white" stroke-width="3.33333" stroke-linecap="round" stroke-linejoin="round"/>
</svg>
