<svg width="110" height="111" viewBox="0 0 110 111" fill="none" xmlns="http://www.w3.org/2000/svg">
<path d="M10.5061 37.0077C9.70936 33.419 9.83169 29.6872 10.8617 26.1584C11.8917 22.6296 13.7961 19.4179 16.3982 16.8213C19.0003 14.2246 22.2159 12.327 25.7469 11.3044C29.2778 10.2818 33.0099 10.1673 36.5969 10.9715C38.5712 7.88368 41.2911 5.3426 44.5057 3.58243C47.7204 1.82226 51.3265 0.899658 54.9915 0.899658C58.6565 0.899658 62.2625 1.82226 65.4772 3.58243C68.6919 5.3426 71.4117 7.88368 73.3861 10.9715C76.9786 10.1638 80.717 10.2778 84.2536 11.3029C87.7902 12.328 91.0101 14.2308 93.6138 16.8345C96.2175 19.4382 98.1204 22.6581 99.1455 26.1948C100.171 29.7314 100.285 33.4698 99.4769 37.0623C102.565 39.0366 105.106 41.7565 106.866 44.9711C108.626 48.1858 109.549 51.7919 109.549 55.4569C109.549 59.1219 108.626 62.7279 106.866 65.9426C105.106 69.1573 102.565 71.8771 99.4769 73.8515C100.281 77.4385 100.167 81.1705 99.144 84.7015C98.1213 88.2325 96.2237 91.4481 93.6271 94.0502C91.0304 96.6523 87.8188 98.5566 84.29 99.5866C80.7611 100.617 77.0294 100.739 73.4406 99.9423C71.4689 103.042 68.7469 105.594 65.5267 107.362C62.3066 109.13 58.6924 110.057 55.0188 110.057C51.3452 110.057 47.7309 109.13 44.5108 107.362C41.2906 105.594 38.5686 103.042 36.5969 99.9423C33.0099 100.746 29.2778 100.632 25.7469 99.6094C22.2159 98.5867 19.0003 96.6891 16.3982 94.0925C13.7961 91.4958 11.8917 88.2842 10.8617 84.7554C9.83169 81.2265 9.70936 77.4948 10.5061 73.906C7.39457 71.9369 4.83165 69.2128 3.05569 65.9872C1.27974 62.7615 0.34845 59.1391 0.34845 55.4569C0.34845 51.7746 1.27974 48.1522 3.05569 44.9266C4.83165 41.7009 7.39457 38.9768 10.5061 37.0077Z" fill="#41A647"/>
</svg>
