<svg width="54" height="54" viewBox="0 0 54 54" fill="none" xmlns="http://www.w3.org/2000/svg">
<path d="M27.0003 25.2703C29.2991 25.2703 31.5463 24.5886 33.4578 23.3115C35.3692 22.0343 36.8589 20.219 37.7386 18.0951C38.6184 15.9712 38.8485 13.6342 38.4 11.3795C37.9515 9.12488 36.8444 7.05385 35.2189 5.42835C33.5933 3.80285 31.5223 2.69589 29.2676 2.24746C27.0129 1.79903 24.6759 2.02926 22.552 2.90905C20.4282 3.78884 18.6129 5.27866 17.3358 7.19012C16.0587 9.10159 15.3771 11.3488 15.3772 13.6477C15.3808 16.7292 16.6065 19.6834 18.7855 21.8623C20.9645 24.0412 23.9188 25.2669 27.0003 25.2703ZM27.0003 4.13439C28.8819 4.13423 30.7213 4.69202 32.2859 5.73724C33.8505 6.78247 35.07 8.26817 35.7903 10.0065C36.5105 11.7448 36.6991 13.6576 36.3322 15.5031C35.9653 17.3486 35.0594 19.0439 33.7291 20.3746C32.3987 21.7052 30.7037 22.6115 28.8582 22.9788C27.0128 23.3461 25.0999 23.1579 23.3615 22.4381C21.623 21.7182 20.137 20.499 19.0914 18.9346C18.0459 17.3703 17.4877 15.531 17.4874 13.6494C17.4899 11.127 18.4928 8.70853 20.2763 6.92472C22.0597 5.14091 24.4779 4.13741 27.0003 4.13439ZM51.2927 46.5349L50.9649 45.6562C50.8672 45.394 50.6694 45.1814 50.415 45.0651C50.1605 44.9488 49.8703 44.9383 49.6081 45.036C49.346 45.1337 49.1334 45.3315 49.0171 45.586C48.9008 45.8404 48.8903 46.1306 48.988 46.3928L49.3166 47.2728C50.0034 49.1126 49.8473 49.4805 49.8094 49.5353C49.7714 49.5902 49.4807 49.8656 47.5161 49.8656H6.47606C4.51814 49.8656 4.22873 49.5918 4.19076 49.537C4.15279 49.4822 3.99712 49.1151 4.68393 47.2774L4.86112 46.8028C7.67587 39.2631 9.08873 35.4797 11.5559 33.6656C13.993 31.8727 17.808 31.7917 25.5199 31.7896C25.7996 31.7896 26.0679 31.6784 26.2657 31.4807C26.4635 31.2829 26.5746 31.0146 26.5746 30.7349C26.5746 30.4552 26.4635 30.1869 26.2657 29.9891C26.0679 29.7913 25.7996 29.6802 25.5199 29.6802C9.46547 29.6848 8.83054 30.1443 2.88632 46.0662L2.70914 46.5404C2.04426 48.3195 1.74684 49.7146 2.45897 50.7406C3.17109 51.7666 4.57973 51.9763 6.47732 51.9763H47.5173C49.4187 51.9763 50.8307 51.7653 51.5433 50.7398C52.2558 49.7142 51.9576 48.3157 51.2927 46.5349Z" fill="#0C140C"/>
<path d="M29.4844 30.5408C28.7052 32.6679 27.8813 38.4185 37.0212 45.8675C38.4957 47.0682 39.3837 47.793 40.4891 47.793C41.5944 47.793 42.4828 47.0682 43.9573 45.8675C53.0989 38.4185 52.2733 32.6679 51.4941 30.5408C51.0086 29.2027 50.1254 28.0451 48.9629 27.2236C47.8003 26.4022 46.4143 25.9561 44.9909 25.9453C44.1084 25.9521 43.2401 26.1682 42.4575 26.576C41.6749 26.9838 41.0002 27.5716 40.4891 28.2909C39.9778 27.5714 39.3029 26.9835 38.52 26.5757C37.7372 26.1679 36.8687 25.9519 35.986 25.9453C34.5624 25.9546 33.1759 26.4001 32.0133 27.2218C30.8508 28.0435 29.9682 29.2019 29.4844 30.5408ZM39.4858 30.9428C39.5546 31.1548 39.6887 31.3395 39.8689 31.4705C40.0492 31.6015 40.2662 31.6721 40.4891 31.6721C40.7119 31.6721 40.929 31.6015 41.1092 31.4705C41.2894 31.3395 41.4235 31.1548 41.4923 30.9428C42.0774 29.1389 43.3671 28.0867 45.0301 28.0555C46.0164 28.0669 46.9753 28.381 47.7772 28.9553C48.579 29.5296 49.1851 30.3363 49.5134 31.2664C50.1369 32.9687 50.7145 37.6405 42.625 44.2319C41.6686 45.0107 40.8426 45.6836 40.4891 45.6836C40.1355 45.6836 39.3078 45.0086 38.3535 44.2319C30.2636 37.6405 30.8412 32.9678 31.4647 31.2664C31.7898 30.3495 32.3844 29.5522 33.1705 28.9791C33.9566 28.406 34.8975 28.0838 35.8699 28.0547H35.948C37.6114 28.0868 38.9007 29.1389 39.4875 30.9428H39.4858Z" fill="#0C140C"/>
<path d="M36.2564 36.8778L39.0724 39.6938C39.2701 39.8915 39.5384 40.0026 39.818 40.0026C40.0977 40.0026 40.3659 39.8915 40.5637 39.6938L44.7217 35.5358C44.9138 35.3369 45.0201 35.0705 45.0177 34.7939C45.0153 34.5174 44.9044 34.2529 44.7088 34.0573C44.5133 33.8618 44.2488 33.7509 43.9722 33.7485C43.6957 33.746 43.4293 33.8524 43.2304 34.0445L39.8182 37.4566L37.7481 35.3865C37.6503 35.2878 37.534 35.2094 37.4059 35.1558C37.2778 35.1023 37.1403 35.0745 37.0014 35.0742C36.8625 35.0739 36.7249 35.101 36.5966 35.154C36.4682 35.207 36.3515 35.2848 36.2533 35.383C36.1551 35.4812 36.0772 35.5978 36.0242 35.7262C35.9711 35.8545 35.944 35.9921 35.9443 36.131C35.9446 36.2699 35.9723 36.4074 36.0258 36.5355C36.0794 36.6637 36.1577 36.78 36.2564 36.8778Z" fill="#0C140C"/>
</svg>
