<svg width="84" height="84" viewBox="0 0 84 84" fill="none" xmlns="http://www.w3.org/2000/svg">
<rect width="84" height="84" rx="42" fill="white"/>
<path d="M42 74C59.6731 74 74 59.6731 74 42C74 24.3269 59.6731 10 42 10C24.3269 10 10 24.3269 10 42C10 59.6731 24.3269 74 42 74Z" fill="#E0E8E2"/>
<path d="M46.6094 42.1249H45.5156C45.3084 42.1249 45.1191 42.2453 45.0262 42.436L43.3998 45.7823L40.5588 37.9894C40.4838 37.7847 40.2995 37.6424 40.0873 37.6261C39.8763 37.6092 39.6723 37.7217 39.5689 37.9141L36.9909 42.6874H30.2031C28.6954 42.6874 27.4688 43.9491 27.4688 45.4999C27.4688 47.0508 28.6954 48.3124 30.2031 48.3124H32.3906C33.8984 48.3124 35.125 49.5741 35.125 51.1249C35.125 52.6758 33.8984 53.9374 32.3906 53.9374V53.3749H31.0415C31.2039 53.7276 31.2969 54.1051 31.2969 54.4999C31.2969 54.8948 31.2039 55.2723 31.0415 55.6249H32.3906V55.0624C34.5016 55.0624 36.2188 53.2956 36.2188 51.1249C36.2188 48.9543 34.5016 47.1874 32.3906 47.1874H30.2031C29.2986 47.1874 28.5625 46.4303 28.5625 45.4999C28.5625 44.5696 29.2986 43.8124 30.2031 43.8124H37.3125C37.511 43.8124 37.6942 43.7016 37.7905 43.5228L39.9501 39.5245L42.8157 47.3854C42.8923 47.5947 43.082 47.7376 43.2991 47.7494C43.5217 47.7623 43.7197 47.6391 43.817 47.4389L45.8536 43.2499H46.6094C47.8147 43.2499 48.9423 42.5862 49.563 41.5L54.5735 31.9516L54.8229 33.2352L55.8953 33.0141L55.3484 30.2016C55.3167 30.0379 55.2155 29.8973 55.0728 29.8174C54.9301 29.7376 54.7595 29.7269 54.6091 29.7893L51.8747 30.9143L52.281 31.9589L53.6143 31.4104L48.6098 40.9471C48.1953 41.6738 47.4286 42.1249 46.6094 42.1249Z" fill="#3A643C"/>
<path d="M26.9219 57.3125C29.0361 57.3125 30.75 56.0533 30.75 54.5C30.75 52.9467 29.0361 51.6875 26.9219 51.6875C24.8077 51.6875 23.0938 52.9467 23.0938 54.5C23.0938 56.0533 24.8077 57.3125 26.9219 57.3125Z" fill="#3A643C"/>
<path d="M43.537 43.0978L41.5401 37.6213L41.54 37.6212C41.3253 37.0327 40.7933 36.6163 40.1671 36.5675C39.5386 36.5154 38.9475 36.8536 38.6503 37.4028L38.6501 37.4032L36.3703 41.625H32.6308C32.8055 41.2234 33.0078 40.8294 33.2409 40.4458C33.2409 40.4457 33.2409 40.4457 33.2409 40.4457L35.4814 36.7597L35.4815 36.7598L35.4866 36.7509L42.5075 24.65L49.5284 36.7509L49.5283 36.751L49.5336 36.7596L49.5809 36.8375L47.7004 40.4216C47.4691 40.8207 47.0486 41.0625 46.6091 41.0625H45.5153C44.9044 41.0625 44.3539 41.4176 44.0873 41.966L43.537 43.0978Z" fill="#FDF8E5" stroke="#3A643C"/>
<path d="M50.4783 42.0152L50.4828 42.0075L50.4869 41.9996L51.521 40.029L51.7744 40.4458L52.2016 40.186L51.7744 40.4458C54.4819 44.8998 53.2872 50.6217 48.9904 53.7033L48.9904 53.7033C47.147 55.0255 44.9649 55.6875 42.7811 55.6875H42.2343C40.1968 55.6875 38.1607 55.1112 36.3999 53.9601C36.9444 53.154 37.2655 52.1774 37.2655 51.125C37.2655 48.381 35.0921 46.125 32.3905 46.125H31.8181C31.7958 45.7104 31.801 45.2931 31.832 44.875H37.3124C37.8986 44.875 38.4304 44.5483 38.7084 44.0356L38.7088 44.0349L39.765 42.0788L41.834 47.7542L41.8341 47.7545C42.0533 48.3545 42.6015 48.7746 43.2408 48.8105C43.8858 48.8514 44.4781 48.4806 44.7559 47.9098L44.7561 47.9095L46.5044 44.3125H46.6093C48.194 44.3125 49.6646 43.4397 50.4783 42.0152Z" fill="#FDF8E5" stroke="#3A643C"/>
<path d="M32.5754 49.3855C33.4089 49.4809 34.0781 50.2134 34.0781 51.125C34.0781 51.3404 34.0387 51.5462 33.9671 51.7369C33.39 51.0102 32.9246 50.2185 32.5754 49.3855Z" fill="#FDF8E5"/>
<path d="M32.5754 49.3855C33.4089 49.4809 34.0781 50.2134 34.0781 51.125C34.0781 51.3404 34.0387 51.5462 33.9671 51.7369C33.39 51.0102 32.9246 50.2185 32.5754 49.3855Z" stroke="#FDF8E5"/>
<path d="M32.5754 49.3855C33.4089 49.4809 34.0781 50.2134 34.0781 51.125C34.0781 51.3404 34.0387 51.5462 33.9671 51.7369C33.39 51.0102 32.9246 50.2185 32.5754 49.3855Z" stroke="#3A643C"/>
</svg>
