<svg width="84" height="84" viewBox="0 0 84 84" fill="none" xmlns="http://www.w3.org/2000/svg">
<rect width="84" height="84" rx="42" fill="white"/>
<path d="M42 74C59.6731 74 74 59.6731 74 42C74 24.3269 59.6731 10 42 10C24.3269 10 10 24.3269 10 42C10 59.6731 24.3269 74 42 74Z" fill="#E0E8E2"/>
<rect x="26" y="49" width="26" height="11" fill="#FDF8E5"/>
<circle cx="39.5" cy="30.5" r="6.5" fill="#FDF8E5"/>
<ellipse cx="39.5" cy="49.5" rx="12.5" ry="9.5" fill="#FDF8E5"/>
<mask id="path-6-inside-1_1_6734" fill="white">
<path fill-rule="evenodd" clip-rule="evenodd" d="M46.014 50.5942V59.2529C46.014 59.604 46.2938 59.8889 46.65 59.8889C46.9934 59.8889 47.286 59.604 47.286 59.2529V50.5942C47.286 50.2431 46.9934 49.9582 46.65 49.9582C46.2938 49.9582 46.014 50.2431 46.014 50.5942ZM30.9786 50.5942V59.2529C30.9786 59.604 31.2712 59.8889 31.6147 59.8889C31.9708 59.8889 32.2507 59.604 32.2507 59.2529V50.5942C32.2507 50.2431 31.9708 49.9582 31.6147 49.9582C31.2712 49.9582 30.9786 50.2431 30.9786 50.5942ZM53.2646 59.2529V52.7414C53.2646 44.9349 46.9425 38.6078 39.1322 38.6078C31.322 38.6078 25 44.9349 25 52.7414V59.2529C25 59.604 25.2798 59.8889 25.636 59.8889C25.9795 59.8889 26.272 59.604 26.272 59.2529V52.7414C26.272 45.6383 32.0216 39.8799 39.1322 39.8799C46.2429 39.8799 51.9926 45.6383 51.9926 52.7414V59.2529C51.9926 59.604 52.2852 59.8889 52.6286 59.8889C52.9848 59.8889 53.2646 59.604 53.2646 59.2529ZM39.1322 53.9994C39.6283 53.9994 40.0355 54.4039 40.0355 54.9025C40.0355 55.4012 39.6283 55.8057 39.1322 55.8057C38.6362 55.8057 38.2292 55.4012 38.2292 54.9025C38.2292 54.4039 38.6362 53.9994 39.1322 53.9994ZM39.7683 52.0239V44.8815C39.7683 44.5304 39.4884 44.2455 39.1322 44.2455C38.7761 44.2455 38.4962 44.5304 38.4962 44.8815V52.0239C38.4962 52.375 38.7761 52.6599 39.1322 52.6599C39.4884 52.6599 39.7683 52.375 39.7683 52.0239ZM53.0865 31.4043L52.7431 31.0621C52.4887 30.8141 52.0942 30.8141 51.8398 31.0621C51.5981 31.3102 51.5981 31.7134 51.8398 31.9615L53.0865 33.203V34.9431L51.5727 34.073L51.1276 32.3774C51.0385 32.0378 50.6824 31.8368 50.3389 31.9271C50.0082 32.0174 49.8047 32.3672 49.8937 32.7056L50.0209 33.1737L49.3976 32.8137C49.0923 32.6382 48.7107 32.7425 48.5326 33.0465C48.3545 33.3505 48.4563 33.7398 48.7616 33.9153L49.3849 34.2778L48.9142 34.4025C48.5835 34.4941 48.38 34.8426 48.4691 35.1822C48.5581 35.5206 48.9143 35.7229 49.245 35.6313L50.9495 35.1771L52.4505 36.0447L50.9367 36.9147L49.245 36.4606C48.9015 36.369 48.5581 36.5713 48.4691 36.9097C48.38 37.2493 48.5835 37.5978 48.9142 37.6894L49.3849 37.8141L48.7616 38.1741C48.4563 38.3496 48.3545 38.7388 48.5326 39.0429C48.7107 39.3469 49.0923 39.4512 49.3976 39.2756L50.0209 38.9131L49.8937 39.3812C49.8047 39.7196 50.0082 40.0694 50.3516 40.1597C50.6824 40.25 51.0385 40.049 51.1276 39.7094L51.5855 38.0138L53.0865 37.1463V38.8864L51.8398 40.1279C51.5981 40.3759 51.5981 40.7792 51.8398 41.0272C52.0942 41.2765 52.4887 41.2765 52.7431 41.0272L53.0865 40.685V41.4037C53.0865 41.7548 53.3664 42.0398 53.7226 42.0398C54.066 42.0398 54.3586 41.7548 54.3586 41.4037V40.68L54.7019 41.0221C54.9436 41.2702 55.3507 41.2702 55.5924 41.0221C55.8468 40.7741 55.8468 40.3709 55.5924 40.1228L54.3586 38.8813V37.1463L55.8595 38.0138L56.3174 39.7094C56.4064 40.049 56.7499 40.25 57.0933 40.1597C57.4368 40.0694 57.6277 39.7196 57.5387 39.3812L57.4241 38.9131L58.0473 39.2756C58.3526 39.4512 58.7343 39.3469 58.9124 39.0429C59.0905 38.7388 58.9886 38.3496 58.6834 38.1741L58.0601 37.8141L58.5307 37.6894C58.8614 37.5978 59.0651 37.2493 58.9761 36.9097C58.887 36.5713 58.5307 36.369 58.2 36.4606L56.4955 36.9147L54.9946 36.0447L56.4955 35.1771L58.1874 35.6313C58.5308 35.7229 58.8743 35.5206 58.9761 35.1822C59.0651 34.8426 58.8614 34.4941 58.518 34.4025L58.0601 34.2778L58.6834 33.9153C58.9886 33.7398 59.0905 33.3505 58.9124 33.0465C58.7343 32.7425 58.3526 32.6382 58.0473 32.8137L57.4241 33.1737L57.5514 32.7056C57.6404 32.3672 57.4368 32.0174 57.0933 31.9271C56.7626 31.8368 56.4064 32.0378 56.3174 32.3774L55.8595 34.073L54.3586 34.9431V33.208L55.5924 31.9665C55.8468 31.7185 55.8468 31.3153 55.5924 31.0672C55.3507 30.8192 54.9436 30.8192 54.7019 31.0672L54.3586 31.4094V30.6856C54.3586 30.3345 54.066 30.0496 53.7226 30.0496C53.3664 30.0496 53.0865 30.3345 53.0865 30.6856V31.4043ZM39.1322 23C35.0745 23 31.7673 26.2971 31.7673 30.3587C31.7673 34.4203 35.0745 37.7174 39.1322 37.7174C43.19 37.7174 46.4846 34.4203 46.4846 30.3587C46.4846 26.2971 43.19 23 39.1322 23ZM39.1322 24.272C42.4904 24.272 45.2126 26.9993 45.2126 30.3587C45.2126 33.7181 42.4904 36.4454 39.1322 36.4454C35.7741 36.4454 33.0393 33.7181 33.0393 30.3587C33.0393 26.9993 35.7741 24.272 39.1322 24.272Z"/>
</mask>
<path fill-rule="evenodd" clip-rule="evenodd" d="M46.014 50.5942V59.2529C46.014 59.604 46.2938 59.8889 46.65 59.8889C46.9934 59.8889 47.286 59.604 47.286 59.2529V50.5942C47.286 50.2431 46.9934 49.9582 46.65 49.9582C46.2938 49.9582 46.014 50.2431 46.014 50.5942ZM30.9786 50.5942V59.2529C30.9786 59.604 31.2712 59.8889 31.6147 59.8889C31.9708 59.8889 32.2507 59.604 32.2507 59.2529V50.5942C32.2507 50.2431 31.9708 49.9582 31.6147 49.9582C31.2712 49.9582 30.9786 50.2431 30.9786 50.5942ZM53.2646 59.2529V52.7414C53.2646 44.9349 46.9425 38.6078 39.1322 38.6078C31.322 38.6078 25 44.9349 25 52.7414V59.2529C25 59.604 25.2798 59.8889 25.636 59.8889C25.9795 59.8889 26.272 59.604 26.272 59.2529V52.7414C26.272 45.6383 32.0216 39.8799 39.1322 39.8799C46.2429 39.8799 51.9926 45.6383 51.9926 52.7414V59.2529C51.9926 59.604 52.2852 59.8889 52.6286 59.8889C52.9848 59.8889 53.2646 59.604 53.2646 59.2529ZM39.1322 53.9994C39.6283 53.9994 40.0355 54.4039 40.0355 54.9025C40.0355 55.4012 39.6283 55.8057 39.1322 55.8057C38.6362 55.8057 38.2292 55.4012 38.2292 54.9025C38.2292 54.4039 38.6362 53.9994 39.1322 53.9994ZM39.7683 52.0239V44.8815C39.7683 44.5304 39.4884 44.2455 39.1322 44.2455C38.7761 44.2455 38.4962 44.5304 38.4962 44.8815V52.0239C38.4962 52.375 38.7761 52.6599 39.1322 52.6599C39.4884 52.6599 39.7683 52.375 39.7683 52.0239ZM53.0865 31.4043L52.7431 31.0621C52.4887 30.8141 52.0942 30.8141 51.8398 31.0621C51.5981 31.3102 51.5981 31.7134 51.8398 31.9615L53.0865 33.203V34.9431L51.5727 34.073L51.1276 32.3774C51.0385 32.0378 50.6824 31.8368 50.3389 31.9271C50.0082 32.0174 49.8047 32.3672 49.8937 32.7056L50.0209 33.1737L49.3976 32.8137C49.0923 32.6382 48.7107 32.7425 48.5326 33.0465C48.3545 33.3505 48.4563 33.7398 48.7616 33.9153L49.3849 34.2778L48.9142 34.4025C48.5835 34.4941 48.38 34.8426 48.4691 35.1822C48.5581 35.5206 48.9143 35.7229 49.245 35.6313L50.9495 35.1771L52.4505 36.0447L50.9367 36.9147L49.245 36.4606C48.9015 36.369 48.5581 36.5713 48.4691 36.9097C48.38 37.2493 48.5835 37.5978 48.9142 37.6894L49.3849 37.8141L48.7616 38.1741C48.4563 38.3496 48.3545 38.7388 48.5326 39.0429C48.7107 39.3469 49.0923 39.4512 49.3976 39.2756L50.0209 38.9131L49.8937 39.3812C49.8047 39.7196 50.0082 40.0694 50.3516 40.1597C50.6824 40.25 51.0385 40.049 51.1276 39.7094L51.5855 38.0138L53.0865 37.1463V38.8864L51.8398 40.1279C51.5981 40.3759 51.5981 40.7792 51.8398 41.0272C52.0942 41.2765 52.4887 41.2765 52.7431 41.0272L53.0865 40.685V41.4037C53.0865 41.7548 53.3664 42.0398 53.7226 42.0398C54.066 42.0398 54.3586 41.7548 54.3586 41.4037V40.68L54.7019 41.0221C54.9436 41.2702 55.3507 41.2702 55.5924 41.0221C55.8468 40.7741 55.8468 40.3709 55.5924 40.1228L54.3586 38.8813V37.1463L55.8595 38.0138L56.3174 39.7094C56.4064 40.049 56.7499 40.25 57.0933 40.1597C57.4368 40.0694 57.6277 39.7196 57.5387 39.3812L57.4241 38.9131L58.0473 39.2756C58.3526 39.4512 58.7343 39.3469 58.9124 39.0429C59.0905 38.7388 58.9886 38.3496 58.6834 38.1741L58.0601 37.8141L58.5307 37.6894C58.8614 37.5978 59.0651 37.2493 58.9761 36.9097C58.887 36.5713 58.5307 36.369 58.2 36.4606L56.4955 36.9147L54.9946 36.0447L56.4955 35.1771L58.1874 35.6313C58.5308 35.7229 58.8743 35.5206 58.9761 35.1822C59.0651 34.8426 58.8614 34.4941 58.518 34.4025L58.0601 34.2778L58.6834 33.9153C58.9886 33.7398 59.0905 33.3505 58.9124 33.0465C58.7343 32.7425 58.3526 32.6382 58.0473 32.8137L57.4241 33.1737L57.5514 32.7056C57.6404 32.3672 57.4368 32.0174 57.0933 31.9271C56.7626 31.8368 56.4064 32.0378 56.3174 32.3774L55.8595 34.073L54.3586 34.9431V33.208L55.5924 31.9665C55.8468 31.7185 55.8468 31.3153 55.5924 31.0672C55.3507 30.8192 54.9436 30.8192 54.7019 31.0672L54.3586 31.4094V30.6856C54.3586 30.3345 54.066 30.0496 53.7226 30.0496C53.3664 30.0496 53.0865 30.3345 53.0865 30.6856V31.4043ZM39.1322 23C35.0745 23 31.7673 26.2971 31.7673 30.3587C31.7673 34.4203 35.0745 37.7174 39.1322 37.7174C43.19 37.7174 46.4846 34.4203 46.4846 30.3587C46.4846 26.2971 43.19 23 39.1322 23ZM39.1322 24.272C42.4904 24.272 45.2126 26.9993 45.2126 30.3587C45.2126 33.7181 42.4904 36.4454 39.1322 36.4454C35.7741 36.4454 33.0393 33.7181 33.0393 30.3587C33.0393 26.9993 35.7741 24.272 39.1322 24.272Z" fill="#FDF8E5" stroke="#3A643C" stroke-width="2" mask="url(#path-6-inside-1_1_6734)"/>
</svg>
