<svg width="53" height="52" viewBox="0 0 53 52" fill="none" xmlns="http://www.w3.org/2000/svg">
<path d="M41.6667 6.5H11.3333C8.9401 6.5 7 8.4401 7 10.8333V41.1667C7 43.5599 8.9401 45.5 11.3333 45.5H41.6667C44.0599 45.5 46 43.5599 46 41.1667V10.8333C46 8.4401 44.0599 6.5 41.6667 6.5Z" stroke="#0C140C" stroke-width="1.17857" stroke-linecap="round" stroke-linejoin="round"/>
<path d="M20.0013 23.8327C22.3945 23.8327 24.3346 21.8926 24.3346 19.4993C24.3346 17.1061 22.3945 15.166 20.0013 15.166C17.6081 15.166 15.668 17.1061 15.668 19.4993C15.668 21.8926 17.6081 23.8327 20.0013 23.8327Z" stroke="#0C140C" stroke-width="1.17857" stroke-linecap="round" stroke-linejoin="round"/>
<path d="M46 32.5L39.3137 25.8137C38.501 25.0013 37.399 24.5449 36.25 24.5449C35.101 24.5449 33.999 25.0013 33.1863 25.8137L13.5 45.5" stroke="#0C140C" stroke-width="1.17857" stroke-linecap="round" stroke-linejoin="round"/>
</svg>
