<svg width="54" height="54" viewBox="0 0 54 54" fill="none" xmlns="http://www.w3.org/2000/svg">
<g clip-path="url(#clip0_1_7012)">
<circle cx="27" cy="27" r="27" fill="#A6C9E2"/>
<path d="M38.811 11.4419C36.7485 10.8782 34.8785 12.3425 33.9985 14.1232C33.9365 14.2537 33.9173 14.4004 33.9435 14.5425C33.6478 14.9239 33.5055 15.4022 33.5447 15.8832C28.801 16.33 26.216 18.8738 23.4178 22.5175C20.9497 25.735 17.691 23.5625 14.666 24.9375C14.0308 25.1915 13.4907 25.6373 13.121 26.2128C12.7512 26.7884 12.5703 27.4649 12.6035 28.1482C12.6035 28.3305 12.6759 28.5054 12.8048 28.6343C12.9338 28.7632 13.1086 28.8357 13.291 28.8357C13.4733 28.8357 13.6482 28.7632 13.7771 28.6343C13.906 28.5054 13.9785 28.3305 13.9785 28.1482C13.9785 24.9719 19.4372 26.34 21.101 25.9138C22.2011 25.621 23.182 24.9911 23.906 24.1125C24.896 23.0125 25.5422 21.6307 26.5597 20.5513C28.483 18.5478 31.1007 17.3571 33.8747 17.2238C33.941 17.2137 34.0056 17.1952 34.0672 17.1688C34.223 17.3659 34.4086 17.5375 34.6172 17.6775C34.6172 17.6775 34.6172 17.6775 34.6172 17.7257C33.4691 23.3425 28.7047 27.0894 26.0785 31.9913C24.6416 34.6794 23.4935 37.0375 20.7572 38.6532C19.2447 39.54 18.1378 39.9869 17.4778 41.6507C17.1547 42.4688 18.4816 42.8263 18.8047 42.015C19.6228 39.9525 22.9916 39.1963 24.4491 37.4569C25.9066 35.7175 26.7797 33.4007 27.976 31.4C30.6572 26.8969 34.851 23.4388 35.9372 18.1107C36.8949 18.1181 37.8389 17.8823 38.6806 17.4254C39.5223 16.9684 40.2342 16.3053 40.7497 15.4982C41.6435 13.8619 40.5022 11.875 38.811 11.4419Z" fill="#4EA2DD"/>
</g>
<defs>
<clipPath id="clip0_1_7012">
<rect width="54" height="54" fill="white"/>
</clipPath>
</defs>
</svg>
