<svg width="54" height="54" viewBox="0 0 54 54" fill="none" xmlns="http://www.w3.org/2000/svg">
<g clip-path="url(#clip0_1_7019)">
<circle cx="27" cy="27" r="27" fill="#FBCA90"/>
<path d="M41.3336 27.1856C38.3567 26.9862 35.3798 26.9037 32.3961 26.9175C32.3961 26.8831 32.3961 26.8487 32.3961 26.8143C32.4661 26.5159 32.4661 26.2053 32.3961 25.9068L40.9142 23.5075C41.0773 23.4482 41.212 23.3295 41.2912 23.1751C41.3704 23.0208 41.3883 22.8421 41.3413 22.6751C41.2944 22.5081 41.186 22.365 41.0379 22.2746C40.8898 22.1841 40.713 22.153 40.543 22.1875L31.4817 24.7312C31.3992 24.6831 31.3167 24.635 31.2273 24.5937C31.288 24.5463 31.3393 24.488 31.3786 24.4218C33.4486 20.7445 36.1803 17.4814 39.4361 14.7968C40.1236 14.2262 39.1336 13.2568 38.4598 13.8206C35.1258 16.6 32.3295 19.9671 30.2098 23.755C30.1672 23.8292 30.1398 23.9113 30.1292 23.9962C30.1186 24.0812 30.125 24.1675 30.148 24.25C29.8261 24.1857 29.4997 24.1466 29.1717 24.1331L29.5223 14.7143C29.5223 13.8275 28.1473 13.8275 28.1473 14.7143C28.0373 17.5972 27.9296 20.4779 27.8242 23.3562C26.023 20.9843 24.7786 18.2343 25.5211 15.1956C25.7273 14.3362 24.4005 13.9718 24.1942 14.8312C23.3211 18.3993 24.7511 21.5756 26.8823 24.3668L26.4492 24.4906C23.4311 20.9775 20.5092 17.3406 19.4092 12.7343C19.2098 11.875 17.883 12.2393 18.0892 13.1056C19.1961 17.76 22.0905 21.5 25.1361 25.0681C24.9438 25.1805 24.76 25.3069 24.5861 25.4462C21.1692 22.1875 16.8655 19.5956 14.8648 15.1681C14.5005 14.3637 13.3111 15.0581 13.6755 15.8556C15.738 20.4206 20.1517 23.0537 23.6373 26.4293C23.624 26.4605 23.6079 26.4904 23.5892 26.5187C20.7644 25.6352 18.0861 24.3377 15.6417 22.6687C14.913 22.1668 14.2255 23.3562 14.9542 23.8512C17.4304 25.5438 20.1401 26.8663 22.998 27.7768C22.998 27.7768 22.998 27.8181 22.9498 27.8318C19.485 27.7126 16.0162 27.7998 12.5617 28.0931C11.6886 28.1687 11.6817 29.5437 12.5617 29.4681C15.9656 29.1749 19.3842 29.0876 22.7986 29.2068C22.7986 29.3168 22.833 29.4337 22.8536 29.5437L14.7686 32.8368C13.9642 33.16 14.3148 34.4937 15.1398 34.1568L23.1011 30.9187C22.1378 32.4519 20.962 33.8408 19.6086 35.0437C18.4467 36.0612 17.2298 36.9343 16.4942 38.3231C16.0748 39.1068 17.2642 39.8012 17.6767 39.0106C18.5017 37.4568 20.0692 36.5356 21.2998 35.3462C22.3406 34.3054 23.2629 33.1525 24.0498 31.9087C24.319 32.1446 24.6354 32.3204 24.978 32.4243C25.2117 35.2247 25.4271 38 25.6242 40.75C25.693 41.6231 27.068 41.6368 26.9992 40.75C26.7792 38 26.5638 35.2339 26.353 32.4518C26.5111 32.4106 26.683 32.3556 26.8548 32.2937C27.0267 32.2318 27.1436 32.17 27.288 32.0943C28.9288 34.9406 30.6865 37.7181 32.5611 40.4268C33.0561 41.1556 34.2455 40.4681 33.7436 39.7393C31.8828 36.9893 30.1273 34.1958 28.4773 31.3587C28.8967 31.0425 29.2955 30.6712 29.6736 30.3481C30.8561 32.4381 32.0776 34.5006 33.338 36.5356C34.2386 37.9793 34.988 39.6156 36.7136 40.1243C36.8836 40.1588 37.0604 40.1277 37.2085 40.0372C37.3566 39.9468 37.465 39.8037 37.512 39.6367C37.5589 39.4696 37.541 39.291 37.4618 39.1366C37.3826 38.9823 37.2479 38.8636 37.0848 38.8043C35.3592 38.2887 34.1836 35.2981 33.3242 33.8612C32.4648 32.4243 31.5505 30.8637 30.698 29.3443L30.9592 29.0762C33.3614 30.9525 35.888 32.6637 38.5217 34.1981C38.6768 34.2682 38.8524 34.2782 39.0145 34.2263C39.1766 34.1745 39.3137 34.0643 39.3992 33.9171C39.4848 33.77 39.5127 33.5964 39.4776 33.4298C39.4425 33.2633 39.3469 33.1157 39.2092 33.0156C36.7597 31.5831 34.4037 29.9964 32.1555 28.265C35.2217 28.265 38.288 28.3268 41.3473 28.5331C42.2136 28.6225 42.2136 27.2475 41.3336 27.1856Z" fill="#DE9C4E"/>
</g>
<defs>
<clipPath id="clip0_1_7019">
<rect width="54" height="54" fill="white"/>
</clipPath>
</defs>
</svg>
