<svg width="84" height="84" viewBox="0 0 84 84" fill="none" xmlns="http://www.w3.org/2000/svg">
<rect width="84" height="84" rx="42" fill="white"/>
<path d="M42 74C59.6731 74 74 59.6731 74 42C74 24.3269 59.6731 10 42 10C24.3269 10 10 24.3269 10 42C10 59.6731 24.3269 74 42 74Z" fill="#E0E8E2"/>
<rect x="33" y="27" width="7" height="17" rx="3.5" fill="#FDF8E5"/>
<rect x="38" y="23" width="7" height="17" rx="3.5" fill="#FDF8E5"/>
<path d="M38.818 24.9937L38.4441 24.8256L38.206 25.1593C37.5045 26.1422 36.9022 27.1933 36.4082 28.2859L36.1698 28.8132L36.7261 28.9726L39.533 29.7766L39.9476 29.8954L40.1259 29.5028C40.5386 28.5942 41.0402 27.7212 41.6173 26.9058L41.9682 26.41L41.4142 26.1609L38.818 24.9937ZM36.063 30.4053L35.619 30.3221L35.4913 30.7553C35.0261 32.3336 34.7453 34.0292 34.6565 35.7923L34.6309 36.3008L35.1397 36.3172L38.1206 36.4136L38.6119 36.4295L38.6361 35.9385C38.7121 34.4007 38.9579 32.9322 39.3579 31.5836L39.5155 31.052L38.9706 30.95L36.063 30.4053ZM54.7971 22.5L55.775 40.6874C54.0803 39.9453 52.1434 39.5269 50.0877 39.5269H47.1755C44.1077 39.5269 41.2737 40.3882 39.0465 41.8377C38.8262 40.5619 38.6888 39.3301 38.6362 38.1701L38.614 37.6788L38.1225 37.6929L35.1416 37.7781L34.6337 37.7926L34.6564 38.3003C34.7263 39.8624 34.9359 41.5249 35.2695 43.2352L35.3589 43.6932L35.822 43.6356L37.0169 43.4871C35.2881 45.2442 34.2392 47.4726 34.2392 49.9129V49.9894C33.3899 49.7611 32.5915 49.4682 31.8505 49.1136L31.8502 49.1134C29.8004 48.1346 28.2686 46.6986 27.3916 44.9767C26.0289 42.2925 26.2123 38.9304 28.0533 35.2131L28.0534 35.2131C30.0578 31.1651 33.8485 26.9595 39.3791 22.7307L39.3791 22.7307L39.3817 22.7287L39.6769 22.5H54.7971ZM52.2887 53.8926L52.2874 53.893L51.8662 54.0115L51.5973 54.0872L51.5208 54.3558L49.6187 61.0294H38.2887V48.7309C38.2887 44.8702 42.0802 41.5829 46.9328 41.5829H49.845C54.1526 41.5829 57.5 44.4996 57.5 47.9046C57.5 50.5725 55.4624 53.0083 52.2887 53.8926Z" fill="#FDF8E5" stroke="#3A643C"/>
</svg>
