<svg width="84" height="84" viewBox="0 0 84 84" fill="none" xmlns="http://www.w3.org/2000/svg">
<rect width="84" height="84" rx="42" fill="white"/>
<path d="M42 74C59.6731 74 74 59.6731 74 42C74 24.3269 59.6731 10 42 10C24.3269 10 10 24.3269 10 42C10 59.6731 24.3269 74 42 74Z" fill="#E0E8E2"/>
<path d="M27.9197 34.4943L27.9251 34.4802L27.9296 34.4658C28.0334 34.1356 28.271 33.9326 28.5137 33.8824C28.5319 33.8804 28.5501 33.8793 28.5681 33.8788C28.9023 33.9046 29.2321 34.1005 29.4517 34.4487L29.4569 34.4569L29.4623 34.4648C29.598 34.6627 29.7845 35.1548 29.8832 35.7181C29.9309 35.9904 29.9537 36.2564 29.9446 36.4866C29.9356 36.7142 29.8967 36.8703 29.8505 36.9618C29.8185 37.0096 29.7823 37.0331 29.7547 37.0432C29.7265 37.0535 29.6978 37.0538 29.6667 37.0414L29.6242 37.0245L29.5793 37.0155C28.9444 36.8884 28.3495 36.5325 27.888 35.9877C27.7623 35.7893 27.7198 35.5413 27.739 35.2635C27.7587 34.9765 27.8422 34.6973 27.9197 34.4943Z" fill="#FDF8E5" stroke="#3A643C"/>
<path d="M37.8277 40.975C38.2521 42.0318 38.3057 43.2266 37.9778 44.3234L37.973 44.3392L37.9672 44.3548C37.8154 44.7622 37.6256 45.1535 37.4019 45.5187L37.3971 45.5265L37.3971 45.5265C37.1821 45.8635 37.0147 46.2365 36.9007 46.6337C36.8125 47.0302 36.8454 47.464 36.9608 47.9445C37.0782 48.4333 37.2712 48.934 37.4766 49.4639L37.4875 49.4919C37.6584 49.9127 37.8083 50.3434 37.9388 50.7807L37.9416 50.7901L37.9415 50.7901C38.2549 51.9208 38.487 53.0784 38.6365 54.25L37.8277 40.975ZM37.8277 40.975C37.4744 40.0845 37.0315 39.2413 36.5056 38.4619L36.4316 38.3417L36.4264 38.3332L36.4208 38.3249C35.621 37.1351 34.9724 35.8215 34.4923 34.4248C34.2777 33.7535 34.1636 33.0474 34.1531 32.3355C34.6977 32.8426 35.1532 33.628 35.552 34.8734L35.5522 34.8739C35.6736 35.2517 35.781 35.6393 35.8896 36.037C36.0796 36.772 36.3097 37.495 36.5816 38.1995L36.5815 38.1995L36.5853 38.2088C36.9599 39.1241 37.6807 40.4508 38.9424 41.0796C39.1901 41.2137 39.4488 41.3216 39.7149 41.4013L39.6489 41.4759L40.3968 41.5414C40.4215 41.5442 40.4462 41.5467 40.471 41.5491C40.4948 41.6391 40.5179 41.7819 40.5303 41.9917C40.5426 42.5648 40.4865 43.1363 40.3645 43.6916L40.3605 43.7099L40.3578 43.7284C40.3375 43.8708 40.2904 44.0024 40.2231 44.1134C40.172 44.164 40.1178 44.195 40.0665 44.2107L40.0409 44.2185L40.0163 44.229C39.9476 44.2583 39.8772 44.29 39.8045 44.3257C39.4024 44.5188 39.0644 44.8291 38.8213 45.2145L38.8207 45.2154C38.5505 45.6457 38.458 46.1729 38.551 46.673L39.4682 55.3757L39.4682 55.3757L39.4689 55.3821C39.515 55.7712 39.701 56.1339 40.0018 56.3837L40.0188 56.3979L40.0371 56.4105C40.6138 56.8089 41.3075 56.9635 41.986 56.8354C42.1312 56.8536 42.2759 56.8624 42.4204 56.8629C42.9569 56.8915 43.4805 56.7255 43.9161 56.4022L43.9271 56.394L43.9377 56.3853C44.2394 56.1346 44.4246 55.7697 44.4705 55.3802L44.4705 55.3802L44.4712 55.3739L45.3798 46.7056C45.4803 46.1959 45.3896 45.6579 45.1177 45.2182L45.1177 45.2182L45.1154 45.2144C44.9317 44.9232 44.6935 44.6745 44.4139 44.4875V44.4669L44.1382 44.3286C44.0816 44.3002 44.0171 44.2717 43.9695 44.2507C43.9544 44.244 43.9409 44.2381 43.93 44.2331L43.9008 44.22L43.8701 44.2106C43.8174 44.1945 43.7622 44.1628 43.7115 44.1126C43.645 44.0038 43.5984 43.8736 43.5792 43.7329L43.5765 43.713L43.5722 43.6934C43.4495 43.1335 43.3934 42.5588 43.4065 41.9829L43.4071 41.9574C43.4199 41.767 43.4417 41.6352 43.4642 41.5503C43.997 41.4993 44.5157 41.3401 44.9946 41.0793C46.2572 40.4506 46.9793 39.1261 47.353 38.2078L47.3531 38.2078L47.3564 38.1993C47.6285 37.4943 47.8605 36.7699 48.0495 36.0327L48.0539 36.0156C48.1621 35.6244 48.2678 35.2435 48.3861 34.8714C48.7866 33.6251 49.2425 32.8384 49.7857 32.333C49.7761 33.0452 49.662 33.7525 49.447 34.4249C48.9671 35.8227 48.3172 37.1348 47.517 38.3267L47.5121 38.3339L47.5075 38.3413L47.43 38.466C46.907 39.2436 46.4639 40.0853 46.1103 40.9748C45.6858 42.0302 45.6323 43.2252 45.9602 44.3218L45.9648 44.3373L45.9704 44.3526C46.1224 44.762 46.3122 45.1532 46.5355 45.5195L46.5354 45.5195L46.5406 45.5277C46.7543 45.8633 46.9218 46.2363 47.0358 46.6336C47.124 47.0308 47.0908 47.465 46.9752 47.9458C46.8579 48.4335 46.6657 48.9327 46.4615 49.4614C46.2854 49.892 46.1314 50.3328 45.9977 50.7807L45.9976 50.7807L45.995 50.7901C45.6816 51.9209 45.4495 53.0785 45.3 54.2503L45.2997 54.2528C45.2686 54.5072 45.2497 54.7737 45.2317 55.0299L45.2316 55.0313C45.2039 55.4417 45.1775 55.8154 45.1061 56.1529C45.0364 56.4824 44.9312 56.7367 44.7738 56.9249C44.5651 57.1454 44.3102 57.283 44.0459 57.3313L44.0427 57.3319C43.3627 57.4606 42.6727 57.5146 41.982 57.4966L41.969 57.4963L41.9559 57.4966C41.2652 57.5146 40.5738 57.4606 39.8938 57.3319L39.8906 57.3313C39.6265 57.2831 39.3716 57.1456 39.163 56.9252C39.0068 56.7377 38.9019 56.4836 38.8319 56.154C38.7603 55.8163 38.7333 55.4423 38.7049 55.032L38.7049 55.0317C38.7037 55.0149 38.7025 54.9981 38.7014 54.9811C38.6847 54.7414 38.6673 54.4902 38.6365 54.2503L37.8277 40.975Z" fill="#FDF8E5" stroke="#3A643C"/>
<path d="M36.3534 28.8641C36.0003 28.9788 35.632 29.0098 35.2702 28.9578C35.9268 28.1598 36.7499 27.5678 37.66 27.2361C38.7794 26.8335 39.9392 26.5979 41.1101 26.5359L41.1175 26.5355L41.1249 26.5349C41.6876 26.4884 42.253 26.4884 42.8158 26.5349L42.8232 26.5355L42.8306 26.5359C44.0013 26.5979 45.1611 26.8335 46.2807 27.2361C47.191 27.568 48.0143 28.1601 48.671 28.9584C48.3083 29.0105 47.9388 28.9788 47.5841 28.8631C47.2895 28.7534 46.9932 28.6091 46.6806 28.457L46.6797 28.4566C46.1289 28.1624 45.5474 27.9377 44.9482 27.7896L44.9328 27.7858L44.9172 27.783C44.1049 27.6362 43.2816 27.5847 42.4578 27.6322C42.1345 27.6441 41.8058 27.6441 41.4825 27.6322C40.6607 27.5848 39.8357 27.6345 39.0222 27.7832L39.007 27.7859L38.9921 27.7896C38.3935 27.9376 37.8132 28.1606 37.2604 28.4567L37.2593 28.4572C36.9459 28.6097 36.6488 28.7544 36.3534 28.8641Z" fill="#FDF8E5" stroke="#3A643C"/>
<path d="M54.4774 34.4646L54.4829 34.4566L54.488 34.4485C54.7077 34.1002 55.0375 33.9043 55.3718 33.8786C55.3905 33.879 55.4086 33.8801 55.4267 33.8821C55.6706 33.9337 55.9066 34.1361 56.0102 34.4656L56.0148 34.4803L56.0203 34.4947C56.0983 34.6981 56.1817 34.9771 56.2013 35.2637C56.2203 35.5409 56.1776 35.7887 56.0517 35.9874C55.5903 36.5322 54.9954 36.8881 54.3604 37.0152L54.3144 37.0244L54.271 37.042C54.2411 37.0541 54.213 37.054 54.1849 37.0437C54.1572 37.0335 54.1212 37.0099 54.0897 36.9625C54.0432 36.8705 54.0042 36.7138 53.9951 36.4857C53.986 36.2554 54.0088 35.9895 54.0565 35.7173C54.1552 35.1543 54.3417 34.6625 54.4774 34.4646Z" fill="#FDF8E5" stroke="#3A643C"/>
<path d="M55.8003 29.043L55.8095 29.0531L55.8193 29.0627C57.3798 30.5997 58.9385 32.8796 58.2863 35.4401L58.2817 35.4582L58.2784 35.4766C58.2261 35.7729 58.0779 36.0205 57.8829 36.1773C57.7564 36.2329 57.6189 36.232 57.4922 36.1752L57.448 36.2739L57.4682 36.1647C57.4656 36.1637 57.4631 36.1627 57.4605 36.1617C57.6549 35.5007 57.5802 34.7455 57.2934 33.9891C57.0656 33.2933 56.5396 32.7433 55.8654 32.5426C56.3747 32.3838 57.0006 31.9296 57.016 31.1501L57.0164 31.1304L57.0153 31.1108C56.9828 30.5602 56.6869 30.0413 56.1962 29.7795C55.6084 29.4292 54.9435 29.2536 54.2676 29.2812L54.2644 29.2814C53.1756 29.3328 52.1029 29.5868 51.09 30.0305C50.3221 30.2884 49.6004 30.6888 48.9548 31.2116L47.8575 32.1002H48.1741C47.7438 32.7212 47.3936 33.4898 47.0926 34.4277L47.0924 34.4282C46.9655 34.8251 46.8539 35.2283 46.7457 35.6192L46.7366 35.6522L46.7365 35.6522L46.7342 35.6612C46.5598 36.3403 46.348 37.0081 46.0989 37.657L46.0985 37.6569C45.7682 38.4655 45.2159 39.4056 44.3972 39.8112L44.388 39.8158L44.3789 39.8208C44.0096 40.0232 43.6094 40.1367 43.2054 40.1551L43.1937 40.1556L43.182 40.1567C42.7749 40.1945 42.4841 40.443 42.3094 40.7741C42.1466 41.0825 42.0714 41.4793 42.0467 41.9182L42.0463 41.9258L42.0461 41.9334C42.0285 42.6206 42.0939 43.3073 42.2381 43.9744C42.2938 44.3341 42.4275 44.6755 42.6301 44.9713L42.6427 44.9897L42.6569 45.0069C42.86 45.2531 43.1214 45.4387 43.4193 45.542C43.4646 45.5614 43.5063 45.5801 43.5461 45.5999L43.5461 45.5999L43.5553 45.6043C43.7142 45.679 43.8595 45.8052 43.971 45.9783C44.05 46.1082 44.0796 46.2787 44.0433 46.442L44.0313 46.4956V46.5259L43.115 55.2155C43.1149 55.2158 43.1149 55.2162 43.1149 55.2165C43.1116 55.2444 43.1018 55.2632 43.094 55.2738C42.7876 55.4571 42.4417 55.51 42.1117 55.4307L42.0791 55.4229L42.0459 55.4195C41.9952 55.4143 41.9456 55.4147 41.8992 55.4191L41.8636 55.4224L41.8289 55.4308C41.5007 55.5099 41.1542 55.4573 40.8479 55.2745C40.8395 55.2631 40.8295 55.2438 40.8257 55.2153L39.8997 46.4697L39.8972 46.4459L39.8924 46.4224C39.8601 46.264 39.8909 46.102 39.9671 45.9804C40.0787 45.8063 40.2246 45.6794 40.3841 45.6043L40.3759 45.5675L40.3919 45.5999C40.4303 45.5808 40.4719 45.5626 40.5203 45.542C40.8157 45.439 41.0787 45.2541 41.2825 45.0069L41.2967 44.9897L41.3093 44.9713C41.5126 44.6745 41.6443 44.333 41.6998 43.9749C41.8455 43.3074 41.9109 42.6204 41.8933 41.9335L41.8931 41.9259L41.8927 41.9182C41.868 41.4793 41.7928 41.0826 41.63 40.7741C41.4553 40.4431 41.1645 40.1946 40.7574 40.1568L40.7457 40.1557L40.734 40.1552C40.3301 40.1367 39.9296 40.0233 39.5585 39.8205L39.5251 39.8817L39.5416 39.811C38.7251 39.4077 38.1735 38.4711 37.8429 37.6635C37.6695 37.2109 37.5141 36.751 37.3769 36.284H37.3795L37.2042 35.6506L37.2029 35.646C37.0921 35.2458 36.9784 34.8348 36.8485 34.4272L36.8482 34.4262C36.3864 32.987 35.8087 31.9467 35.0034 31.2261L35.0034 31.226L34.9964 31.2199C34.6557 30.9262 34.284 30.6795 33.8887 30.4835C33.8744 30.4759 33.8615 30.4698 33.8505 30.4651C33.5182 30.2996 33.1817 30.1597 32.8612 30.0342C31.8444 29.5871 30.7676 29.333 29.675 29.2814L29.675 29.2814L29.6718 29.2813C28.996 29.2537 28.3295 29.4291 27.7415 29.7798C27.253 30.0412 26.9567 30.5579 26.9241 31.1092L27.3285 31.1331L26.9233 31.1371V31.1387L27.0925 31.1437L26.9234 31.147C26.9388 31.9235 27.5602 32.3815 28.0749 32.5407C27.5116 32.7073 27.0528 33.1184 26.7839 33.6521H26.7719L26.715 33.8012C26.6938 33.8516 26.6742 33.9029 26.6564 33.955L26.6492 33.9739C26.359 34.7346 26.283 35.4951 26.4783 36.1583C26.4774 36.1587 26.4764 36.159 26.4755 36.1594L26.4597 36.1654L26.4443 36.1724C26.3202 36.2295 26.1843 36.2314 26.0565 36.1756C25.8617 36.0182 25.7139 35.7725 25.6607 35.4766L25.6575 35.459L25.6531 35.4417C25.0009 32.8797 26.5594 30.603 28.1217 29.0625L28.132 29.0524L28.1417 29.0416C28.6224 28.5095 29.2517 28.2151 29.8981 28.1959L29.9048 28.1962C30.6901 28.2322 31.4578 28.638 32.348 29.1716L32.3492 29.1723L32.3645 29.1814C32.8975 29.499 33.5779 29.9044 34.3182 30.1551C35.0729 30.4108 35.9351 30.522 36.8104 30.1958L36.8106 30.1957C37.1782 30.0585 37.5319 29.8876 37.8529 29.7307L37.8627 29.7259L37.8722 29.7207C38.3229 29.4757 38.7969 29.2909 39.2827 29.1689C39.99 29.0425 40.705 28.9989 41.4178 29.0418L41.4178 29.042L41.432 29.0424C41.7886 29.0538 42.1508 29.0538 42.5088 29.0424L42.5088 29.0426L42.522 29.0418C43.2348 29.0003 43.9516 29.0427 44.6567 29.1689C45.1436 29.2908 45.6162 29.4755 46.0672 29.7207L46.4167 29.9108L46.4304 29.8953C46.6527 30.0007 46.8876 30.1055 47.1296 30.1944C48.0041 30.522 48.8662 30.4111 49.6207 30.1553C50.3627 29.9038 51.0446 29.4966 51.5782 29.1779L51.5907 29.1704L51.5914 29.17C52.4769 28.6392 53.2383 28.2345 54.0188 28.1954C54.6719 28.2099 55.3109 28.5051 55.8003 29.043Z" fill="#FDF8E5" stroke="#3A643C"/>
</svg>
