<svg width="84" height="84" viewBox="0 0 84 84" fill="none" xmlns="http://www.w3.org/2000/svg">
<rect width="84" height="84" rx="42" fill="white"/>
<path d="M42 74C59.6731 74 74 59.6731 74 42C74 24.3269 59.6731 10 42 10C24.3269 10 10 24.3269 10 42C10 59.6731 24.3269 74 42 74Z" fill="#E0E8E2"/>
<ellipse cx="41.5" cy="35.5" rx="6.5" ry="8.5" fill="#FDF8E5"/>
<ellipse cx="40.7881" cy="29.1985" rx="5.6918" ry="6.98991" transform="rotate(63.7182 40.7881 29.1985)" fill="#FDF8E5"/>
<ellipse cx="44.9462" cy="27.7721" rx="2.7074" ry="5.29506" transform="rotate(63.7182 44.9462 27.7721)" fill="#FDF8E5"/>
<ellipse cx="44.9462" cy="28.7721" rx="2.7074" ry="5.29506" transform="rotate(63.7182 44.9462 28.7721)" fill="#FDF8E5"/>
<ellipse cx="44.9462" cy="29.7721" rx="2.7074" ry="5.29506" transform="rotate(63.7182 44.9462 29.7721)" fill="#FDF8E5"/>
<ellipse cx="48.586" cy="26.1283" rx="0.990852" ry="5.04609" transform="rotate(6.85087 48.586 26.1283)" fill="#FDF8E5"/>
<ellipse cx="48.586" cy="29.1283" rx="0.990852" ry="5.04609" transform="rotate(6.85087 48.586 29.1283)" fill="#FDF8E5"/>
<ellipse cx="55.2979" cy="34.5232" rx="2.24321" ry="8.50902" transform="rotate(0.367824 55.2979 34.5232)" fill="#FDF8E5"/>
<ellipse cx="55.296" cy="33.8345" rx="2.24321" ry="8.19779" transform="rotate(0.367824 55.296 33.8345)" fill="#FDF8E5"/>
<ellipse cx="54.8865" cy="33.8866" rx="1.65171" ry="8.14942" transform="rotate(0.367824 54.8865 33.8866)" fill="#FDF8E5"/>
<ellipse cx="54.7007" cy="33.0875" rx="1.65171" ry="7.57125" transform="rotate(0.367824 54.7007 33.0875)" fill="#FDF8E5"/>
<ellipse cx="56.4165" cy="33.7994" rx="1.36802" ry="7.50799" transform="rotate(0.367824 56.4165 33.7994)" fill="#FDF8E5"/>
<ellipse cx="56.4165" cy="35.5166" rx="1.36802" ry="7.50799" transform="rotate(0.367824 56.4165 35.5166)" fill="#FDF8E5"/>
<ellipse cx="54.4165" cy="35.5166" rx="1.36802" ry="7.50799" transform="rotate(0.367824 54.4165 35.5166)" fill="#FDF8E5"/>
<ellipse cx="55.4165" cy="38.5166" rx="1.36802" ry="7.50799" transform="rotate(0.367824 55.4165 38.5166)" fill="#FDF8E5"/>
<ellipse cx="41.5" cy="47.5" rx="7.5" ry="2.5" fill="#FDF8E5"/>
<ellipse cx="40.5853" cy="43.608" rx="5" ry="2.5" transform="rotate(-28.9525 40.5853 43.608)" fill="#FDF8E5"/>
<ellipse cx="43.1967" cy="43.3937" rx="5" ry="2.5" transform="rotate(48.1977 43.1967 43.3937)" fill="#FDF8E5"/>
<path d="M25 52C25 50.8954 25.8954 50 27 50H56C57.1046 50 58 50.8954 58 52V63H25V52Z" fill="#FDF8E5"/>
<path d="M26 51C26 49.8954 26.8954 49 28 49H55C56.1046 49 57 49.8954 57 51V56H26V51Z" fill="#FDF8E5"/>
<path d="M31 50C31 48.8954 31.8954 48 33 48H52C53.1046 48 54 48.8954 54 50V51H31V50Z" fill="#FDF8E5"/>
<path d="M35.0416 35.3764C34.8731 34.8561 34.7386 34.351 34.632 33.8668L35.0513 33.8232L35.0416 35.3764Z" fill="#FDF8E5" stroke="#3A643C"/>
<mask id="path-25-inside-1_1_6669" fill="white">
<path d="M45.7688 29.6131C45.0442 29.6131 44.2205 29.4363 43.3094 29.0827C42.847 28.9021 42.443 28.7292 42.0874 28.5757C41.8368 28.4669 41.6018 28.3659 41.3842 28.2785C41.1996 28.2046 41.1103 27.9968 41.1841 27.8122C41.2579 27.6277 41.4658 27.5383 41.6503 27.6121C41.8776 27.7034 42.1185 27.8064 42.373 27.9171C42.7227 28.0687 43.1209 28.2396 43.5717 28.4144C45.8698 29.3061 47.3987 28.9681 48.1156 27.412C48.1991 27.2314 48.4109 27.1536 48.5915 27.2352C48.7722 27.3188 48.8499 27.5305 48.7683 27.7112C48.3565 28.6029 47.7173 29.1915 46.8664 29.4577C46.5284 29.5606 46.1632 29.6131 45.7688 29.6131Z"/>
</mask>
<path d="M45.7688 29.6131C45.0442 29.6131 44.2205 29.4363 43.3094 29.0827C42.847 28.9021 42.443 28.7292 42.0874 28.5757C41.8368 28.4669 41.6018 28.3659 41.3842 28.2785C41.1996 28.2046 41.1103 27.9968 41.1841 27.8122C41.2579 27.6277 41.4658 27.5383 41.6503 27.6121C41.8776 27.7034 42.1185 27.8064 42.373 27.9171C42.7227 28.0687 43.1209 28.2396 43.5717 28.4144C45.8698 29.3061 47.3987 28.9681 48.1156 27.412C48.1991 27.2314 48.4109 27.1536 48.5915 27.2352C48.7722 27.3188 48.8499 27.5305 48.7683 27.7112C48.3565 28.6029 47.7173 29.1915 46.8664 29.4577C46.5284 29.5606 46.1632 29.6131 45.7688 29.6131Z" fill="#FDF8E5"/>
<path d="M43.3094 29.0827L42.9454 30.0141L42.9476 30.015L43.3094 29.0827ZM42.0874 28.5757L41.6892 29.493L41.6911 29.4938L42.0874 28.5757ZM41.3842 28.2785L41.757 27.3506L41.7556 27.35L41.3842 28.2785ZM41.6503 27.6121L42.0231 26.6842L42.0217 26.6836L41.6503 27.6121ZM42.373 27.9171L41.974 28.8341L41.9754 28.8347L42.373 27.9171ZM43.5717 28.4144L43.9334 27.4822L43.9333 27.4821L43.5717 28.4144ZM48.1156 27.412L47.2079 26.9923L47.2073 26.9936L48.1156 27.412ZM48.5915 27.2352L49.0112 26.3275L49.0031 26.3239L48.5915 27.2352ZM48.7683 27.7112L49.6762 28.1305L49.6797 28.1228L48.7683 27.7112ZM46.8664 29.4577L47.1578 30.4143L47.165 30.4121L46.8664 29.4577ZM45.7688 28.6131C45.202 28.6131 44.5036 28.4735 43.6712 28.1505L42.9476 30.015C43.9374 30.3991 44.8864 30.6131 45.7688 30.6131V28.6131ZM43.6733 28.1513C43.2281 27.9773 42.8373 27.8102 42.4838 27.6576L41.6911 29.4938C42.0487 29.6481 42.466 29.8268 42.9454 30.0141L43.6733 28.1513ZM42.4857 27.6584C42.2348 27.5495 41.9886 27.4436 41.757 27.3506L41.0114 29.2064C41.2149 29.2882 41.4388 29.3843 41.6892 29.493L42.4857 27.6584ZM41.7556 27.35C42.0826 27.4808 42.2443 27.8542 42.1126 28.1836L40.2556 27.4408C39.9762 28.1394 40.3167 28.9285 41.0128 29.2069L41.7556 27.35ZM42.1126 28.1836C41.9818 28.5106 41.6084 28.6724 41.279 28.5406L42.0217 26.6836C41.3232 26.4042 40.5341 26.7447 40.2556 27.4408L42.1126 28.1836ZM41.2776 28.5401C41.4916 28.626 41.7222 28.7245 41.974 28.8341L42.772 27.0002C42.5149 26.8883 42.2637 26.7808 42.0231 26.6842L41.2776 28.5401ZM41.9754 28.8347C42.3271 28.9871 42.7402 29.1645 43.21 29.3468L43.9333 27.4821C43.5017 27.3147 43.1183 27.1502 42.7706 26.9996L41.9754 28.8347ZM43.2099 29.3467C44.445 29.8259 45.6187 30.0358 46.6522 29.8076C47.7498 29.5654 48.5494 28.8604 49.0238 27.8304L47.2073 26.9936C46.965 27.5197 46.6416 27.7618 46.2211 27.8547C45.7364 27.9616 44.9965 27.8946 43.9334 27.4822L43.2099 29.3467ZM49.0233 27.8317C48.8746 28.1531 48.4955 28.2891 48.1799 28.1466L49.0031 26.3239C48.3263 26.0182 47.5236 26.3096 47.2079 26.9923L49.0233 27.8317ZM48.1719 28.1429C47.8504 27.9943 47.7145 27.6151 47.857 27.2996L49.6797 28.1228C49.9854 27.4459 49.694 26.6433 49.0112 26.3276L48.1719 28.1429ZM47.8605 27.2919C47.5529 27.9578 47.1186 28.331 46.5679 28.5033L47.165 30.4121C48.316 30.052 49.16 29.248 49.6762 28.1305L47.8605 27.2919ZM46.5751 28.5011C46.3399 28.5727 46.0737 28.6131 45.7688 28.6131V30.6131C46.2527 30.6131 46.7169 30.5486 47.1578 30.4143L46.5751 28.5011Z" fill="#3A643C" mask="url(#path-25-inside-1_1_6669)"/>
<mask id="path-27-inside-2_1_6669" fill="white">
<path d="M57.88 53.0768C57.6819 53.0768 57.5206 52.9156 57.5206 52.7174C57.5206 51.476 56.7319 50.3706 55.5566 49.9685L49.7266 47.9714C49.1321 47.7675 48.5746 47.4586 48.0675 47.0526C47.5819 46.664 47.1525 46.1958 46.7951 45.6616C46.1423 44.6883 45.7577 43.5382 45.6955 42.3959C45.6897 42.3707 45.6877 42.3435 45.6877 42.3182V42.0754C45.6877 41.8772 45.849 41.716 46.0471 41.716C46.2453 41.716 46.4065 41.8772 46.4065 42.0754C46.4065 44.393 47.9024 46.5883 49.9616 47.2954L55.7916 49.2925C57.2564 49.7937 58.2414 51.173 58.2414 52.7213C58.2394 52.9156 58.0782 53.0768 57.88 53.0768Z"/>
</mask>
<path d="M57.88 53.0768C57.6819 53.0768 57.5206 52.9156 57.5206 52.7174C57.5206 51.476 56.7319 50.3706 55.5566 49.9685L49.7266 47.9714C49.1321 47.7675 48.5746 47.4586 48.0675 47.0526C47.5819 46.664 47.1525 46.1958 46.7951 45.6616C46.1423 44.6883 45.7577 43.5382 45.6955 42.3959C45.6897 42.3707 45.6877 42.3435 45.6877 42.3182V42.0754C45.6877 41.8772 45.849 41.716 46.0471 41.716C46.2453 41.716 46.4065 41.8772 46.4065 42.0754C46.4065 44.393 47.9024 46.5883 49.9616 47.2954L55.7916 49.2925C57.2564 49.7937 58.2414 51.173 58.2414 52.7213C58.2394 52.9156 58.0782 53.0768 57.88 53.0768Z" fill="#FDF8E5"/>
<path d="M55.5566 49.9685L55.2325 50.9145L55.2328 50.9147L55.5566 49.9685ZM49.7266 47.9714L49.402 48.9173L49.4025 48.9175L49.7266 47.9714ZM48.0675 47.0526L48.6926 46.272L48.6922 46.2717L48.0675 47.0526ZM46.7951 45.6616L47.6262 45.1055L47.6256 45.1046L46.7951 45.6616ZM45.6955 42.3959L46.694 42.3416L46.6893 42.2553L46.6699 42.1711L45.6955 42.3959ZM49.9616 47.2954L49.6369 48.2412L49.6376 48.2414L49.9616 47.2954ZM55.7916 49.2925L55.4676 50.2385L55.4679 50.2386L55.7916 49.2925ZM58.2414 52.7213L59.2414 52.7313V52.7213H58.2414ZM57.88 52.0768C58.2341 52.0768 58.5206 52.3633 58.5206 52.7174H56.5206C56.5206 53.4678 57.1296 54.0768 57.88 54.0768V52.0768ZM58.5206 52.7174C58.5206 51.0491 57.4607 49.5631 55.8803 49.0224L55.2328 50.9147C56.0031 51.1782 56.5206 51.903 56.5206 52.7174H58.5206ZM55.8806 49.0225L50.0506 47.0254L49.4025 48.9175L55.2325 50.9145L55.8806 49.0225ZM50.0511 47.0256C49.5694 46.8603 49.1129 46.6085 48.6926 46.272L47.4425 47.8331C48.0363 48.3086 48.6949 48.6747 49.402 48.9173L50.0511 47.0256ZM48.6922 46.2717C48.2882 45.9484 47.928 45.5565 47.6262 45.1055L45.964 46.2177C46.3771 46.8351 46.8756 47.3796 47.4428 47.8334L48.6922 46.2717ZM47.6256 45.1046C47.0717 44.2788 46.7463 43.302 46.694 42.3416L44.697 42.4503C44.7691 43.7745 45.2129 45.0979 45.9646 46.2186L47.6256 45.1046ZM46.6699 42.1711C46.6789 42.2102 46.6831 42.2425 46.6852 42.2648C46.6873 42.2876 46.6877 42.3058 46.6877 42.3182H44.6877C44.6877 42.3884 44.6925 42.4969 44.7211 42.6208L46.6699 42.1711ZM46.6877 42.3182V42.0754H44.6877V42.3182H46.6877ZM46.6877 42.0754C46.6877 42.4295 46.4013 42.716 46.0471 42.716V40.716C45.2967 40.716 44.6877 41.325 44.6877 42.0754H46.6877ZM46.0471 42.716C45.693 42.716 45.4065 42.4295 45.4065 42.0754H47.4065C47.4065 41.325 46.7976 40.716 46.0471 40.716V42.716ZM45.4065 42.0754C45.4065 44.7835 47.14 47.3838 49.6369 48.2412L50.2864 46.3496C48.6648 45.7927 47.4065 44.0026 47.4065 42.0754H45.4065ZM49.6376 48.2414L55.4676 50.2385L56.1157 48.3464L50.2857 46.3494L49.6376 48.2414ZM55.4679 50.2386C56.5278 50.6013 57.2414 51.6 57.2414 52.7213H59.2414C59.2414 50.7459 57.9851 48.9861 56.1154 48.3463L55.4679 50.2386ZM57.2414 52.7113C57.245 52.3561 57.5309 52.0768 57.88 52.0768V54.0768C58.6254 54.0768 59.2339 53.4751 59.2413 52.7313L57.2414 52.7113Z" fill="#3A643C" mask="url(#path-27-inside-2_1_6669)"/>
<mask id="path-29-inside-3_1_6669" fill="white">
<path d="M25.3594 53.0768C25.1612 53.0768 25 52.9156 25 52.7174C25 51.1691 25.9849 49.7917 27.4497 49.2886L33.2797 47.2915C35.4069 46.563 36.8348 44.564 36.8348 42.3144C36.8348 42.1162 36.9961 41.955 37.1942 41.955C37.3924 41.955 37.5536 42.1162 37.5536 42.3144C37.5536 44.869 35.9295 47.1419 33.5128 47.9695L27.6828 49.9666C26.5075 50.3687 25.7188 51.4741 25.7188 52.7155C25.7188 52.9156 25.5575 53.0768 25.3594 53.0768Z"/>
</mask>
<path d="M25.3594 53.0768C25.1612 53.0768 25 52.9156 25 52.7174C25 51.1691 25.9849 49.7917 27.4497 49.2886L33.2797 47.2915C35.4069 46.563 36.8348 44.564 36.8348 42.3144C36.8348 42.1162 36.9961 41.955 37.1942 41.955C37.3924 41.955 37.5536 42.1162 37.5536 42.3144C37.5536 44.869 35.9295 47.1419 33.5128 47.9695L27.6828 49.9666C26.5075 50.3687 25.7188 51.4741 25.7188 52.7155C25.7188 52.9156 25.5575 53.0768 25.3594 53.0768Z" fill="#FDF8E5"/>
<path d="M27.4497 49.2886L27.1257 48.3425L27.1249 48.3428L27.4497 49.2886ZM33.2797 47.2915L32.9557 46.3454L32.9556 46.3455L33.2797 47.2915ZM33.5128 47.9695L33.1889 47.0234L33.1888 47.0235L33.5128 47.9695ZM27.6828 49.9666L28.0066 50.9127L28.0069 50.9126L27.6828 49.9666ZM25.3594 52.0768C25.7135 52.0768 26 52.3633 26 52.7174H24C24 53.4678 24.609 54.0768 25.3594 54.0768V52.0768ZM26 52.7174C26 51.597 26.7129 50.599 27.7746 50.2343L27.1249 48.3428C25.257 48.9844 24 50.7412 24 52.7174H26ZM27.7738 50.2346L33.6038 48.2375L32.9556 46.3455L27.1257 48.3425L27.7738 50.2346ZM33.6037 48.2376C36.1356 47.3705 37.8348 44.9911 37.8348 42.3144H35.8348C35.8348 44.1368 34.6783 45.7555 32.9557 46.3454L33.6037 48.2376ZM37.8348 42.3144C37.8348 42.6685 37.5483 42.955 37.1942 42.955V40.955C36.4438 40.955 35.8348 41.5639 35.8348 42.3144H37.8348ZM37.1942 42.955C36.8401 42.955 36.5536 42.6685 36.5536 42.3144H38.5536C38.5536 41.5639 37.9446 40.955 37.1942 40.955V42.955ZM36.5536 42.3144C36.5536 44.4416 35.2011 46.3343 33.1889 47.0234L33.8368 48.9156C36.6579 47.9495 38.5536 45.2964 38.5536 42.3144H36.5536ZM33.1888 47.0235L27.3588 49.0205L28.0069 50.9126L33.8369 48.9155L33.1888 47.0235ZM27.3591 49.0204C25.7787 49.5612 24.7188 51.0472 24.7188 52.7155H26.7188C26.7188 51.901 27.2363 51.1763 28.0066 50.9127L27.3591 49.0204ZM24.7188 52.7155C24.7188 52.3668 25.0018 52.0768 25.3594 52.0768V54.0768C26.1133 54.0768 26.7188 53.4643 26.7188 52.7155H24.7188Z" fill="#3A643C" mask="url(#path-29-inside-3_1_6669)"/>
<mask id="path-31-inside-4_1_6669" fill="white">
<path d="M57.8799 63C57.6818 63 57.5205 62.8387 57.5205 62.6406V52.7174C57.5205 52.5192 57.6818 52.358 57.8799 52.358C58.0781 52.358 58.2393 52.5192 58.2393 52.7174V62.6406C58.2393 62.8387 58.0781 63 57.8799 63Z"/>
</mask>
<path d="M57.8799 63C57.6818 63 57.5205 62.8387 57.5205 62.6406V52.7174C57.5205 52.5192 57.6818 52.358 57.8799 52.358C58.0781 52.358 58.2393 52.5192 58.2393 52.7174V62.6406C58.2393 62.8387 58.0781 63 57.8799 63Z" fill="#FDF8E5"/>
<path d="M57.8799 62C58.234 62 58.5205 62.2865 58.5205 62.6406H56.5205C56.5205 63.391 57.1295 64 57.8799 64V62ZM58.5205 62.6406V52.7174H56.5205V62.6406H58.5205ZM58.5205 52.7174C58.5205 53.0715 58.234 53.358 57.8799 53.358V51.358C57.1295 51.358 56.5205 51.9669 56.5205 52.7174H58.5205ZM57.8799 53.358C57.5258 53.358 57.2393 53.0715 57.2393 52.7174H59.2393C59.2393 51.9669 58.6303 51.358 57.8799 51.358V53.358ZM57.2393 52.7174V62.6406H59.2393V52.7174H57.2393ZM57.2393 62.6406C57.2393 62.2865 57.5258 62 57.8799 62V64C58.6303 64 59.2393 63.391 59.2393 62.6406H57.2393Z" fill="#3A643C" mask="url(#path-31-inside-4_1_6669)"/>
<mask id="path-33-inside-5_1_6669" fill="white">
<path d="M25.3594 63C25.1612 63 25 62.8387 25 62.6406V52.7174C25 52.5192 25.1612 52.358 25.3594 52.358C25.5575 52.358 25.7188 52.5192 25.7188 52.7174V62.6406C25.7188 62.8387 25.5575 63 25.3594 63Z"/>
</mask>
<path d="M25.3594 63C25.1612 63 25 62.8387 25 62.6406V52.7174C25 52.5192 25.1612 52.358 25.3594 52.358C25.5575 52.358 25.7188 52.5192 25.7188 52.7174V62.6406C25.7188 62.8387 25.5575 63 25.3594 63Z" fill="#FDF8E5"/>
<path d="M25.3594 62C25.7135 62 26 62.2865 26 62.6406H24C24 63.391 24.609 64 25.3594 64V62ZM26 62.6406V52.7174H24V62.6406H26ZM26 52.7174C26 53.0715 25.7135 53.358 25.3594 53.358V51.358C24.609 51.358 24 51.9669 24 52.7174H26ZM25.3594 53.358C25.0053 53.358 24.7188 53.0715 24.7188 52.7174H26.7188C26.7188 51.9669 26.1098 51.358 25.3594 51.358V53.358ZM24.7188 52.7174V62.6406H26.7188V52.7174H24.7188ZM24.7188 62.6406C24.7188 62.2865 25.0053 62 25.3594 62V64C26.1098 64 26.7188 63.391 26.7188 62.6406H24.7188Z" fill="#3A643C" mask="url(#path-33-inside-5_1_6669)"/>
<mask id="path-35-inside-6_1_6669" fill="white">
<path d="M52.1377 63C51.9396 63 51.7783 62.8387 51.7783 62.6406V59.0505C51.7783 58.8523 51.9396 58.6911 52.1377 58.6911C52.3359 58.6911 52.4971 58.8523 52.4971 59.0505V62.6406C52.4952 62.8387 52.3359 63 52.1377 63Z"/>
</mask>
<path d="M52.1377 63C51.9396 63 51.7783 62.8387 51.7783 62.6406V59.0505C51.7783 58.8523 51.9396 58.6911 52.1377 58.6911C52.3359 58.6911 52.4971 58.8523 52.4971 59.0505V62.6406C52.4952 62.8387 52.3359 63 52.1377 63Z" fill="#FDF8E5"/>
<path d="M52.4971 62.6406L53.4971 62.6504V62.6406H52.4971ZM52.1377 62C52.4918 62 52.7783 62.2864 52.7783 62.6406H50.7783C50.7783 63.391 51.3873 64 52.1377 64V62ZM52.7783 62.6406V59.0505H50.7783V62.6406H52.7783ZM52.7783 59.0505C52.7783 59.4046 52.4918 59.6911 52.1377 59.6911V57.6911C51.3873 57.6911 50.7783 58.3001 50.7783 59.0505H52.7783ZM52.1377 59.6911C51.7836 59.6911 51.4971 59.4046 51.4971 59.0505H53.4971C53.4971 58.3001 52.8882 57.6911 52.1377 57.6911V59.6911ZM51.4971 59.0505V62.6406H53.4971V59.0505H51.4971ZM51.4972 62.6308C51.5005 62.2932 51.7747 62 52.1377 62V64C52.897 64 53.4899 63.3842 53.4971 62.6504L51.4972 62.6308Z" fill="#3A643C" mask="url(#path-35-inside-6_1_6669)"/>
<mask id="path-37-inside-7_1_6669" fill="white">
<path d="M31.3137 63C31.1156 63 30.9543 62.8387 30.9543 62.6406V59.0505C30.9543 58.8523 31.1156 58.6911 31.3137 58.6911C31.5119 58.6911 31.6731 58.8523 31.6731 59.0505V62.6406C31.6731 62.8387 31.5138 63 31.3137 63Z"/>
</mask>
<path d="M31.3137 63C31.1156 63 30.9543 62.8387 30.9543 62.6406V59.0505C30.9543 58.8523 31.1156 58.6911 31.3137 58.6911C31.5119 58.6911 31.6731 58.8523 31.6731 59.0505V62.6406C31.6731 62.8387 31.5138 63 31.3137 63Z" fill="#FDF8E5"/>
<path d="M31.3137 62C31.6679 62 31.9543 62.2864 31.9543 62.6406H29.9543C29.9543 63.391 30.5633 64 31.3137 64V62ZM31.9543 62.6406V59.0505H29.9543V62.6406H31.9543ZM31.9543 59.0505C31.9543 59.4046 31.6679 59.6911 31.3137 59.6911V57.6911C30.5633 57.6911 29.9543 58.3001 29.9543 59.0505H31.9543ZM31.3137 59.6911C30.9596 59.6911 30.6731 59.4046 30.6731 59.0505H32.6731C32.6731 58.3001 32.0642 57.6911 31.3137 57.6911V59.6911ZM30.6731 59.0505V62.6406H32.6731V59.0505H30.6731ZM30.6731 62.6406C30.6731 62.29 30.958 62 31.3137 62V64C32.0696 64 32.6731 63.3875 32.6731 62.6406H30.6731Z" fill="#3A643C" mask="url(#path-37-inside-7_1_6669)"/>
<mask id="path-39-inside-8_1_6669" fill="white">
<path d="M47.8903 36.1852C47.8301 36.1852 47.7679 36.1696 47.7116 36.1366C47.5387 36.0375 47.4804 35.818 47.5795 35.6471C48.442 34.1434 48.8034 32.4028 48.9549 31.2061C49.12 29.8987 49.0773 28.939 49.0773 28.9293C49.0676 28.7311 49.221 28.564 49.4192 28.5543C49.6173 28.5446 49.7844 28.6981 49.7941 28.8962C49.7961 28.937 49.8407 29.9162 49.6698 31.2819C49.5105 32.5465 49.1278 34.394 48.2031 36.0045C48.1351 36.1191 48.0146 36.1852 47.8903 36.1852Z"/>
</mask>
<path d="M47.8903 36.1852C47.8301 36.1852 47.7679 36.1696 47.7116 36.1366C47.5387 36.0375 47.4804 35.818 47.5795 35.6471C48.442 34.1434 48.8034 32.4028 48.9549 31.2061C49.12 29.8987 49.0773 28.939 49.0773 28.9293C49.0676 28.7311 49.221 28.564 49.4192 28.5543C49.6173 28.5446 49.7844 28.6981 49.7941 28.8962C49.7961 28.937 49.8407 29.9162 49.6698 31.2819C49.5105 32.5465 49.1278 34.394 48.2031 36.0045C48.1351 36.1191 48.0146 36.1852 47.8903 36.1852Z" fill="#FDF8E5"/>
<path d="M47.7116 36.1366L48.2173 35.2739L48.2088 35.269L47.7116 36.1366ZM47.5795 35.6471L48.4447 36.1485L48.4469 36.1446L47.5795 35.6471ZM48.9549 31.2061L49.947 31.3317L49.947 31.3314L48.9549 31.2061ZM49.0773 28.9293H50.0773V28.9048L50.0761 28.8803L49.0773 28.9293ZM49.7941 28.8962L50.793 28.8487L50.7929 28.8473L49.7941 28.8962ZM49.6698 31.2819L50.6619 31.4068L50.662 31.4061L49.6698 31.2819ZM48.2031 36.0045L49.0631 36.5147L49.0667 36.5086L49.0703 36.5024L48.2031 36.0045ZM47.8903 35.1852C48.0009 35.1852 48.1143 35.2136 48.2173 35.2739L47.2058 36.9993C47.4215 37.1257 47.6593 37.1852 47.8903 37.1852V35.1852ZM48.2088 35.269C48.5172 35.4457 48.6232 35.8404 48.4447 36.1485L46.7143 35.1456C46.3376 35.7956 46.5602 36.6294 47.2144 37.0043L48.2088 35.269ZM48.4469 36.1446C49.4045 34.4753 49.7883 32.5844 49.947 31.3317L47.9628 31.0805C47.8184 32.2211 47.4796 33.8115 46.712 35.1495L48.4469 36.1446ZM49.947 31.3314C50.1218 29.9472 50.0773 28.9143 50.0773 28.9293H48.0773C48.0773 28.9636 48.1182 29.8502 47.9628 31.0808L49.947 31.3314ZM50.0761 28.8803C50.0938 29.2414 49.8139 29.5362 49.4681 29.5531L49.3702 27.5555C48.6281 27.5919 48.0413 28.2208 48.0785 28.9782L50.0761 28.8803ZM49.4681 29.5531C49.107 29.5708 48.8123 29.291 48.7953 28.9452L50.7929 28.8473C50.7565 28.1052 50.1276 27.5184 49.3702 27.5555L49.4681 29.5531ZM48.7953 28.9438C48.7955 28.9487 48.8391 29.8669 48.6775 31.1576L50.662 31.4061C50.8424 29.9654 50.7966 28.9253 50.793 28.8487L48.7953 28.9438ZM48.6776 31.1569C48.5256 32.3641 48.1656 34.0615 47.3358 35.5066L49.0703 36.5024C50.09 34.7266 50.4954 32.7289 50.6619 31.4068L48.6776 31.1569ZM47.343 35.4943C47.4551 35.3053 47.6616 35.1852 47.8903 35.1852V37.1852C48.3677 37.1852 48.815 36.9329 49.0631 36.5147L47.343 35.4943Z" fill="#3A643C" mask="url(#path-39-inside-8_1_6669)"/>
<mask id="path-41-inside-9_1_6669" fill="white">
<path d="M28.0831 57.7936C27.3895 57.7936 26.8262 57.2302 26.8262 56.5367C26.8262 55.8432 27.3895 55.2798 28.0831 55.2798C28.7766 55.2798 29.34 55.8432 29.34 56.5367C29.34 57.2302 28.7766 57.7936 28.0831 57.7936ZM28.0831 55.9986C27.7859 55.9986 27.545 56.2395 27.545 56.5367C27.545 56.8339 27.7859 57.0748 28.0831 57.0748C28.3803 57.0748 28.6212 56.8339 28.6212 56.5367C28.6212 56.2395 28.3803 55.9986 28.0831 55.9986Z"/>
</mask>
<path d="M28.0831 57.7936C27.3895 57.7936 26.8262 57.2302 26.8262 56.5367C26.8262 55.8432 27.3895 55.2798 28.0831 55.2798C28.7766 55.2798 29.34 55.8432 29.34 56.5367C29.34 57.2302 28.7766 57.7936 28.0831 57.7936ZM28.0831 55.9986C27.7859 55.9986 27.545 56.2395 27.545 56.5367C27.545 56.8339 27.7859 57.0748 28.0831 57.0748C28.3803 57.0748 28.6212 56.8339 28.6212 56.5367C28.6212 56.2395 28.3803 55.9986 28.0831 55.9986Z" fill="#FDF8E5"/>
<path d="M28.0831 56.7936C27.9418 56.7936 27.8262 56.678 27.8262 56.5367H25.8262C25.8262 57.7825 26.8373 58.7936 28.0831 58.7936V56.7936ZM27.8262 56.5367C27.8262 56.3954 27.9418 56.2798 28.0831 56.2798V54.2798C26.8373 54.2798 25.8262 55.2909 25.8262 56.5367H27.8262ZM28.0831 56.2798C28.2243 56.2798 28.34 56.3954 28.34 56.5367H30.34C30.34 55.2909 29.3289 54.2798 28.0831 54.2798V56.2798ZM28.34 56.5367C28.34 56.6779 28.2243 56.7936 28.0831 56.7936V58.7936C29.3289 58.7936 30.34 57.7825 30.34 56.5367H28.34ZM28.0831 54.9986C27.2336 54.9986 26.545 55.6872 26.545 56.5367H28.545C28.545 56.7918 28.3381 56.9986 28.0831 56.9986V54.9986ZM26.545 56.5367C26.545 57.3862 27.2336 58.0748 28.0831 58.0748V56.0748C28.3381 56.0748 28.545 56.2816 28.545 56.5367H26.545ZM28.0831 58.0748C28.9326 58.0748 29.6212 57.3862 29.6212 56.5367H27.6212C27.6212 56.2816 27.828 56.0748 28.0831 56.0748V58.0748ZM29.6212 56.5367C29.6212 55.6872 28.9326 54.9986 28.0831 54.9986V56.9986C27.828 56.9986 27.6212 56.7918 27.6212 56.5367H29.6212Z" fill="#3A643C" mask="url(#path-41-inside-9_1_6669)"/>
<mask id="path-43-inside-10_1_6669" fill="white">
<path d="M50.8411 51.8704C50.1689 51.8704 49.623 51.3245 49.623 50.6523C49.623 50.4542 49.7843 50.2929 49.9824 50.2929C50.1806 50.2929 50.3418 50.4542 50.3418 50.6523C50.3418 50.9282 50.5652 51.1516 50.8411 51.1516C51.117 51.1516 51.3404 50.9282 51.3404 50.6523C51.3404 50.4542 51.5016 50.2929 51.6998 50.2929C51.8979 50.2929 52.0592 50.4542 52.0592 50.6523C52.0572 51.3245 51.5113 51.8704 50.8411 51.8704Z"/>
</mask>
<path d="M50.8411 51.8704C50.1689 51.8704 49.623 51.3245 49.623 50.6523C49.623 50.4542 49.7843 50.2929 49.9824 50.2929C50.1806 50.2929 50.3418 50.4542 50.3418 50.6523C50.3418 50.9282 50.5652 51.1516 50.8411 51.1516C51.117 51.1516 51.3404 50.9282 51.3404 50.6523C51.3404 50.4542 51.5016 50.2929 51.6998 50.2929C51.8979 50.2929 52.0592 50.4542 52.0592 50.6523C52.0572 51.3245 51.5113 51.8704 50.8411 51.8704Z" fill="#FDF8E5"/>
<path d="M52.0592 50.6523L53.0592 50.6552V50.6523H52.0592ZM50.8411 50.8704C50.7212 50.8704 50.623 50.7722 50.623 50.6523H48.623C48.623 51.8768 49.6166 52.8704 50.8411 52.8704V50.8704ZM50.623 50.6523C50.623 51.0064 50.3366 51.2929 49.9824 51.2929V49.2929C49.232 49.2929 48.623 49.9019 48.623 50.6523H50.623ZM49.9824 51.2929C49.6283 51.2929 49.3418 51.0064 49.3418 50.6523H51.3418C51.3418 49.9019 50.7329 49.2929 49.9824 49.2929V51.2929ZM49.3418 50.6523C49.3418 51.4804 50.0129 52.1516 50.8411 52.1516V50.1516C51.1175 50.1516 51.3418 50.3759 51.3418 50.6523H49.3418ZM50.8411 52.1516C51.6693 52.1516 52.3404 51.4804 52.3404 50.6523H50.3404C50.3404 50.3759 50.5647 50.1516 50.8411 50.1516V52.1516ZM52.3404 50.6523C52.3404 51.0064 52.0539 51.2929 51.6998 51.2929V49.2929C50.9493 49.2929 50.3404 49.9019 50.3404 50.6523H52.3404ZM51.6998 51.2929C51.3456 51.2929 51.0592 51.0064 51.0592 50.6523H53.0592C53.0592 49.9019 52.4502 49.2929 51.6998 49.2929V51.2929ZM51.0592 50.6494C51.0588 50.7732 50.9575 50.8704 50.8411 50.8704V52.8704C52.0652 52.8704 53.0556 51.8758 53.0592 50.6552L51.0592 50.6494Z" fill="#3A643C" mask="url(#path-43-inside-10_1_6669)"/>
<mask id="path-45-inside-11_1_6669" fill="white">
<path d="M39.5645 49.4984C38.871 49.4984 38.3076 48.9351 38.3076 48.2415C38.3076 47.548 38.871 46.9846 39.5645 46.9846C40.2581 46.9846 40.8214 47.548 40.8214 48.2415C40.8214 48.9351 40.2561 49.4984 39.5645 49.4984ZM39.5645 47.7034C39.2673 47.7034 39.0264 47.9443 39.0264 48.2415C39.0264 48.5388 39.2673 48.7797 39.5645 48.7797C39.8618 48.7797 40.1027 48.5388 40.1027 48.2415C40.1027 47.9443 39.8618 47.7034 39.5645 47.7034Z"/>
</mask>
<path d="M39.5645 49.4984C38.871 49.4984 38.3076 48.9351 38.3076 48.2415C38.3076 47.548 38.871 46.9846 39.5645 46.9846C40.2581 46.9846 40.8214 47.548 40.8214 48.2415C40.8214 48.9351 40.2561 49.4984 39.5645 49.4984ZM39.5645 47.7034C39.2673 47.7034 39.0264 47.9443 39.0264 48.2415C39.0264 48.5388 39.2673 48.7797 39.5645 48.7797C39.8618 48.7797 40.1027 48.5388 40.1027 48.2415C40.1027 47.9443 39.8618 47.7034 39.5645 47.7034Z" fill="#FDF8E5"/>
<path d="M39.5645 48.4984C39.4233 48.4984 39.3076 48.3828 39.3076 48.2415H37.3076C37.3076 49.4874 38.3187 50.4984 39.5645 50.4984V48.4984ZM39.3076 48.2415C39.3076 48.1003 39.4233 47.9846 39.5645 47.9846V45.9846C38.3187 45.9846 37.3076 46.9957 37.3076 48.2415H39.3076ZM39.5645 47.9846C39.7058 47.9846 39.8214 48.1003 39.8214 48.2415H41.8214C41.8214 46.9957 40.8104 45.9846 39.5645 45.9846V47.9846ZM39.8214 48.2415C39.8214 48.3818 39.7048 48.4984 39.5645 48.4984V50.4984C40.8074 50.4984 41.8214 49.4884 41.8214 48.2415H39.8214ZM39.5645 46.7034C38.715 46.7034 38.0264 47.392 38.0264 48.2415H40.0264C40.0264 48.4966 39.8196 48.7034 39.5645 48.7034V46.7034ZM38.0264 48.2415C38.0264 49.091 38.715 49.7797 39.5645 49.7797V47.7797C39.8196 47.7797 40.0264 47.9865 40.0264 48.2415H38.0264ZM39.5645 49.7797C40.414 49.7797 41.1027 49.091 41.1027 48.2415H39.1027C39.1027 47.9865 39.3095 47.7797 39.5645 47.7797V49.7797ZM41.1027 48.2415C41.1027 47.392 40.414 46.7034 39.5645 46.7034V48.7034C39.3095 48.7034 39.1027 48.4966 39.1027 48.2415H41.1027Z" fill="#3A643C" mask="url(#path-45-inside-11_1_6669)"/>
<mask id="path-47-inside-12_1_6669" fill="white">
<path d="M55.2768 54.7436C54.5949 54.7436 54.0393 54.188 54.0393 53.5061C54.0393 52.8242 54.5949 52.2686 55.2768 52.2686C55.9587 52.2686 56.5143 52.8242 56.5143 53.5061C56.5143 54.188 55.9606 54.7436 55.2768 54.7436ZM55.2768 52.9874C54.9912 52.9874 54.7581 53.2205 54.7581 53.5061C54.7581 53.7917 54.9912 54.0248 55.2768 54.0248C55.5624 54.0248 55.7955 53.7917 55.7955 53.5061C55.7955 53.2205 55.5643 52.9874 55.2768 52.9874Z"/>
</mask>
<path d="M55.2768 54.7436C54.5949 54.7436 54.0393 54.188 54.0393 53.5061C54.0393 52.8242 54.5949 52.2686 55.2768 52.2686C55.9587 52.2686 56.5143 52.8242 56.5143 53.5061C56.5143 54.188 55.9606 54.7436 55.2768 54.7436ZM55.2768 52.9874C54.9912 52.9874 54.7581 53.2205 54.7581 53.5061C54.7581 53.7917 54.9912 54.0248 55.2768 54.0248C55.5624 54.0248 55.7955 53.7917 55.7955 53.5061C55.7955 53.2205 55.5643 52.9874 55.2768 52.9874Z" fill="#FDF8E5"/>
<path d="M55.2768 53.7436C55.1472 53.7436 55.0393 53.6357 55.0393 53.5061H53.0393C53.0393 54.7403 54.0426 55.7436 55.2768 55.7436V53.7436ZM55.0393 53.5061C55.0393 53.3765 55.1472 53.2686 55.2768 53.2686V51.2686C54.0426 51.2686 53.0393 52.2719 53.0393 53.5061H55.0393ZM55.2768 53.2686C55.4064 53.2686 55.5143 53.3765 55.5143 53.5061H57.5143C57.5143 52.2719 56.511 51.2686 55.2768 51.2686V53.2686ZM55.5143 53.5061C55.5143 53.6367 55.4073 53.7436 55.2768 53.7436V55.7436C56.5139 55.7436 57.5143 54.7392 57.5143 53.5061H55.5143ZM55.2768 51.9874C54.4389 51.9874 53.7581 52.6682 53.7581 53.5061H55.7581C55.7581 53.7728 55.5435 53.9874 55.2768 53.9874V51.9874ZM53.7581 53.5061C53.7581 54.344 54.4389 55.0248 55.2768 55.0248V53.0248C55.5435 53.0248 55.7581 53.2394 55.7581 53.5061H53.7581ZM55.2768 55.0248C56.1147 55.0248 56.7955 54.344 56.7955 53.5061H54.7955C54.7955 53.2394 55.0101 53.0248 55.2768 53.0248V55.0248ZM56.7955 53.5061C56.7955 52.6707 56.119 51.9874 55.2768 51.9874V53.9874C55.0096 53.9874 54.7955 53.7704 54.7955 53.5061H56.7955Z" fill="#3A643C" mask="url(#path-47-inside-12_1_6669)"/>
<mask id="path-49-inside-13_1_6669" fill="white">
<path d="M29.1302 52.0744C28.9321 52.0744 28.7708 51.9131 28.7708 51.715C28.7708 51.5168 28.6096 51.3556 28.4114 51.3556C28.2133 51.3556 28.052 51.5168 28.052 51.715C28.052 51.9131 27.8908 52.0744 27.6926 52.0744C27.4945 52.0744 27.3333 51.9131 27.3333 51.715C27.3333 51.1205 27.817 50.6387 28.4095 50.6387C29.004 50.6387 29.4857 51.1225 29.4857 51.715C29.4877 51.9131 29.3284 52.0744 29.1302 52.0744Z"/>
</mask>
<path d="M29.1302 52.0744C28.9321 52.0744 28.7708 51.9131 28.7708 51.715C28.7708 51.5168 28.6096 51.3556 28.4114 51.3556C28.2133 51.3556 28.052 51.5168 28.052 51.715C28.052 51.9131 27.8908 52.0744 27.6926 52.0744C27.4945 52.0744 27.3333 51.9131 27.3333 51.715C27.3333 51.1205 27.817 50.6387 28.4095 50.6387C29.004 50.6387 29.4857 51.1225 29.4857 51.715C29.4877 51.9131 29.3284 52.0744 29.1302 52.0744Z" fill="#FDF8E5"/>
<path d="M29.4857 51.715H28.4857L28.4858 51.7248L29.4857 51.715ZM29.1302 51.0744C29.4844 51.0744 29.7708 51.3608 29.7708 51.715H27.7708C27.7708 52.4654 28.3798 53.0744 29.1302 53.0744V51.0744ZM29.7708 51.715C29.7708 50.9645 29.1619 50.3556 28.4114 50.3556V52.3556C28.0573 52.3556 27.7708 52.0691 27.7708 51.715H29.7708ZM28.4114 50.3556C27.661 50.3556 27.052 50.9645 27.052 51.715H29.052C29.052 52.0691 28.7656 52.3556 28.4114 52.3556V50.3556ZM27.052 51.715C27.052 51.3608 27.3385 51.0744 27.6926 51.0744V53.0744C28.4431 53.0744 29.052 52.4654 29.052 51.715H27.052ZM27.6926 51.0744C28.0468 51.0744 28.3333 51.3608 28.3333 51.715H26.3333C26.3333 52.4654 26.9422 53.0744 27.6926 53.0744V51.0744ZM28.3333 51.715C28.3333 51.674 28.3681 51.6387 28.4095 51.6387V49.6387C27.2659 49.6387 26.3333 50.5671 26.3333 51.715H28.3333ZM28.4095 51.6387C28.4505 51.6387 28.4857 51.6736 28.4857 51.715H30.4857C30.4857 50.5714 29.5574 49.6387 28.4095 49.6387V51.6387ZM28.4858 51.7248C28.4823 51.3682 28.7709 51.0744 29.1302 51.0744V53.0744C29.8859 53.0744 30.4931 52.458 30.4857 51.7052L28.4858 51.7248Z" fill="#3A643C" mask="url(#path-49-inside-13_1_6669)"/>
<mask id="path-51-inside-14_1_6669" fill="white">
<path d="M56.7103 58.254C56.5122 58.254 56.3509 58.0928 56.3509 57.8946C56.3509 57.6964 56.1897 57.5352 55.9915 57.5352C55.7934 57.5352 55.6321 57.6964 55.6321 57.8946C55.6321 58.0928 55.4709 58.254 55.2727 58.254C55.0746 58.254 54.9133 58.0928 54.9133 57.8946C54.9133 57.3001 55.3971 56.8184 55.9896 56.8184C56.5821 56.8184 57.0658 57.3021 57.0658 57.8946C57.0678 58.0947 56.9085 58.254 56.7103 58.254Z"/>
</mask>
<path d="M56.7103 58.254C56.5122 58.254 56.3509 58.0928 56.3509 57.8946C56.3509 57.6964 56.1897 57.5352 55.9915 57.5352C55.7934 57.5352 55.6321 57.6964 55.6321 57.8946C55.6321 58.0928 55.4709 58.254 55.2727 58.254C55.0746 58.254 54.9133 58.0928 54.9133 57.8946C54.9133 57.3001 55.3971 56.8184 55.9896 56.8184C56.5821 56.8184 57.0658 57.3021 57.0658 57.8946C57.0678 58.0947 56.9085 58.254 56.7103 58.254Z" fill="#FDF8E5"/>
<path d="M57.0658 57.8946H56.0658L56.0659 57.9043L57.0658 57.8946ZM56.7103 57.254C57.0644 57.254 57.3509 57.5405 57.3509 57.8946H55.3509C55.3509 58.645 55.9599 59.254 56.7103 59.254V57.254ZM57.3509 57.8946C57.3509 57.1442 56.742 56.5352 55.9915 56.5352V58.5352C55.6374 58.5352 55.3509 58.2487 55.3509 57.8946H57.3509ZM55.9915 56.5352C55.2411 56.5352 54.6321 57.1442 54.6321 57.8946H56.6321C56.6321 58.2487 56.3456 58.5352 55.9915 58.5352V56.5352ZM54.6321 57.8946C54.6321 57.5405 54.9186 57.254 55.2727 57.254V59.254C56.0232 59.254 56.6321 58.645 56.6321 57.8946H54.6321ZM55.2727 57.254C55.6269 57.254 55.9133 57.5405 55.9133 57.8946H53.9133C53.9133 58.645 54.5223 59.254 55.2727 59.254V57.254ZM55.9133 57.8946C55.9133 57.8536 55.9482 57.8184 55.9896 57.8184V55.8184C54.8459 55.8184 53.9133 56.7467 53.9133 57.8946H55.9133ZM55.9896 57.8184C56.0083 57.8184 56.0264 57.825 56.0428 57.8414C56.0592 57.8578 56.0658 57.8759 56.0658 57.8946H58.0658C58.0658 56.7498 57.1344 55.8184 55.9896 55.8184V57.8184ZM56.0659 57.9043C56.0624 57.5463 56.3545 57.254 56.7103 57.254V59.254C57.4625 59.254 58.0731 58.6431 58.0658 57.8849L56.0659 57.9043Z" fill="#3A643C" mask="url(#path-51-inside-14_1_6669)"/>
<mask id="path-53-inside-15_1_6669" fill="white">
<path d="M33.5577 53.4866C32.7651 53.4866 32.1221 52.8417 32.1221 52.051C32.1221 51.2603 32.767 50.6154 33.5577 50.6154C33.8705 50.6154 34.1735 50.7203 34.4203 50.9087C34.5562 50.8582 34.702 50.831 34.8496 50.831C35.5218 50.831 36.0696 51.3788 36.0696 52.051C36.0696 52.7232 35.5218 53.271 34.8496 53.271C34.702 53.271 34.5562 53.2438 34.4203 53.1933C34.1735 53.3817 33.8705 53.4866 33.5577 53.4866ZM33.5577 51.3322C33.1614 51.3322 32.8389 51.6547 32.8389 52.051C32.8389 52.4473 33.1614 52.7698 33.5577 52.7698C33.7636 52.7698 33.954 52.6824 34.0939 52.5231C34.2143 52.3871 34.4164 52.3618 34.566 52.4648C34.6495 52.5231 34.7486 52.5542 34.8496 52.5542C35.1274 52.5542 35.3527 52.3288 35.3527 52.051C35.3527 51.7732 35.1274 51.5478 34.8496 51.5478C34.7486 51.5478 34.6495 51.5789 34.566 51.6372C34.4164 51.7402 34.2124 51.7149 34.0939 51.5789C33.954 51.4196 33.7636 51.3322 33.5577 51.3322Z"/>
</mask>
<path d="M33.5577 53.4866C32.7651 53.4866 32.1221 52.8417 32.1221 52.051C32.1221 51.2603 32.767 50.6154 33.5577 50.6154C33.8705 50.6154 34.1735 50.7203 34.4203 50.9087C34.5562 50.8582 34.702 50.831 34.8496 50.831C35.5218 50.831 36.0696 51.3788 36.0696 52.051C36.0696 52.7232 35.5218 53.271 34.8496 53.271C34.702 53.271 34.5562 53.2438 34.4203 53.1933C34.1735 53.3817 33.8705 53.4866 33.5577 53.4866ZM33.5577 51.3322C33.1614 51.3322 32.8389 51.6547 32.8389 52.051C32.8389 52.4473 33.1614 52.7698 33.5577 52.7698C33.7636 52.7698 33.954 52.6824 34.0939 52.5231C34.2143 52.3871 34.4164 52.3618 34.566 52.4648C34.6495 52.5231 34.7486 52.5542 34.8496 52.5542C35.1274 52.5542 35.3527 52.3288 35.3527 52.051C35.3527 51.7732 35.1274 51.5478 34.8496 51.5478C34.7486 51.5478 34.6495 51.5789 34.566 51.6372C34.4164 51.7402 34.2124 51.7149 34.0939 51.5789C33.954 51.4196 33.7636 51.3322 33.5577 51.3322Z" fill="#FDF8E5"/>
<path d="M34.4203 50.9087L33.8133 51.7034L34.2515 52.0381L34.7684 51.8461L34.4203 50.9087ZM34.4203 53.1933L34.7684 52.2559L34.2515 52.0639L33.8133 52.3986L34.4203 53.1933ZM34.0939 52.5231L33.3453 51.86L33.3425 51.8633L34.0939 52.5231ZM34.566 52.4648L35.1382 51.6446L35.1329 51.6411L34.566 52.4648ZM34.566 51.6372L35.133 52.461L35.1381 52.4573L34.566 51.6372ZM34.0939 51.5789L34.8478 50.9219L34.8453 50.9191L34.0939 51.5789ZM33.5577 52.4866C33.3183 52.4866 33.1221 52.2903 33.1221 52.051H31.1221C31.1221 53.3931 32.2119 54.4866 33.5577 54.4866V52.4866ZM33.1221 52.051C33.1221 51.8126 33.3193 51.6154 33.5577 51.6154V49.6154C32.2148 49.6154 31.1221 50.708 31.1221 52.051H33.1221ZM33.5577 51.6154C33.6468 51.6154 33.7374 51.6455 33.8133 51.7034L35.0272 50.114C34.6097 49.7951 34.0942 49.6154 33.5577 49.6154V51.6154ZM34.7684 51.8461C34.7964 51.8358 34.8243 51.831 34.8496 51.831V49.831C34.5796 49.831 34.3161 49.8806 34.0721 49.9713L34.7684 51.8461ZM34.8496 51.831C34.9695 51.831 35.0696 51.9311 35.0696 52.051H37.0696C37.0696 50.8265 36.074 49.831 34.8496 49.831V51.831ZM35.0696 52.051C35.0696 52.1709 34.9695 52.271 34.8496 52.271V54.271C36.074 54.271 37.0696 53.2754 37.0696 52.051H35.0696ZM34.8496 52.271C34.8243 52.271 34.7964 52.2662 34.7684 52.2559L34.0721 54.1307C34.3161 54.2214 34.5796 54.271 34.8496 54.271V52.271ZM33.8133 52.3986C33.7374 52.4565 33.6468 52.4866 33.5577 52.4866V54.4866C34.0942 54.4866 34.6097 54.3069 35.0272 53.988L33.8133 52.3986ZM33.5577 50.3322C32.6091 50.3322 31.8389 51.1024 31.8389 52.051H33.8389C33.8389 52.207 33.7137 52.3322 33.5577 52.3322V50.3322ZM31.8389 52.051C31.8389 52.9996 32.6091 53.7698 33.5577 53.7698V51.7698C33.7137 51.7698 33.8389 51.895 33.8389 52.051H31.8389ZM33.5577 53.7698C34.06 53.7698 34.5214 53.5518 34.8453 53.1829L33.3425 51.8633C33.3618 51.8412 33.3918 51.8165 33.4328 51.7976C33.474 51.7787 33.5175 51.7698 33.5577 51.7698V53.7698ZM34.8425 53.1861C34.63 53.426 34.2681 53.4738 33.999 53.2885L35.1329 51.6411C34.5646 51.2499 33.7987 51.3482 33.3453 51.86L34.8425 53.1861ZM33.9938 53.2849C34.2448 53.46 34.5435 53.5542 34.8496 53.5542V51.5542C34.9537 51.5542 35.0542 51.5861 35.1381 51.6447L33.9938 53.2849ZM34.8496 53.5542C35.6797 53.5542 36.3527 52.8811 36.3527 52.051H34.3527C34.3527 51.7765 34.5751 51.5542 34.8496 51.5542V53.5542ZM36.3527 52.051C36.3527 51.2209 35.6797 50.5478 34.8496 50.5478V52.5478C34.5751 52.5478 34.3527 52.3255 34.3527 52.051H36.3527ZM34.8496 50.5478C34.5435 50.5478 34.2448 50.642 33.9938 50.8171L35.1381 52.4573C35.0542 52.5159 34.9537 52.5478 34.8496 52.5478V50.5478ZM33.999 50.8135C34.2642 50.6309 34.6293 50.6712 34.8478 50.9219L33.34 52.2359C33.7955 52.7586 34.5686 52.8494 35.1329 52.4609L33.999 50.8135ZM34.8453 50.9191C34.5214 50.5502 34.06 50.3322 33.5577 50.3322V52.3322C33.5175 52.3322 33.474 52.3233 33.4327 52.3044C33.3918 52.2855 33.3618 52.2608 33.3425 52.2387L34.8453 50.9191Z" fill="#3A643C" mask="url(#path-53-inside-15_1_6669)"/>
<mask id="path-55-inside-16_1_6669" fill="white">
<path d="M43.2575 59.3167C42.9234 59.3167 42.5873 59.1885 42.3328 58.934C42.1366 58.7378 42.0103 58.4852 41.9695 58.2113C41.8568 58.1569 41.7519 58.0831 41.6626 57.9937C41.2274 57.5586 41.2274 56.8475 41.6626 56.4124C42.0977 55.9772 42.8068 55.9772 43.2439 56.4124C43.3333 56.5017 43.4071 56.6066 43.4615 56.7193C43.7335 56.7621 43.9879 56.8864 44.1842 57.0826C44.4309 57.3293 44.5669 57.6576 44.5669 58.0073C44.5669 58.357 44.4309 58.6853 44.1842 58.932C43.9258 59.1904 43.5916 59.3167 43.2575 59.3167ZM42.4513 56.8048C42.3483 56.8048 42.2473 56.8436 42.1676 56.9214C42.0122 57.0768 42.0122 57.3313 42.1676 57.4867C42.224 57.543 42.2978 57.5819 42.3775 57.5974C42.5562 57.6304 42.6825 57.7917 42.6708 57.9723C42.6592 58.1452 42.7194 58.3065 42.8379 58.4269C43.0671 58.6562 43.4421 58.6562 43.6713 58.4269C43.782 58.3162 43.8442 58.1666 43.8442 58.0093C43.8442 57.8519 43.782 57.7043 43.6713 57.5916C43.5528 57.4731 43.3915 57.4129 43.2167 57.4245C43.036 57.4362 42.8748 57.3099 42.8418 57.1312C42.8262 57.0515 42.7893 56.9777 42.731 56.9214C42.6572 56.8436 42.5542 56.8048 42.4513 56.8048Z"/>
</mask>
<path d="M43.2575 59.3167C42.9234 59.3167 42.5873 59.1885 42.3328 58.934C42.1366 58.7378 42.0103 58.4852 41.9695 58.2113C41.8568 58.1569 41.7519 58.0831 41.6626 57.9937C41.2274 57.5586 41.2274 56.8475 41.6626 56.4124C42.0977 55.9772 42.8068 55.9772 43.2439 56.4124C43.3333 56.5017 43.4071 56.6066 43.4615 56.7193C43.7335 56.7621 43.9879 56.8864 44.1842 57.0826C44.4309 57.3293 44.5669 57.6576 44.5669 58.0073C44.5669 58.357 44.4309 58.6853 44.1842 58.932C43.9258 59.1904 43.5916 59.3167 43.2575 59.3167ZM42.4513 56.8048C42.3483 56.8048 42.2473 56.8436 42.1676 56.9214C42.0122 57.0768 42.0122 57.3313 42.1676 57.4867C42.224 57.543 42.2978 57.5819 42.3775 57.5974C42.5562 57.6304 42.6825 57.7917 42.6708 57.9723C42.6592 58.1452 42.7194 58.3065 42.8379 58.4269C43.0671 58.6562 43.4421 58.6562 43.6713 58.4269C43.782 58.3162 43.8442 58.1666 43.8442 58.0093C43.8442 57.8519 43.782 57.7043 43.6713 57.5916C43.5528 57.4731 43.3915 57.4129 43.2167 57.4245C43.036 57.4362 42.8748 57.3099 42.8418 57.1312C42.8262 57.0515 42.7893 56.9777 42.731 56.9214C42.6572 56.8436 42.5542 56.8048 42.4513 56.8048Z" fill="#FDF8E5"/>
<path d="M41.9695 58.2113L42.9586 58.064L42.8807 57.5407L42.4042 57.3107L41.9695 58.2113ZM43.2439 56.4124L43.951 55.7053L43.9494 55.7037L43.2439 56.4124ZM43.4615 56.7193L42.5609 57.1541L42.7887 57.6259L43.3062 57.7072L43.4615 56.7193ZM42.1676 56.9214L41.4693 56.2055L41.4605 56.2142L42.1676 56.9214ZM42.3775 57.5974L42.1859 58.5789L42.1958 58.5808L42.3775 57.5974ZM42.6708 57.9723L43.6685 58.0396L43.6687 58.0367L42.6708 57.9723ZM42.8379 58.4269L42.125 59.1283L42.1308 59.134L42.8379 58.4269ZM43.6713 57.5916L44.3845 56.8906L44.3784 56.8845L43.6713 57.5916ZM43.2167 57.4245L43.2811 58.4224L43.2832 58.4223L43.2167 57.4245ZM42.8418 57.1312L43.8252 56.9494L43.8232 56.9397L42.8418 57.1312ZM42.731 56.9214L42.006 57.6101L42.0207 57.6255L42.036 57.6403L42.731 56.9214ZM43.2575 58.3167C43.1774 58.3167 43.0991 58.286 43.0399 58.2269L41.6257 59.6411C42.0755 60.0909 42.6693 60.3167 43.2575 60.3167V58.3167ZM43.0399 58.2269C42.9966 58.1836 42.9681 58.1278 42.9586 58.064L40.9804 58.3586C41.0525 58.8426 41.2765 59.2919 41.6257 59.6411L43.0399 58.2269ZM42.4042 57.3107C42.3903 57.304 42.378 57.295 42.3697 57.2866L40.9554 58.7008C41.1258 58.8712 41.3233 59.0098 41.5347 59.1118L42.4042 57.3107ZM42.3697 57.2866C42.325 57.242 42.325 57.1641 42.3697 57.1195L40.9554 55.7053C40.1298 56.5309 40.1298 57.8751 40.9554 58.7008L42.3697 57.2866ZM42.3697 57.1195C42.4134 57.0757 42.4906 57.0734 42.5384 57.121L43.9494 55.7037C43.123 54.881 41.782 54.8787 40.9554 55.7053L42.3697 57.1195ZM42.5368 57.1195C42.5451 57.1278 42.5542 57.1402 42.5609 57.1541L44.362 56.2846C44.2599 56.0731 44.1214 55.8756 43.951 55.7053L42.5368 57.1195ZM43.3062 57.7072C43.3801 57.7188 43.4381 57.7507 43.477 57.7897L44.8913 56.3755C44.5378 56.022 44.0868 55.8053 43.6167 55.7314L43.3062 57.7072ZM43.477 57.7897C43.536 57.8487 43.5669 57.9225 43.5669 58.0073H45.5669C45.5669 57.3927 45.3257 56.81 44.8913 56.3755L43.477 57.7897ZM43.5669 58.0073C43.5669 58.0921 43.536 58.166 43.477 58.2249L44.8913 59.6391C45.3257 59.2047 45.5669 58.6219 45.5669 58.0073H43.5669ZM43.477 58.2249C43.414 58.288 43.3376 58.3167 43.2575 58.3167V60.3167C43.8457 60.3167 44.4376 60.0928 44.8913 59.6391L43.477 58.2249ZM42.4513 55.8048C42.0911 55.8048 41.7384 55.9431 41.4693 56.2056L42.866 57.6371C42.7562 57.7442 42.6056 57.8048 42.4513 57.8048V55.8048ZM41.4605 56.2142C40.9146 56.7602 40.9146 57.6478 41.4605 58.1938L42.8748 56.7796C43.1099 57.0147 43.1099 57.3934 42.8748 57.6285L41.4605 56.2142ZM41.4605 58.1938C41.6613 58.3945 41.9161 58.5262 42.1859 58.5789L42.569 56.6159C42.6795 56.6375 42.7867 56.6915 42.8748 56.7796L41.4605 58.1938ZM42.1958 58.5808C41.8802 58.5224 41.6517 58.2368 41.6729 57.908L43.6687 58.0367C43.7133 57.3465 43.2322 56.7384 42.5592 56.6141L42.1958 58.5808ZM41.6731 57.9051C41.6423 58.3611 41.8047 58.8026 42.125 59.1283L43.5507 57.7256C43.6341 57.8103 43.676 57.9294 43.6685 58.0396L41.6731 57.9051ZM42.1308 59.134C42.7505 59.7538 43.7586 59.7538 44.3784 59.134L42.9642 57.7198C43.1255 57.5585 43.3837 57.5585 43.545 57.7198L42.1308 59.134ZM44.3784 59.134C44.6765 58.8359 44.8442 58.432 44.8442 58.0093H42.8442C42.8442 57.9012 42.8875 57.7965 42.9642 57.7198L44.3784 59.134ZM44.8442 58.0093C44.8442 57.5815 44.6732 57.1844 44.3845 56.8906L42.9581 58.2925C42.8908 58.2241 42.8442 58.1223 42.8442 58.0093H44.8442ZM44.3784 56.8845C44.05 56.5561 43.6042 56.3965 43.1502 56.4267L43.2832 58.4223C43.1789 58.4292 43.0556 58.3901 42.9642 58.2987L44.3784 56.8845ZM43.1523 56.4266C43.4812 56.4054 43.7668 56.6339 43.8251 56.9495L41.8584 57.3129C41.9828 57.9859 42.5909 58.467 43.2811 58.4224L43.1523 56.4266ZM43.8232 56.9397C43.7733 56.6838 43.6487 56.4176 43.426 56.2024L42.036 57.6403C41.9299 57.5377 41.8791 57.4193 41.8603 57.3227L43.8232 56.9397ZM43.456 56.2326C43.1741 55.9359 42.799 55.8048 42.4513 55.8048V57.8048C42.3095 57.8048 42.1403 57.7514 42.006 57.6101L43.456 56.2326Z" fill="#3A643C" mask="url(#path-55-inside-16_1_6669)"/>
<mask id="path-57-inside-17_1_6669" fill="white">
<path d="M38.4552 37.8345C38.257 37.8345 38.0958 37.6733 38.0958 37.4751C38.0958 37.277 37.9345 37.1157 37.7364 37.1157C37.5382 37.1157 37.377 37.277 37.377 37.4751C37.377 37.6733 37.2158 37.8345 37.0176 37.8345C36.8194 37.8345 36.6582 37.6733 36.6582 37.4751C36.6582 36.8807 37.1419 36.3989 37.7344 36.3989C38.3289 36.3989 38.8107 36.8826 38.8107 37.4751C38.8146 37.6752 38.6533 37.8345 38.4552 37.8345Z"/>
</mask>
<path d="M38.4552 37.8345C38.257 37.8345 38.0958 37.6733 38.0958 37.4751C38.0958 37.277 37.9345 37.1157 37.7364 37.1157C37.5382 37.1157 37.377 37.277 37.377 37.4751C37.377 37.6733 37.2158 37.8345 37.0176 37.8345C36.8194 37.8345 36.6582 37.6733 36.6582 37.4751C36.6582 36.8807 37.1419 36.3989 37.7344 36.3989C38.3289 36.3989 38.8107 36.8826 38.8107 37.4751C38.8146 37.6752 38.6533 37.8345 38.4552 37.8345Z" fill="#FDF8E5"/>
<path d="M38.8107 37.4751H37.8107V37.4848L37.8109 37.4945L38.8107 37.4751ZM38.4552 36.8345C38.8093 36.8345 39.0958 37.121 39.0958 37.4751H37.0958C37.0958 38.2256 37.7047 38.8345 38.4552 38.8345V36.8345ZM39.0958 37.4751C39.0958 36.7247 38.4868 36.1157 37.7364 36.1157V38.1157C37.3823 38.1157 37.0958 37.8292 37.0958 37.4751H39.0958ZM37.7364 36.1157C36.986 36.1157 36.377 36.7247 36.377 37.4751H38.377C38.377 37.8292 38.0905 38.1157 37.7364 38.1157V36.1157ZM36.377 37.4751C36.377 37.121 36.6635 36.8345 37.0176 36.8345V38.8345C37.768 38.8345 38.377 38.2256 38.377 37.4751H36.377ZM37.0176 36.8345C37.3717 36.8345 37.6582 37.121 37.6582 37.4751H35.6582C35.6582 38.2256 36.2672 38.8345 37.0176 38.8345V36.8345ZM37.6582 37.4751C37.6582 37.4341 37.693 37.3989 37.7344 37.3989V35.3989C36.5908 35.3989 35.6582 36.3272 35.6582 37.4751H37.6582ZM37.7344 37.3989C37.7754 37.3989 37.8107 37.4337 37.8107 37.4751H39.8107C39.8107 36.3315 38.8824 35.3989 37.7344 35.3989V37.3989ZM37.8109 37.4945C37.8036 37.12 38.1084 36.8345 38.4552 36.8345V38.8345C39.1983 38.8345 39.8255 38.2304 39.8105 37.4557L37.8109 37.4945Z" fill="#3A643C" mask="url(#path-57-inside-17_1_6669)"/>
<mask id="path-59-inside-18_1_6669" fill="white">
<path d="M39.0688 33.5703C38.9775 33.5703 38.8842 33.5353 38.8143 33.4654C38.6744 33.3255 38.6744 33.0982 38.8143 32.9584C38.9542 32.8185 38.9542 32.5912 38.8143 32.4513C38.6744 32.3115 38.4471 32.3115 38.3073 32.4513C38.1674 32.5912 37.9401 32.5912 37.8002 32.4513C37.6603 32.3115 37.6603 32.0842 37.8002 31.9443C38.2198 31.5247 38.9037 31.5247 39.3233 31.9443C39.7429 32.3639 39.7429 33.0477 39.3233 33.4674C39.2514 33.5353 39.1601 33.5703 39.0688 33.5703Z"/>
</mask>
<path d="M39.0688 33.5703C38.9775 33.5703 38.8842 33.5353 38.8143 33.4654C38.6744 33.3255 38.6744 33.0982 38.8143 32.9584C38.9542 32.8185 38.9542 32.5912 38.8143 32.4513C38.6744 32.3115 38.4471 32.3115 38.3073 32.4513C38.1674 32.5912 37.9401 32.5912 37.8002 32.4513C37.6603 32.3115 37.6603 32.0842 37.8002 31.9443C38.2198 31.5247 38.9037 31.5247 39.3233 31.9443C39.7429 32.3639 39.7429 33.0477 39.3233 33.4674C39.2514 33.5353 39.1601 33.5703 39.0688 33.5703Z" fill="#FDF8E5"/>
<path d="M39.3233 33.4674L40.0105 34.1938L40.0206 34.1843L40.0304 34.1745L39.3233 33.4674ZM39.0688 32.5703C39.2277 32.5703 39.3935 32.6304 39.5214 32.7583L38.1072 34.1725C38.375 34.4403 38.7272 34.5703 39.0688 34.5703V32.5703ZM39.5214 32.7583C39.7721 33.009 39.7721 33.4148 39.5214 33.6655L38.1072 32.2513C37.5768 32.7817 37.5768 33.6421 38.1072 34.1725L39.5214 32.7583ZM39.5214 33.6655C40.0518 33.1351 40.0518 32.2746 39.5214 31.7442L38.1072 33.1584C37.8565 32.9078 37.8565 32.5019 38.1072 32.2513L39.5214 33.6655ZM39.5214 31.7442C38.991 31.2138 38.1305 31.2138 37.6002 31.7442L39.0144 33.1584C38.7637 33.4091 38.3578 33.4091 38.1072 33.1584L39.5214 31.7442ZM37.6002 31.7442C37.8508 31.4936 38.2567 31.4936 38.5073 31.7442L37.0931 33.1584C37.6235 33.6888 38.484 33.6888 39.0144 33.1584L37.6002 31.7442ZM38.5073 31.7442C38.758 31.9949 38.758 32.4007 38.5073 32.6514L37.0931 31.2372C36.5627 31.7676 36.5627 32.628 37.0931 33.1584L38.5073 31.7442ZM38.5073 32.6514C38.5212 32.6375 38.539 32.6296 38.5617 32.6296C38.5845 32.6296 38.6023 32.6375 38.6162 32.6514L40.0304 31.2372C39.2202 30.427 37.9033 30.427 37.0931 31.2372L38.5073 32.6514ZM38.6162 32.6514C38.63 32.6653 38.638 32.683 38.638 32.7058C38.638 32.7286 38.63 32.7464 38.6162 32.7602L40.0304 34.1745C40.8405 33.3643 40.8405 32.0473 40.0304 31.2372L38.6162 32.6514ZM38.6361 32.7409C38.7491 32.6339 38.9034 32.5703 39.0688 32.5703V34.5703C39.4167 34.5703 39.7537 34.4368 40.0105 34.1938L38.6361 32.7409Z" fill="#3A643C" mask="url(#path-59-inside-18_1_6669)"/>
<mask id="path-61-inside-19_1_6669" fill="white">
<path d="M45.5498 36.5951C45.3517 36.5951 45.1904 36.4339 45.1904 36.2357C45.1904 36.0375 45.3517 35.8763 45.5498 35.8763C45.748 35.8763 45.9092 35.7151 45.9092 35.5169C45.9092 35.3188 45.748 35.1575 45.5498 35.1575C45.3517 35.1575 45.1904 34.9963 45.1904 34.7981C45.1904 34.6 45.3517 34.4387 45.5498 34.4387C46.1443 34.4387 46.6261 34.9224 46.6261 35.515C46.6261 36.1114 46.1443 36.5951 45.5498 36.5951Z"/>
</mask>
<path d="M45.5498 36.5951C45.3517 36.5951 45.1904 36.4339 45.1904 36.2357C45.1904 36.0375 45.3517 35.8763 45.5498 35.8763C45.748 35.8763 45.9092 35.7151 45.9092 35.5169C45.9092 35.3188 45.748 35.1575 45.5498 35.1575C45.3517 35.1575 45.1904 34.9963 45.1904 34.7981C45.1904 34.6 45.3517 34.4387 45.5498 34.4387C46.1443 34.4387 46.6261 34.9224 46.6261 35.515C46.6261 36.1114 46.1443 36.5951 45.5498 36.5951Z" fill="#FDF8E5"/>
<path d="M46.6261 35.515H47.6261H46.6261ZM45.5498 35.5951C45.904 35.5951 46.1904 35.8816 46.1904 36.2357H44.1904C44.1904 36.9861 44.7994 37.5951 45.5498 37.5951V35.5951ZM46.1904 36.2357C46.1904 36.5898 45.904 36.8763 45.5498 36.8763V34.8763C44.7994 34.8763 44.1904 35.4853 44.1904 36.2357H46.1904ZM45.5498 36.8763C46.3003 36.8763 46.9092 36.2673 46.9092 35.5169H44.9092C44.9092 35.1628 45.1957 34.8763 45.5498 34.8763V36.8763ZM46.9092 35.5169C46.9092 34.7665 46.3003 34.1575 45.5498 34.1575V36.1575C45.1957 36.1575 44.9092 35.871 44.9092 35.5169H46.9092ZM45.5498 34.1575C45.904 34.1575 46.1904 34.444 46.1904 34.7981H44.1904C44.1904 35.5486 44.7994 36.1575 45.5498 36.1575V34.1575ZM46.1904 34.7981C46.1904 35.1522 45.904 35.4387 45.5498 35.4387V33.4387C44.7994 33.4387 44.1904 34.0477 44.1904 34.7981H46.1904ZM45.5498 35.4387C45.5908 35.4387 45.6261 35.4736 45.6261 35.515H47.6261C47.6261 34.3713 46.6977 33.4387 45.5498 33.4387V35.4387ZM45.6261 35.515C45.6261 35.5626 45.5885 35.5951 45.5498 35.5951V37.5951C46.7001 37.5951 47.6261 36.6601 47.6261 35.515H45.6261Z" fill="#3A643C" mask="url(#path-61-inside-19_1_6669)"/>
<mask id="path-63-inside-20_1_6669" fill="white">
<path d="M55.3682 41.4596C55.17 41.4596 55.0088 41.2983 55.0088 41.1002V27.8181C55.0088 27.6199 55.17 27.4587 55.3682 27.4587C55.5663 27.4587 55.7276 27.6199 55.7276 27.8181V41.1002C55.7256 41.3003 55.5663 41.4596 55.3682 41.4596Z"/>
</mask>
<path d="M55.3682 41.4596C55.17 41.4596 55.0088 41.2983 55.0088 41.1002V27.8181C55.0088 27.6199 55.17 27.4587 55.3682 27.4587C55.5663 27.4587 55.7276 27.6199 55.7276 27.8181V41.1002C55.7256 41.3003 55.5663 41.4596 55.3682 41.4596Z" fill="#FDF8E5"/>
<path d="M55.7276 41.1002L56.7276 41.1099V41.1002H55.7276ZM55.3682 40.4596C55.7223 40.4596 56.0088 40.7461 56.0088 41.1002H54.0088C54.0088 41.8506 54.6177 42.4596 55.3682 42.4596V40.4596ZM56.0088 41.1002V27.8181H54.0088V41.1002H56.0088ZM56.0088 27.8181C56.0088 28.1722 55.7223 28.4587 55.3682 28.4587V26.4587C54.6177 26.4587 54.0088 27.0676 54.0088 27.8181H56.0088ZM55.3682 28.4587C55.0141 28.4587 54.7276 28.1722 54.7276 27.8181H56.7276C56.7276 27.0676 56.1186 26.4587 55.3682 26.4587V28.4587ZM54.7276 27.8181V41.1002H56.7276V27.8181H54.7276ZM54.7276 41.0905C54.7309 40.7512 55.0088 40.4596 55.3682 40.4596V42.4596C56.1239 42.4596 56.7204 41.8493 56.7275 41.1099L54.7276 41.0905Z" fill="#3A643C" mask="url(#path-63-inside-20_1_6669)"/>
<path d="M54.1775 26.497L54.0319 26.3323C54.0325 26.3317 54.0332 26.3312 54.0338 26.3306L53.3564 27.8375C53.3564 27.2636 53.6026 26.7163 54.0314 26.3327L54.1775 26.497ZM54.1775 26.497C54.5097 26.2017 54.9254 26.0444 55.3664 26.0444C55.4402 26.0444 55.516 26.0483 55.5917 26.058C56.4873 26.1648 57.1634 26.9672 57.1634 27.9249V40.7427C57.1634 41.5004 56.6816 42.1803 55.9667 42.4328C55.8229 42.4834 55.7277 42.6193 55.7277 42.7709V45.409C55.7277 45.6072 55.5665 45.7684 55.3683 45.7684C55.1702 45.7684 55.0089 45.6072 55.0089 45.409V42.7709C55.0089 42.6193 54.9137 42.4834 54.77 42.4328C54.0551 42.1803 53.5733 41.5004 53.5733 40.7427V27.8394C53.5733 27.3266 53.7928 26.837 54.1775 26.497Z" fill="#FDF8E5" stroke="#3A643C"/>
<mask id="path-66-inside-21_1_6669" fill="white">
<path d="M56.4447 40.3756H54.3291C54.131 40.3756 53.9697 40.2143 53.9697 40.0162C53.9697 39.818 54.131 39.6568 54.3291 39.6568H56.4447C56.6429 39.6568 56.8041 39.818 56.8041 40.0162C56.8041 40.2143 56.6429 40.3756 56.4447 40.3756Z"/>
</mask>
<path d="M56.4447 40.3756H54.3291C54.131 40.3756 53.9697 40.2143 53.9697 40.0162C53.9697 39.818 54.131 39.6568 54.3291 39.6568H56.4447C56.6429 39.6568 56.8041 39.818 56.8041 40.0162C56.8041 40.2143 56.6429 40.3756 56.4447 40.3756Z" fill="#FDF8E5"/>
<path d="M56.4447 39.3756H54.3291V41.3756H56.4447V39.3756ZM54.3291 39.3756C54.6833 39.3756 54.9697 39.6621 54.9697 40.0162H52.9697C52.9697 40.7666 53.5787 41.3756 54.3291 41.3756V39.3756ZM54.9697 40.0162C54.9697 40.3703 54.6833 40.6568 54.3291 40.6568V38.6568C53.5787 38.6568 52.9697 39.2658 52.9697 40.0162H54.9697ZM54.3291 40.6568H56.4447V38.6568H54.3291V40.6568ZM56.4447 40.6568C56.0906 40.6568 55.8041 40.3703 55.8041 40.0162H57.8041C57.8041 39.2658 57.1951 38.6568 56.4447 38.6568V40.6568ZM55.8041 40.0162C55.8041 39.6621 56.0906 39.3756 56.4447 39.3756V41.3756C57.1951 41.3756 57.8041 40.7666 57.8041 40.0162H55.8041Z" fill="#3A643C" mask="url(#path-66-inside-21_1_6669)"/>
<mask id="path-68-inside-22_1_6669" fill="white">
<path d="M56.4446 38.5805H55.4072C55.2091 38.5805 55.0479 38.4193 55.0479 38.2212C55.0479 38.023 55.2091 37.8618 55.4072 37.8618H56.4446C56.6428 37.8618 56.804 38.023 56.804 38.2212C56.804 38.4193 56.6428 38.5805 56.4446 38.5805Z"/>
</mask>
<path d="M56.4446 38.5805H55.4072C55.2091 38.5805 55.0479 38.4193 55.0479 38.2212C55.0479 38.023 55.2091 37.8618 55.4072 37.8618H56.4446C56.6428 37.8618 56.804 38.023 56.804 38.2212C56.804 38.4193 56.6428 38.5805 56.4446 38.5805Z" fill="#FDF8E5"/>
<path d="M56.4446 37.5805H55.4072V39.5805H56.4446V37.5805ZM55.4072 37.5805C55.7614 37.5805 56.0479 37.867 56.0479 38.2212H54.0479C54.0479 38.9716 54.6568 39.5805 55.4072 39.5805V37.5805ZM56.0479 38.2212C56.0479 38.5753 55.7614 38.8618 55.4072 38.8618V36.8618C54.6568 36.8618 54.0479 37.4707 54.0479 38.2212H56.0479ZM55.4072 38.8618H56.4446V36.8618H55.4072V38.8618ZM56.4446 38.8618C56.0905 38.8618 55.804 38.5753 55.804 38.2212H57.804C57.804 37.4707 57.1951 36.8618 56.4446 36.8618V38.8618ZM55.804 38.2212C55.804 37.867 56.0905 37.5805 56.4446 37.5805V39.5805C57.1951 39.5805 57.804 38.9716 57.804 38.2212H55.804Z" fill="#3A643C" mask="url(#path-68-inside-22_1_6669)"/>
<mask id="path-70-inside-23_1_6669" fill="white">
<path d="M56.4447 36.7854H54.3291C54.131 36.7854 53.9697 36.6242 53.9697 36.426C53.9697 36.2279 54.131 36.0667 54.3291 36.0667H56.4447C56.6429 36.0667 56.8041 36.2279 56.8041 36.426C56.8041 36.6242 56.6429 36.7854 56.4447 36.7854Z"/>
</mask>
<path d="M56.4447 36.7854H54.3291C54.131 36.7854 53.9697 36.6242 53.9697 36.426C53.9697 36.2279 54.131 36.0667 54.3291 36.0667H56.4447C56.6429 36.0667 56.8041 36.2279 56.8041 36.426C56.8041 36.6242 56.6429 36.7854 56.4447 36.7854Z" fill="#FDF8E5"/>
<path d="M56.4447 35.7854H54.3291V37.7854H56.4447V35.7854ZM54.3291 35.7854C54.6833 35.7854 54.9697 36.0719 54.9697 36.426H52.9697C52.9697 37.1765 53.5787 37.7854 54.3291 37.7854V35.7854ZM54.9697 36.426C54.9697 36.7802 54.6833 37.0667 54.3291 37.0667V35.0667C53.5787 35.0667 52.9697 35.6756 52.9697 36.426H54.9697ZM54.3291 37.0667H56.4447V35.0667H54.3291V37.0667ZM56.4447 37.0667C56.0906 37.0667 55.8041 36.7802 55.8041 36.426H57.8041C57.8041 35.6756 57.1951 35.0667 56.4447 35.0667V37.0667ZM55.8041 36.426C55.8041 36.0719 56.0906 35.7854 56.4447 35.7854V37.7854C57.1951 37.7854 57.8041 37.1765 57.8041 36.426H55.8041Z" fill="#3A643C" mask="url(#path-70-inside-23_1_6669)"/>
<mask id="path-72-inside-24_1_6669" fill="white">
<path d="M56.4446 34.9904H55.4072C55.2091 34.9904 55.0479 34.8292 55.0479 34.631C55.0479 34.4328 55.2091 34.2716 55.4072 34.2716H56.4446C56.6428 34.2716 56.804 34.4328 56.804 34.631C56.804 34.8292 56.6428 34.9904 56.4446 34.9904Z"/>
</mask>
<path d="M56.4446 34.9904H55.4072C55.2091 34.9904 55.0479 34.8292 55.0479 34.631C55.0479 34.4328 55.2091 34.2716 55.4072 34.2716H56.4446C56.6428 34.2716 56.804 34.4328 56.804 34.631C56.804 34.8292 56.6428 34.9904 56.4446 34.9904Z" fill="#FDF8E5"/>
<path d="M56.4446 33.9904H55.4072V35.9904H56.4446V33.9904ZM55.4072 33.9904C55.7614 33.9904 56.0479 34.2769 56.0479 34.631H54.0479C54.0479 35.3814 54.6568 35.9904 55.4072 35.9904V33.9904ZM56.0479 34.631C56.0479 34.9851 55.7614 35.2716 55.4072 35.2716V33.2716C54.6568 33.2716 54.0479 33.8806 54.0479 34.631H56.0479ZM55.4072 35.2716H56.4446V33.2716H55.4072V35.2716ZM56.4446 35.2716C56.0905 35.2716 55.804 34.9851 55.804 34.631H57.804C57.804 33.8806 57.1951 33.2716 56.4446 33.2716V35.2716ZM55.804 34.631C55.804 34.2769 56.0905 33.9904 56.4446 33.9904V35.9904C57.1951 35.9904 57.804 35.3814 57.804 34.631H55.804Z" fill="#3A643C" mask="url(#path-72-inside-24_1_6669)"/>
<mask id="path-74-inside-25_1_6669" fill="white">
<path d="M56.4447 33.1954H54.3291C54.131 33.1954 53.9697 33.0341 53.9697 32.836C53.9697 32.6378 54.131 32.4766 54.3291 32.4766H56.4447C56.6429 32.4766 56.8041 32.6378 56.8041 32.836C56.8041 33.0341 56.6429 33.1954 56.4447 33.1954Z"/>
</mask>
<path d="M56.4447 33.1954H54.3291C54.131 33.1954 53.9697 33.0341 53.9697 32.836C53.9697 32.6378 54.131 32.4766 54.3291 32.4766H56.4447C56.6429 32.4766 56.8041 32.6378 56.8041 32.836C56.8041 33.0341 56.6429 33.1954 56.4447 33.1954Z" fill="#FDF8E5"/>
<path d="M56.4447 32.1954H54.3291V34.1954H56.4447V32.1954ZM54.3291 32.1954C54.6833 32.1954 54.9697 32.4818 54.9697 32.836H52.9697C52.9697 33.5864 53.5787 34.1954 54.3291 34.1954V32.1954ZM54.9697 32.836C54.9697 33.1901 54.6833 33.4766 54.3291 33.4766V31.4766C53.5787 31.4766 52.9697 32.0855 52.9697 32.836H54.9697ZM54.3291 33.4766H56.4447V31.4766H54.3291V33.4766ZM56.4447 33.4766C56.0906 33.4766 55.8041 33.1901 55.8041 32.836H57.8041C57.8041 32.0855 57.1951 31.4766 56.4447 31.4766V33.4766ZM55.8041 32.836C55.8041 32.4818 56.0906 32.1954 56.4447 32.1954V34.1954C57.1951 34.1954 57.8041 33.5864 57.8041 32.836H55.8041Z" fill="#3A643C" mask="url(#path-74-inside-25_1_6669)"/>
<mask id="path-76-inside-26_1_6669" fill="white">
<path d="M56.4446 31.4004H55.4072C55.2091 31.4004 55.0479 31.2391 55.0479 31.041C55.0479 30.8428 55.2091 30.6816 55.4072 30.6816H56.4446C56.6428 30.6816 56.804 30.8428 56.804 31.041C56.804 31.2391 56.6428 31.4004 56.4446 31.4004Z"/>
</mask>
<path d="M56.4446 31.4004H55.4072C55.2091 31.4004 55.0479 31.2391 55.0479 31.041C55.0479 30.8428 55.2091 30.6816 55.4072 30.6816H56.4446C56.6428 30.6816 56.804 30.8428 56.804 31.041C56.804 31.2391 56.6428 31.4004 56.4446 31.4004Z" fill="#FDF8E5"/>
<path d="M56.4446 30.4004H55.4072V32.4004H56.4446V30.4004ZM55.4072 30.4004C55.7614 30.4004 56.0479 30.6868 56.0479 31.041H54.0479C54.0479 31.7914 54.6568 32.4004 55.4072 32.4004V30.4004ZM56.0479 31.041C56.0479 31.3951 55.7614 31.6816 55.4072 31.6816V29.6816C54.6568 29.6816 54.0479 30.2905 54.0479 31.041H56.0479ZM55.4072 31.6816H56.4446V29.6816H55.4072V31.6816ZM56.4446 31.6816C56.0905 31.6816 55.804 31.3951 55.804 31.041H57.804C57.804 30.2905 57.1951 29.6816 56.4446 29.6816V31.6816ZM55.804 31.041C55.804 30.6868 56.0905 30.4004 56.4446 30.4004V32.4004C57.1951 32.4004 57.804 31.7914 57.804 31.041H55.804Z" fill="#3A643C" mask="url(#path-76-inside-26_1_6669)"/>
<mask id="path-78-inside-27_1_6669" fill="white">
<path d="M56.4447 29.6053H54.3291C54.131 29.6053 53.9697 29.4441 53.9697 29.2459C53.9697 29.0478 54.131 28.8865 54.3291 28.8865H56.4447C56.6429 28.8865 56.8041 29.0478 56.8041 29.2459C56.8041 29.4441 56.6429 29.6053 56.4447 29.6053Z"/>
</mask>
<path d="M56.4447 29.6053H54.3291C54.131 29.6053 53.9697 29.4441 53.9697 29.2459C53.9697 29.0478 54.131 28.8865 54.3291 28.8865H56.4447C56.6429 28.8865 56.8041 29.0478 56.8041 29.2459C56.8041 29.4441 56.6429 29.6053 56.4447 29.6053Z" fill="#FDF8E5"/>
<path d="M56.4447 28.6053H54.3291V30.6053H56.4447V28.6053ZM54.3291 28.6053C54.6833 28.6053 54.9697 28.8918 54.9697 29.2459H52.9697C52.9697 29.9964 53.5787 30.6053 54.3291 30.6053V28.6053ZM54.9697 29.2459C54.9697 29.6001 54.6833 29.8865 54.3291 29.8865V27.8865C53.5787 27.8865 52.9697 28.4955 52.9697 29.2459H54.9697ZM54.3291 29.8865H56.4447V27.8865H54.3291V29.8865ZM56.4447 29.8865C56.0906 29.8865 55.8041 29.6001 55.8041 29.2459H57.8041C57.8041 28.4955 57.1951 27.8865 56.4447 27.8865V29.8865ZM55.8041 29.2459C55.8041 28.8918 56.0906 28.6053 56.4447 28.6053V30.6053C57.1951 30.6053 57.8041 29.9964 57.8041 29.2459H55.8041Z" fill="#3A643C" mask="url(#path-78-inside-27_1_6669)"/>
</svg>
