<svg width="54" height="54" viewBox="0 0 54 54" fill="none" xmlns="http://www.w3.org/2000/svg">
<g clip-path="url(#clip0_1_7026)">
<circle cx="27" cy="27" r="27" fill="#EBA8A8"/>
<path d="M40.6403 25.3226C40.6369 25.0162 40.5597 24.7152 40.4151 24.445C40.2705 24.1749 40.0629 23.9436 39.8098 23.7709C39.5568 23.5981 39.2658 23.489 38.9615 23.4527C38.6573 23.4165 38.3488 23.4541 38.0622 23.5626C37.9247 23.1776 37.7666 22.7926 37.5878 22.4144C37.8197 22.1476 37.9645 21.8162 38.0025 21.4647C38.0406 21.1132 37.9703 20.7585 37.801 20.4482C37.6109 20.1405 37.3282 19.9009 36.9935 19.7638C36.6587 19.6267 36.2892 19.5991 35.9378 19.6851C35.6353 19.2726 35.326 18.8669 35.0166 18.4819C34.181 17.3061 32.9678 16.4521 31.5791 16.0619C31.6515 15.7757 31.663 15.4774 31.6129 15.1865C31.5628 14.8955 31.4522 14.6182 31.2883 14.3727C31.1244 14.1271 30.9108 13.9187 30.6612 13.7608C30.4117 13.603 30.1318 13.4992 29.8397 13.4563C29.4679 13.4062 29.0895 13.4541 28.7419 13.5954C28.3944 13.7367 28.0898 13.9664 27.8584 14.2617C27.627 14.557 27.4768 14.9077 27.4228 15.279C27.3688 15.6502 27.4127 16.0292 27.5503 16.3782C26.086 16.7013 24.6353 16.9351 23.1572 16.0826C23.0717 15.9729 22.9498 15.8973 22.8135 15.8694C22.5002 15.7988 22.1784 15.7733 21.8578 15.7938C21.7563 15.5561 21.6068 15.3419 21.4187 15.1647C21.2306 14.9875 21.0079 14.8511 20.7645 14.7639C20.5212 14.6768 20.2625 14.6408 20.0046 14.6584C19.7468 14.6759 19.4953 14.7464 19.266 14.8657C19.0113 15.0311 18.8002 15.2555 18.6506 15.5197C18.501 15.784 18.4173 16.0805 18.4065 16.3839C18.3957 16.6874 18.4582 16.9891 18.5886 17.2633C18.7191 17.5375 18.9137 17.7763 19.156 17.9594C18.5028 19.2588 18.0972 20.8607 17.5678 21.9744C17.5538 21.9935 17.5423 22.0143 17.5335 22.0363C17.045 21.9086 16.5278 21.949 16.0651 22.151C15.6024 22.3531 15.2212 22.705 14.9828 23.1501C14.8023 23.5361 14.7374 23.9661 14.796 24.3882C14.8545 24.8104 15.034 25.2065 15.3128 25.5288C14.6253 26.4432 13.9378 27.3851 13.3947 28.3751C13.3441 28.2158 13.2326 28.083 13.0845 28.0058C12.9363 27.9285 12.7636 27.9129 12.6041 27.9626C12.1638 28.0815 11.7686 28.3281 11.4682 28.6712C11.1679 29.0144 10.9758 29.4388 10.9163 29.891C10.8567 30.3431 10.9323 30.8028 11.1336 31.212C11.3349 31.6213 11.6528 31.9618 12.0472 32.1907C12.0198 32.4903 12.0198 32.7917 12.0472 33.0913C12.2903 34.5837 13.0914 35.928 14.2885 36.8519C14.0951 37.4066 14.0917 38.0098 14.2788 38.5665C14.4659 39.1233 14.8329 39.602 15.322 39.9273C15.8111 40.2526 16.3945 40.4059 16.9803 40.3632C17.5662 40.3205 18.1211 40.0841 18.5578 39.6913C18.6018 39.6577 18.6411 39.6184 18.6747 39.5744C20.0685 40.2546 21.5682 40.6917 23.1091 40.8669C23.1968 41.1674 23.3596 41.4406 23.5821 41.6607C23.8046 41.8808 24.0796 42.0406 24.381 42.1251C24.7744 42.2159 25.1865 42.1789 25.5575 42.0194C25.9284 41.8599 26.2388 41.5862 26.4435 41.2382C26.4958 41.1524 26.5286 41.0562 26.5397 40.9563C28.1903 40.8514 29.8284 40.6006 31.4347 40.2069C31.842 40.5519 32.3585 40.7413 32.8922 40.7413C33.426 40.7413 33.9424 40.5519 34.3497 40.2069C34.6284 39.9406 34.8294 39.6035 34.9311 39.2317C35.0329 38.8599 35.0315 38.4674 34.9272 38.0963C35.7574 37.1021 36.4045 35.9685 36.8385 34.7482C37.8285 34.9201 38.8528 34.6932 39.2722 33.6138C39.7878 32.3007 38.9491 31.2213 37.9797 30.4307C38.0278 29.3101 38.296 28.2582 38.4335 27.1857C38.7052 27.2367 38.985 27.2267 39.2523 27.1562C39.5197 27.0857 39.7681 26.9566 39.9794 26.7782C40.1907 26.5998 40.3596 26.3767 40.4739 26.1249C40.5883 25.8731 40.6451 25.599 40.6403 25.3226ZM12.3428 30.6163C12.2836 30.4965 12.2504 30.3655 12.2453 30.2319C12.2402 30.0983 12.2635 29.9652 12.3134 29.8412C12.3634 29.7172 12.439 29.6052 12.5353 29.5125C12.6316 29.4197 12.7464 29.3484 12.8722 29.3032C12.6681 29.7292 12.4913 30.1678 12.3428 30.6163ZM16.2272 23.7413C16.2861 23.6415 16.3668 23.5563 16.4632 23.492C16.5596 23.4277 16.6693 23.386 16.7841 23.3701C16.5916 23.6794 16.3785 23.9888 16.1585 24.3051C16.1043 24.111 16.129 23.9034 16.2272 23.7276V23.7413ZM15.5397 37.7732C16.131 38.1719 16.7497 38.5294 17.3478 38.8526C17.1576 38.9338 16.9508 38.9688 16.7444 38.9545C16.538 38.9402 16.3379 38.8771 16.1607 38.7703C15.9835 38.6636 15.8341 38.5163 15.725 38.3405C15.6158 38.1648 15.55 37.9656 15.5328 37.7594L15.5397 37.7732ZM17.4716 34.4801C17.1895 34.4619 16.9151 34.3809 16.6683 34.2431C16.4216 34.1053 16.2087 33.9141 16.0453 33.6835C15.8819 33.4529 15.7721 33.1887 15.7238 32.9102C15.6756 32.6317 15.6902 32.3459 15.7666 32.0738C16.0416 31.2282 17.3685 31.5926 17.0935 32.4382C17.0683 32.508 17.0582 32.5824 17.064 32.6564C17.0698 32.7304 17.0913 32.8024 17.1271 32.8674C17.1629 32.9325 17.2121 32.9891 17.2715 33.0337C17.3309 33.0782 17.3991 33.1096 17.4716 33.1257C17.6539 33.1257 17.8288 33.1981 17.9577 33.327C18.0867 33.456 18.1591 33.6308 18.1591 33.8132C18.1502 33.9907 18.0729 34.1579 17.9435 34.2796C17.814 34.4014 17.6424 34.4683 17.4647 34.4663L17.4716 34.4801ZM29.606 14.7969C29.7314 14.8123 29.8512 14.8584 29.9546 14.9311C30.0581 15.0037 30.142 15.1007 30.1991 15.2135C30.2562 15.3263 30.2846 15.4514 30.2819 15.5778C30.2792 15.7042 30.2454 15.828 30.1835 15.9382C29.74 15.9565 29.2987 16.0094 28.8635 16.0963C28.8511 16.0134 28.828 15.9326 28.7947 15.8557C28.7491 15.7308 28.7358 15.5964 28.7559 15.4649C28.776 15.3335 28.829 15.2093 28.9098 15.1037C28.9907 14.9982 29.0969 14.9147 29.2186 14.8611C29.3403 14.8075 29.4735 14.7854 29.606 14.7969ZM26.031 19.4376C26.3148 19.2308 26.6492 19.1044 26.9989 19.0717C27.3486 19.0391 27.7006 19.1013 28.0178 19.2519C28.3283 19.4115 28.5913 19.6499 28.7807 19.943C28.9702 20.2362 29.0793 20.574 29.0972 20.9226C29.0972 21.1049 29.0248 21.2798 28.8959 21.4087C28.7669 21.5376 28.5921 21.6101 28.4097 21.6101C28.2274 21.6101 28.0525 21.5376 27.9236 21.4087C27.7947 21.2798 27.7222 21.1049 27.7222 20.9226C27.6672 20.3726 27.0691 20.3657 26.7253 20.6269C26.6473 20.6727 26.561 20.7026 26.4713 20.7149C26.3817 20.7272 26.2905 20.7217 26.203 20.6987C26.1155 20.6757 26.0334 20.6357 25.9614 20.5809C25.8894 20.5261 25.829 20.4576 25.7835 20.3794C25.7377 20.3014 25.7078 20.2151 25.6955 20.1254C25.6832 20.0358 25.6887 19.9446 25.7117 19.8571C25.7347 19.7696 25.7747 19.6875 25.8295 19.6155C25.8843 19.5435 25.9528 19.483 26.031 19.4376ZM25.7353 24.0369C26.6222 24.0851 26.6222 25.4601 25.7353 25.4119C24.2282 25.3128 22.7329 25.7351 21.5003 26.6082C20.7716 27.1169 20.0841 25.9207 20.8128 25.4188C22.2507 24.4141 23.9839 23.9203 25.7353 24.0163V24.0369ZM21.081 21.5001C21.3082 21.4017 21.5591 21.3715 21.8031 21.413C22.0472 21.4545 22.274 21.5659 22.456 21.7338C22.584 21.8626 22.6559 22.0369 22.6559 22.2185C22.6559 22.4001 22.584 22.5744 22.456 22.7032C22.3578 22.7963 22.2343 22.8583 22.101 22.8816C21.9677 22.9048 21.8305 22.8882 21.7066 22.8338C21.6976 22.9241 21.6708 23.0117 21.628 23.0917C21.5851 23.1716 21.5268 23.2423 21.4566 23.2998C21.3864 23.3573 21.3055 23.4003 21.2187 23.4265C21.1318 23.4527 21.0406 23.4616 20.9503 23.4526C20.8601 23.4435 20.7724 23.4168 20.6925 23.3739C20.6125 23.331 20.5418 23.2728 20.4843 23.2026C20.4269 23.1323 20.3838 23.0515 20.3576 22.9646C20.3314 22.8778 20.3226 22.7866 20.3316 22.6963C20.3206 22.4445 20.3864 22.1953 20.5203 21.9816C20.6541 21.768 20.8496 21.6001 21.081 21.5001ZM19.9535 16.0413C20.0584 16.0003 20.1742 15.9964 20.2817 16.0301C20.3892 16.0639 20.482 16.1333 20.5447 16.2269C20.3002 16.3894 20.0802 16.5862 19.8916 16.8113C19.799 16.7017 19.7536 16.56 19.7652 16.417C19.7768 16.274 19.8445 16.1414 19.9535 16.0482V16.0413ZM22.8135 36.6663C22.5927 36.7933 22.3488 36.8753 22.0961 36.9074C21.8434 36.9395 21.5868 36.9211 21.3413 36.8534C21.0957 36.7856 20.866 36.6697 20.6656 36.5125C20.4651 36.3553 20.2978 36.1599 20.1735 35.9376C19.761 35.1538 20.9503 34.4594 21.3628 35.2501C21.3936 35.3183 21.4386 35.3792 21.4949 35.4286C21.5512 35.4779 21.6175 35.5146 21.6892 35.5361C21.7609 35.5576 21.8364 35.5635 21.9106 35.5533C21.9847 35.543 22.0559 35.517 22.1191 35.4769C22.2672 35.4272 22.4278 35.4295 22.5745 35.4833C22.7212 35.5371 22.8452 35.6393 22.926 35.7729C23.0069 35.9066 23.0398 36.0639 23.0193 36.2188C22.9989 36.3736 22.9263 36.5169 22.8135 36.6251V36.6663ZM28.2172 37.2301C27.8259 37.4171 27.3808 37.4589 26.9614 37.3481C26.542 37.2373 26.1757 36.981 25.9278 36.6251C25.8821 36.547 25.8522 36.4607 25.8399 36.371C25.8276 36.2814 25.8331 36.1902 25.8561 36.1027C25.8791 36.0152 25.9191 35.9331 25.9739 35.8611C26.0287 35.7891 26.0971 35.7287 26.1753 35.6832C26.2534 35.6374 26.3397 35.6076 26.4294 35.5952C26.519 35.5829 26.6102 35.5884 26.6977 35.6114C26.7852 35.6344 26.8673 35.6744 26.9393 35.7292C27.0113 35.784 27.0717 35.8525 27.1172 35.9307C27.1823 36.0052 27.2728 36.0528 27.3711 36.0644C27.4693 36.0759 27.5684 36.0505 27.649 35.993C27.7295 35.9356 27.7859 35.8503 27.807 35.7536C27.8282 35.657 27.8127 35.5559 27.7635 35.4701C27.4953 34.6176 28.8222 34.26 29.0903 35.0988C29.2073 35.4974 29.1844 35.9241 29.0256 36.3079C28.8668 36.6918 28.5816 37.0099 28.2172 37.2094V37.2301ZM19.6097 29.7019C19.5614 29.526 19.585 29.338 19.6752 29.1794C19.7655 29.0209 19.915 28.9046 20.091 28.8563C20.2669 28.808 20.4549 28.8315 20.6135 28.9218C20.772 29.012 20.8883 29.1616 20.9366 29.3376C22.0985 33.2701 30.7472 29.8532 29.5578 26.4638C29.2622 25.6251 30.596 25.2676 30.8847 26.0926C32.6791 31.2213 21.3147 35.4494 19.6097 29.7019ZM33.6691 31.5582C33.399 31.8179 33.0521 31.9831 32.6802 32.0289C32.3084 32.0748 31.9317 31.9989 31.6066 31.8126C31.457 31.7174 31.3499 31.5682 31.3077 31.3959C31.2655 31.2237 31.2915 31.0418 31.3802 30.8883C31.469 30.7348 31.6136 30.6215 31.7839 30.5721C31.9542 30.5227 32.137 30.541 32.2941 30.6232C32.6241 30.8088 32.8716 30.4719 32.6928 30.1763C32.2253 29.4201 33.3803 28.7257 33.8753 29.4888C34.0718 29.8089 34.158 30.1845 34.1207 30.5582C34.0835 30.9319 33.9248 31.2832 33.6691 31.5582ZM34.0197 25.7694C33.9558 25.8339 33.8798 25.885 33.796 25.9199C33.7122 25.9548 33.6224 25.9728 33.5316 25.9728C33.4408 25.9728 33.351 25.9548 33.2672 25.9199C33.1834 25.885 33.1074 25.8339 33.0435 25.7694C32.979 25.7055 32.9279 25.6295 32.893 25.5457C32.8581 25.4619 32.8401 25.3721 32.8401 25.2813C32.8401 25.1905 32.8581 25.1007 32.893 25.0169C32.9279 24.9331 32.979 24.8571 33.0435 24.7932C33.2222 24.6557 33.4078 24.2363 33.0435 24.1951C32.8611 24.1951 32.6863 24.1226 32.5573 23.9937C32.4284 23.8648 32.356 23.6899 32.356 23.5076C32.356 23.3252 32.4284 23.1503 32.5573 23.0214C32.6863 22.8925 32.8611 22.8201 33.0435 22.8201C33.3831 22.8423 33.7085 22.9645 33.9789 23.1712C34.2492 23.378 34.4524 23.66 34.5628 23.9819C34.6598 24.3001 34.6599 24.64 34.5631 24.9583C34.4664 25.2766 34.2773 25.5589 34.0197 25.7694ZM39.2653 25.3226C39.2685 25.4104 39.2492 25.4975 39.2093 25.5758C39.1693 25.6541 39.11 25.7208 39.037 25.7697C38.964 25.8186 38.8797 25.8481 38.7921 25.8552C38.7045 25.8624 38.6166 25.8471 38.5366 25.8107C38.5222 25.5176 38.4878 25.2259 38.4335 24.9376C38.5082 24.8794 38.5975 24.8429 38.6915 24.8322C38.7856 24.8214 38.8808 24.8367 38.9668 24.8765C39.0527 24.9163 39.126 24.9789 39.1787 25.0576C39.2313 25.1363 39.2613 25.228 39.2653 25.3226Z" fill="#DE4E4E"/>
</g>
<defs>
<clipPath id="clip0_1_7026">
<rect width="54" height="54" fill="white"/>
</clipPath>
</defs>
</svg>
